<svg version="1.2" xmlns="http://www.w3.org/2000/svg" viewBox="0 0 110 90" width="110" height="90"><style>.a{fill:#1d1d1b}</style><path class="a" d="m62.7 77c0 7.1-3.4 12.8-7.5 12.8-4.1 0-7.5-5.7-7.5-12.8 0-7 3.4-12.7 7.5-12.7 4.1 0 7.5 5.7 7.5 12.7z"/><path class="a" d="m35.3 3.8c-8.4 0.7-16.6 4.5-22.5 10.6-0.6 0.7-1.7 0-1.3-0.9 2.2-4.8 6.5-10.2 10.5-11.9 4.4-1.9 9.3-1.2 13.6 1 0.6 0.3 0.4 1.2-0.3 1.2z"/><path class="a" d="m3.9 30.4q-0.2-0.1-0.5-0.1c-0.3-0.1-0.3 0.4 0 0.3q0.3 0 0.5-0.1c0.1 0 0.1-0.1 0-0.1z"/><path class="a" d="m82.9 3.8c8.5 0.7 16.6 4.5 22.5 10.6 0.6 0.7 1.7 0 1.3-0.9-2.2-4.8-6.5-10.2-10.4-11.9-4.5-1.9-9.4-1.2-13.7 1-0.5 0.3-0.4 1.2 0.3 1.2z"/><path class="a" d="m0.8 29.3c0 0 0.5 0.7 1.3 2 0.4 0.7 1 1.5 1.6 2.2q0.4 0.6 1 1.3 0.5 0.7 1.2 1.3c0.8 1 1.8 1.9 2.8 2.8 0.5 0.5 1.1 1 1.7 1.4 0.6 0.4 1.1 0.9 1.7 1.3 1.3 0.7 2.6 1.6 4 2.2 1.4 0.8 2.9 1.2 4.3 1.8l2.4 0.6c0.9 0.2 1.6 0.2 2.3 0.4 1.4 0.2 3 0.2 4.5 0.3 0.7 0 1.5-0.1 2.2-0.1 0.7 0 1.4-0.1 2.1-0.2 1.4-0.2 2.7-0.4 3.9-0.8q0.9-0.2 1.8-0.4 0.8-0.3 1.5-0.5c1-0.4 1.9-0.6 2.5-1 1.4-0.6 2.3-0.9 2.3-0.9 0 0-0.6 0.6-1.7 1.8q-0.8 0.9-2.1 1.9-0.7 0.5-1.4 1c-0.6 0.4-1.2 0.6-1.8 1-0.6 0.3-1.2 0.7-1.9 1q-1 0.3-2.2 0.7c-0.7 0.3-1.5 0.5-2.3 0.7q-1.3 0.3-2.6 0.5c-1.7 0.1-3.5 0.3-5.5 0.1-1-0.1-2-0.2-2.8-0.4l-2.7-0.6c-1.8-0.7-3.6-1.3-5.2-2.3-1.7-0.8-3.1-2-4.5-3.1-0.6-0.6-1.2-1.2-1.8-1.8-0.6-0.6-1.1-1.2-1.6-1.9-0.5-0.6-1-1.2-1.4-1.8-0.4-0.6-0.7-1.3-1-1.9-0.3-0.6-0.7-1.2-0.9-1.8q-0.4-0.9-0.6-1.7-0.6-1.5-0.8-2.7c-0.2-1.5-0.3-2.4-0.3-2.4z"/><path class="a" d="m109.6 29.3c0 0 0 0.9-0.3 2.4q-0.1 1.2-0.7 2.7-0.3 0.8-0.6 1.7c-0.3 0.6-0.6 1.2-0.9 1.8-0.4 0.6-0.7 1.3-1.1 1.9-0.4 0.6-0.9 1.2-1.4 1.8-0.4 0.7-1 1.3-1.6 1.9-0.6 0.6-1.2 1.2-1.8 1.8-1.4 1.1-2.8 2.3-4.5 3.1-1.6 1-3.4 1.6-5.2 2.3l-2.7 0.6c-0.8 0.2-1.8 0.3-2.8 0.4-1.9 0.2-3.7 0-5.5-0.1q-1.3-0.2-2.5-0.5c-0.9-0.2-1.7-0.4-2.4-0.7q-1.1-0.4-2.2-0.7c-0.7-0.3-1.3-0.7-1.9-1-0.6-0.4-1.2-0.6-1.7-1q-0.8-0.5-1.5-1-1.3-1-2.1-1.9c-1.1-1.2-1.6-1.8-1.6-1.8 0 0 0.8 0.3 2.2 0.9 0.7 0.4 1.5 0.6 2.5 1q0.7 0.2 1.6 0.5 0.8 0.2 1.7 0.4c1.2 0.4 2.5 0.6 3.9 0.8 0.7 0.1 1.4 0.2 2.1 0.2 0.8 0 1.5 0.1 2.2 0.1 1.5-0.1 3.1-0.1 4.5-0.3 0.8-0.2 1.4-0.2 2.3-0.4l2.4-0.6c1.4-0.6 2.9-1 4.3-1.8 1.4-0.6 2.7-1.5 4-2.2 0.6-0.4 1.2-0.9 1.8-1.3 0.6-0.4 1.1-0.9 1.6-1.4 1.1-0.9 2.1-1.8 2.9-2.8q0.6-0.6 1.2-1.3 0.5-0.7 0.9-1.3c0.7-0.7 1.2-1.5 1.6-2.2 0.8-1.3 1.3-2 1.3-2z"/></svg>