<svg version="1.2" xmlns="http://www.w3.org/2000/svg" viewBox="0 0 117 131" width="117" height="131"><style>.a{fill:#1d1d1b}.b{fill:#db5b54}.c{fill:#fff}.d{fill:#ededed}</style><path class="a" d="m15.8 79.2c-2.1 0.7-4.3 1.7-5.8 3.4-1.6 2-1.8 4.7-1.3 7 0.3 1.9 3 1.1 2.7-0.7-0.6-3.7 2-6.8 4.9-8.7 0.5-0.4 0.2-1.2-0.5-1z"/><path class="a" d="m102.2 80.2c2.8 1.9 5.5 5 4.8 8.7-0.3 1.8 2.5 2.6 2.8 0.7 0.4-2.4 0.1-4.6-1.2-6.7-1.2-2-3.9-3.1-6-3.7-0.6-0.2-0.9 0.6-0.4 1z"/><path class="a" d="m107.8 84.9l-1.2-0.9q0.1-0.4 0.3-0.8-0.2 0.3-0.5 0.7l-0.5-0.4q0 0-0.8 0.9c-0.4 0.5-1.3 1.3-2.3 2.2q-0.8 0.7-1.8 1.5-1 0.8-2.2 1.6-1.3 0.9-2.7 1.8-1.4 0.8-3 1.8c-2.2 1.2-4.5 2.4-7.1 3.5-1.3 0.6-2.6 1.2-4 1.7-1.4 0.5-2.8 1-4.3 1.5-2.8 0.9-5.9 1.7-9 2.3-1.6 0.2-3.2 0.5-4.8 0.7-1.6 0-3.1 0.3-4.8 0.2h-2.5c-0.7 0-1.6-0.1-2.3-0.1-1.6-0.1-3.2-0.3-4.8-0.6-3.1-0.5-6.2-1.2-9-2.2-2.9-0.9-5.7-2.1-8.2-3.2-2.6-1.2-4.9-2.4-7-3.7q-1.6-0.9-3-1.8-1.4-0.9-2.7-1.8c-1.6-1.2-2.9-2.2-4-3.2-1.1-0.9-1.8-1.6-2.3-2.2q-0.8-0.9-0.8-0.9l-1.8 1.4q0 0.1 0.7 1 0.3 0.3 0.7 0.7c3.9 9.1 9 20.9 15.2 28.5 6.3 7.8 15.2 14.1 25.2 14.9 7.3 0.7 14.6-1.5 21.1-4.9 15.1-7.7 26.8-21.6 32-37.7q0.9-0.9 1.4-1.5 0.8-1 0.8-1z"/><path class="b" d="m70.2 123c-3.3-5.7-9.3-9.6-15.8-10.3-6.5-0.7-13.2 1.9-17.6 6.7 9.6 7.6 22.2 8.5 33.4 3.6z"/><path class="c" d="m37.3 101.6c4.6 6.2 12.6 10.3 20.8 10 6.4-0.3 12.4-3.4 16.6-7.9-12.3 2.9-25.3 1.9-37.4-2.1z"/><path class="a" d="m80.2 14.9c8.4-0.5 17.1 2.2 23.7 7.5 0.7 0.6 1.7-0.3 1.2-1-2.9-4.6-7.8-9.4-12-10.5-4.6-1.3-9.4 0-13.3 2.7-0.6 0.4-0.3 1.3 0.4 1.3z"/><path class="a" d="m25.9 3c-8.4 1.2-16.3 5.6-21.8 12.1-0.6 0.7-1.7 0-1.4-0.9 1.9-5 5.9-10.6 9.7-12.6 4.3-2.1 9.2-1.8 13.6 0.1 0.6 0.3 0.5 1.2-0.1 1.3z"/><path class="c" d="m47.7 26.3c-5.1-6.9-13.4-10.9-21.6-10.4-8.1 0.4-16 5.3-20.4 12.7-5.1 8.7-5.4 20.5-0.5 29.3 4.8 8.9 14.5 14.4 24 13.7 9.5-0.7 18.4-7.5 22.1-16.9 3.7-9.3 2.2-20.6-3.6-28.4z"/><path fill-rule="evenodd" class="a" d="m48.5 25.7c0 0 0.3 0.6 1 1.7 0.3 0.5 0.8 1.1 1.2 2q0.6 1.2 1.4 2.9c0.3 1.1 0.7 2.3 1.2 3.7 0.2 1.4 0.6 2.9 0.7 4.6 0.4 3.3 0.2 7-0.7 11.1q-0.5 1.4-0.9 2.8c-0.4 1.1-0.9 2-1.4 3-0.4 1.1-1.1 2-1.7 2.9-0.3 0.5-0.6 1-1 1.5l-1.1 1.3c-3.1 3.5-7.2 6.5-12.1 8.1-4.8 1.7-10.5 1.6-15.5-0.3-5.1-1.8-9.4-5.1-12.8-9.5-3.2-4.2-5.3-9.5-5.9-14.8-0.6-5.3-0.1-10.6 1.9-15.7 1.8-4.7 5.1-9 8.9-11.9 1-0.8 2-1.5 3.1-2q0.7-0.5 1.5-0.9 0.8-0.3 1.6-0.7 0.8-0.3 1.6-0.6 0.9-0.3 1.7-0.5c0.6-0.1 1.2-0.3 1.7-0.4q0.8-0.1 1.5-0.2 0.7-0.1 1.5-0.2c0.3-0.1 0.1 0 0.2-0.1 0.1 0.1 0.3 0.1 0.3 0.1h0.4 0.8c1 0 2 0 3 0.2 1 0.2 1.9 0.3 2.8 0.6 0.9 0.3 1.8 0.6 2.6 0.9 3.2 1.3 5.7 3.1 7.5 4.7 0.9 0.7 1.6 1.7 2.3 2.3 0.7 0.7 1.1 1.3 1.5 1.8 0.7 1 1.1 1.5 1.1 1.5zm-1.5 1.2q0 0 0 0 0 0 0 0zm-1.2-1.3c-0.4-0.5-0.9-1.1-1.6-1.6-0.7-0.5-1.3-1.2-2.3-1.8-1.7-1.3-4.1-2.5-7-3.5-2.9-0.8-6.3-1.3-9.9-0.9q-0.8 0.1-1.5 0.1c-0.5 0.1-0.9 0.3-1.3 0.4q-0.7 0.1-1.4 0.3-0.7 0.2-1.4 0.5-0.7 0.3-1.4 0.5-0.7 0.4-1.4 0.7c-0.9 0.5-1.8 1.1-2.7 1.7-3.5 2.5-6.6 5.9-8.6 10.3-2 4.2-2.9 9.3-2.6 14.4 0.4 5 1.8 10.2 5.1 14.3 3.1 4.1 7.5 7.4 12.3 9 4.8 1.7 10.1 1.8 14.7 0.1 4.6-1.5 8.5-4.4 11.4-7.8l1-1.3c0.3-0.4 0.6-0.9 0.9-1.3 0.6-0.9 1.2-1.8 1.6-2.8 0.4-0.9 0.9-1.9 1.2-2.7q0.5-1.5 0.9-2.9c0.8-3.8 1-7.3 0.6-10.5-0.1-1.5-0.5-2.9-0.8-4.3q-0.6-1.9-1.2-3.5-0.7-1.5-1.2-2.7c-0.4-0.7-0.9-1.3-1.2-1.8q-0.8-1.4-1-1.6-0.1-0.1-1.2-1.3z"/><path class="a" d="m16.4 46.2c0 5.7 4.6 10.4 10.3 10.4 5.7 0 10.4-4.7 10.4-10.4 0-5.7-4.7-10.3-10.4-10.3-5.7 0-10.3 4.6-10.3 10.3z"/><path class="c" d="m26.4 42.4c0 1.9 1.5 3.5 3.4 3.5 1.9 0 3.4-1.6 3.4-3.5 0-1.8-1.5-3.4-3.4-3.4-1.9 0-3.4 1.6-3.4 3.4z"/><path class="d" d="m50.3 54.4c0.9-2.2 1.4-4.6 1.7-7q-0.4 1.7-1 3.4c-3.7 9.4-12.5 16.1-21.9 16.8-9.4 0.6-18.9-4.8-23.7-13.6-1.1-2.1-1.9-4.4-2.5-6.7 0.4 3.6 1.3 7.6 3 10.7 4.6 8.5 14 13.4 23.2 12.7 9.1-0.6 17.6-7.2 21.2-16.3z"/><path class="a" d="m116.8 52.7c-12.8-4.9-27.9-5.4-40.6-0.1-2.1 0.9-0.9 3.8 1.2 2.9 11.6-5.1 27-5 39.3-2.5 0.2 0.1 0.3-0.2 0.1-0.3z"/><path class="a" d="m99.4 67c-4.7-1.1-9.1-2.8-13.3-5.1-2.5-1.4-4.7-3.3-6.4-5.6-1-1.5-1.1-2.5-2.9-3-0.3-0.2-0.8 0-1 0.4-1.8 3.7 3.9 7.9 6.5 9.8 4.9 3.6 11 4.8 16.9 5.4 1.1 0.1 1.3-1.7 0.2-1.9z"/><path class="a" d="m94.8 35.8c-9.4 1.2-18.4 7.2-19.7 17.4-0.2 2.1 3.5 2.6 3.8 0.5 0.3-1.7 0.3-3.2 0.8-4.8 0.7-2.1 2-4 3.4-5.6 3.1-3.4 7.4-5.8 11.7-7.3 0.1 0 0.1-0.2 0-0.2z"/></svg>