<svg version="1.2" xmlns="http://www.w3.org/2000/svg" viewBox="0 0 151 140" width="151" height="140"><style>.a{fill:#1d1d1b}.b{fill:#fff}.c{fill:#ededed}.d{fill:#db5b54}.e{fill:#db4a43}</style><path class="a" d="m84.9 106.3c-7 0.3-14.2 0.3-21.2-0.8-3.6-0.6-7.2-1.5-10.3-3.3-3.1-1.8-5.7-4.8-6.6-8.3 17.1-7.9 37.5-8.3 55-1.2 1.7 3.9-0.8 8.6-4.5 10.9-3.6 2.2-8.1 2.5-12.4 2.7z"/><path class="a" d="m44.9 3.9c-8.4 0.6-16.6 4.5-22.5 10.6-0.6 0.7-1.7-0.1-1.3-0.9 2.2-4.9 6.5-10.3 10.5-11.9 4.4-1.9 9.3-1.2 13.6 1 0.6 0.3 0.4 1.2-0.3 1.2z"/><path class="b" d="m63.6 31c-5.1-6.9-13.4-10.9-21.6-10.4-8.1 0.4-16 5.3-20.4 12.7-4.8 8-5.3 18.7-1.5 27.2q0.8 0.3 1.7 0.8c6.9 3.7 13.3 8.5 17.9 14.8q2.7 0.4 5.4 0.2c9.5-0.7 18.4-7.5 22.1-16.9 3.7-9.3 2.2-20.6-3.6-28.4z"/><path fill-rule="evenodd" class="a" d="m64.3 30.4c0.7 1.2 1.6 2.3 2.2 3.5 0.6 1.3 1.3 2.5 1.7 3.8 0.4 1.4 1 2.7 1.2 4 0.2 1.4 0.6 2.7 0.6 4.1 0.1 1.4 0.2 2.8 0.1 4.2l-0.1 2.1c-0.1 0.6-0.3 1.3-0.4 2-0.1 0.7-0.2 1.4-0.4 2.1l-0.6 1.9c-0.2 0.7-0.3 1.3-0.7 2l-0.9 1.9c-0.5 1.3-1.4 2.4-2.1 3.6-0.7 1.2-1.8 2.1-2.6 3.2-0.9 1-2.1 1.9-3.1 2.8-1.1 0.9-2.3 1.6-3.4 2.4-1.3 0.6-2.5 1.2-3.8 1.7l-2.1 0.7c-0.7 0.2-1.3 0.4-2 0.4l-2 0.3-0.5 0.1c-0.1 0-0.1 0-0.3 0.1h-0.3-1c-1.4 0-2.8-0.2-4.2-0.4h-0.3l-0.2-0.3-2-2.4-1-1.2c-0.4-0.4-0.7-0.8-1.1-1.2l-2.2-2.1c-0.8-0.7-1.5-1.4-2.4-2l-2.5-1.9q-1.2-0.9-2.6-1.7l-2.7-1.6c-0.5-0.3-1-0.6-1.4-0.8l-1.4-0.5-0.3-0.1-0.1-0.3c-0.6-1.6-1.3-3.1-1.7-4.7-0.2-0.8-0.4-1.6-0.6-2.4l-0.3-2.5c-0.2-0.9-0.2-1.7-0.2-2.6 0-0.8-0.1-1.6 0-2.5 0.1-1.7 0.2-3.4 0.6-5 0.2-1.7 0.8-3.4 1.3-5 0.3-0.9 0.7-1.5 1-2.3l0.5-1.1c0.3-0.6 0.5-0.8 0.8-1.2 0.5-0.7 0.9-1.5 1.4-2.2l1.6-2c0.6-0.7 1.3-1.3 1.9-1.9q0.9-0.9 2-1.7c1.4-1.1 2.9-1.9 4.5-2.8 1.6-0.7 3.2-1.4 5-1.8l1.4-0.4c0.4-0.1 0.8-0.1 1.2-0.2l1.2-0.1 0.6-0.1c0.1 0 0.3 0 0.3 0h0.2 0.3 2.7c0.9 0.1 1.8 0.3 2.6 0.4 0.9 0.1 1.8 0.4 2.6 0.7 0.9 0.3 1.7 0.6 2.5 1 0.8 0.4 1.6 0.7 2.3 1.2l2.2 1.4c1.3 1.1 2.7 2.1 3.9 3.5 1.3 1.2 2.1 2.5 3.1 3.8zm-1.5 1.2q0 0 0 0 0 0 0 0zm-3.3-3.3c-1.1-1-2.5-1.8-3.8-2.7l-2-1c-0.7-0.4-1.5-0.6-2.2-0.9-0.7-0.3-1.4-0.4-2.2-0.6-0.7-0.1-1.5-0.4-2.2-0.5-0.8-0.1-1.5-0.2-2.3-0.3h-2.2c-0.2 0-0.5 0-0.5 0l-0.6 0.1-1.2 0.1c-0.4 0.1-0.8 0.1-1.2 0.2l-1.1 0.2c-1.4 0.3-2.8 0.9-4.3 1.4-1.3 0.8-2.7 1.4-4 2.4q-0.9 0.6-1.8 1.4c-0.6 0.5-1.2 0.9-1.7 1.5l-1.6 1.7c-0.5 0.6-0.9 1.3-1.4 1.9l-0.6 0.9-0.6 1.1c-0.3 0.7-0.8 1.4-1.1 2.1-0.5 1.5-1.2 2.8-1.5 4.4-0.4 1.5-0.6 3.1-0.8 4.7-0.2 0.7-0.1 1.5-0.1 2.3-0.1 0.8-0.1 1.6 0 2.4l0.2 2.4c0.1 0.8 0.3 1.6 0.4 2.3 0.3 1.6 0.9 3 1.4 4.5l1.2 0.5c0.6 0.3 0.9 0.6 1.4 0.8l2.7 1.7q1.4 0.8 2.7 1.7l2.6 1.9c0.8 0.6 1.6 1.4 2.4 2.1l2.3 2.1c0.5 0.4 0.8 0.8 1.1 1.2l1.1 1.2 1.9 2.3c1.3 0.1 2.6 0.4 3.9 0.3 1.3 0.1 2.6-0.3 3.9-0.5 0.7 0 1.3-0.2 1.9-0.4l1.9-0.7c1.2-0.4 2.4-1.1 3.6-1.7 1.1-0.7 2.2-1.4 3.2-2.2 1-0.9 2.1-1.7 2.9-2.7 0.8-1.1 1.8-2 2.4-3.1 0.7-1.1 1.5-2.2 2-3.4l0.8-1.8c0.3-0.5 0.5-1.3 0.7-1.9l0.6-1.9c0.1-0.6 0.2-1.3 0.3-1.9 0.1-0.7 0.2-1.3 0.3-1.9l0.1-2c0.1-1.3-0.1-2.6-0.2-3.9 0-1.3-0.4-2.6-0.6-3.9-0.2-1.3-0.8-2.5-1.1-3.7-0.4-1.3-1.1-2.4-1.6-3.6-0.6-1.1-1.4-2.2-2.1-3.3-1.1-1.1-2.1-2.4-3.3-3.3zm-39 32l-0.3-0.2 0.3 0.3q0-0.1 0-0.1zm19.4 15.5q0 0-0.1 0l0.2 0.1z"/><path class="c" d="m21.8 61.3q0.6 0.3 1.2 0.7-1.1-1.5-1.9-3.1c-1.2-2.2-2-4.5-2.6-6.9 0.4 3.1 1 6 2.2 8.7q0.5 0.3 1.1 0.6z"/><path class="c" d="m67 55.6c-3.7 9.6-12.6 16.6-22 17.2-3.1 0.3-6.2-0.2-9.1-1.2 1.3 1.3 2.5 2.7 3.7 4.2q2.6 0.5 5.3 0.3c9.2-0.7 18.1-7.9 21.7-17.2 0.9-2.3 1.4-4.7 1.7-7.1-0.3 1.1-0.9 2.7-1.3 3.8z"/><path class="a" d="m58.5 54.3c0 5.7-4.6 10.3-10.3 10.3-5.7 0-10.4-4.6-10.4-10.3 0-5.7 4.7-10.3 10.4-10.3 5.7 0 10.3 4.6 10.3 10.3z"/><path class="b" d="m48.5 50.5c0 1.9-1.5 3.4-3.4 3.4-1.9 0-3.4-1.5-3.4-3.4 0-1.9 1.5-3.4 3.4-3.4 1.9 0 3.4 1.5 3.4 3.4z"/><path class="a" d="m17 60c13.3 7 23.9 17.1 28.4 31.8 2 6.4 1.6 13.1-0.4 19.4-2.7 8.5-10.3 12.1-15.7 18.3-0.6 0.7 0 1.6 0.8 1.5 16-2.7 22.1-22.3 20-36.1-2.5-16.6-16.8-31.7-32.9-35.4-0.3 0-0.5 0.4-0.2 0.5z"/><path class="a" d="m1.1 63.5c3-2.4 6.2-3.9 10.1-4 3.2-0.2 5.8 1.4 8.8 2.1 0.5 0.1 1-0.5 0.5-0.9-6.5-5-14.6-3.2-19.9 2.3-0.4 0.4 0.1 0.8 0.5 0.5z"/><path class="a" d="m-0.1 48.3c7.9 2 13.3 7 18.8 12.7 0.7 0.7 1.6-0.3 1-1-5.9-6.1-11.2-10.6-19.8-11.9-0.1 0-0.2 0.2 0 0.2z"/><path class="a" d="m105.5 3.9c8.4 0.6 16.6 4.5 22.5 10.6 0.6 0.7 1.7-0.1 1.3-0.9-2.2-4.9-6.5-10.3-10.5-11.9-4.4-1.9-9.3-1.2-13.6 1-0.6 0.3-0.4 1.2 0.3 1.2z"/><path class="b" d="m86.8 31c5.2-6.9 13.4-10.9 21.6-10.4 8.2 0.4 16 5.3 20.4 12.7 4.8 8 5.3 18.7 1.6 27.2q-0.9 0.3-1.8 0.8c-6.9 3.7-13.3 8.5-17.9 14.8q-2.7 0.4-5.4 0.2c-9.5-0.7-18.4-7.5-22.1-16.9-3.7-9.3-2.2-20.6 3.6-28.4z"/><path fill-rule="evenodd" class="a" d="m86.1 30.3c1-1.2 1.9-2.5 3.2-3.7 1.2-1.3 2.6-2.3 4-3.3l2.2-1.4c0.7-0.4 1.5-0.7 2.3-1.1 0.8-0.4 1.6-0.6 2.5-0.9 0.8-0.2 1.6-0.5 2.5-0.6 0.8-0.1 1.7-0.3 2.6-0.4h2.6c0.2 0 0.3 0 0.7 0l0.6 0.1 1.2 0.2c0.5 0 0.8 0.1 1.3 0.2l1.3 0.3c1.7 0.4 3.3 1.2 4.9 1.8 1.5 0.9 3 1.7 4.3 2.8q1.1 0.7 2 1.6c0.6 0.6 1.3 1.1 1.8 1.8l1.7 2c0.5 0.6 0.9 1.4 1.4 2.1 0.3 0.4 0.5 0.6 0.7 1.1l0.6 1.1c0.3 0.8 0.7 1.4 1 2.2 0.6 1.7 1.2 3.3 1.4 5 0.5 1.6 0.6 3.3 0.7 4.9 0.1 0.9 0 1.7 0 2.5 0 0.9 0 1.7-0.2 2.5l-0.3 2.5c-0.2 0.8-0.4 1.6-0.6 2.4-0.3 1.7-1.1 3.2-1.7 4.7v0.2l-0.3 0.1-1.4 0.6c-0.4 0.1-0.9 0.5-1.3 0.7l-2.8 1.6q-1.3 0.8-2.6 1.7l-2.5 1.9c-0.9 0.5-1.6 1.3-2.4 2l-2.4 2.1c-0.4 0.3-0.7 0.7-1.1 1.1l-1 1.2-2 2.4-0.2 0.1h-0.1c-1.3 0.1-2.7 0.4-4 0.3-1.4 0-2.8-0.3-4.1-0.4-0.7-0.1-1.3-0.3-2-0.5l-2-0.6c-1.2-0.5-2.5-1.1-3.7-1.7-1.1-0.7-2.3-1.4-3.4-2.2-1-1-2.2-1.7-3.1-2.8-0.8-1-1.9-2-2.6-3.1-0.7-1.2-1.6-2.3-2.1-3.6l-0.9-1.8c-0.4-0.7-0.5-1.3-0.7-2l-0.7-1.9c-0.1-0.6-0.2-1.3-0.4-2-0.1-0.7-0.3-1.4-0.3-2.1l-0.2-2c-0.1-1.4 0-2.8 0.1-4.2 0-1.3 0.3-2.7 0.5-4 0.2-1.4 0.8-2.7 1.1-4 0.4-1.4 1.1-2.6 1.7-3.9 0.6-1.2 1.4-2.3 2.2-3.5zm1.4 1.2c-0.7 1.1-1.4 2.1-2 3.3-0.5 1.2-1.2 2.3-1.6 3.5-0.3 1.3-0.9 2.5-1.1 3.8-0.2 1.3-0.5 2.5-0.5 3.8-0.1 1.3-0.3 2.6-0.1 3.9l0.1 2c0.1 0.6 0.2 1.3 0.3 1.9 0.1 0.6 0.2 1.2 0.3 1.9l0.7 1.9c0.2 0.6 0.3 1.4 0.6 1.8l0.8 1.8c0.5 1.2 1.3 2.2 2 3.3 0.7 1.2 1.7 2 2.5 3 0.8 1 1.9 1.8 2.8 2.7 1.1 0.8 2.2 1.4 3.3 2.2 1.1 0.5 2.3 1.1 3.5 1.6l1.8 0.6c0.6 0.2 1.2 0.3 1.9 0.4l2 0.3 0.5 0.1c0 0 0.2 0 0.1 0h0.3 0.9c1.2 0.1 2.4 0 3.6-0.1l1.9-2.1 1.1-1.2c0.3-0.4 0.6-0.9 1.1-1.2l2.4-2.1c0.8-0.7 1.6-1.5 2.5-2l2.6-1.9q1.3-1 2.7-1.8l2.7-1.6c0.4-0.3 0.8-0.5 1.4-0.8l1.1-0.5c0.5-1.5 1.1-2.9 1.3-4.4 0.2-0.7 0.4-1.5 0.5-2.3l0.2-2.4c0.1-0.7 0-1.5 0-2.3 0-0.8 0-1.6-0.1-2.4-0.3-1.5-0.5-3.1-1-4.6-0.3-1.5-1-2.9-1.5-4.2-0.3-0.7-0.8-1.5-1.2-2.2l-0.6-1-0.6-0.9c-0.5-0.6-0.9-1.2-1.4-1.8l-1.5-1.6c-0.5-0.6-1.2-1-1.7-1.5l-0.9-0.7-1-0.7c-1.2-0.9-2.5-1.5-3.8-2.2-1.4-0.5-2.8-1.1-4.2-1.4l-1-0.2c-0.3-0.1-0.8-0.1-1.2-0.2l-1.2-0.1-0.6-0.1c0.2 0-0.1 0 0 0h-0.1-0.3-2.2c-0.7 0.1-1.5 0.2-2.2 0.2-0.7 0.1-1.4 0.3-2.2 0.5-0.7 0.1-1.5 0.2-2.2 0.5-1.4 0.4-2.8 1.1-4.2 1.7-1.3 0.8-2.7 1.5-3.8 2.5-1.2 0.9-2.3 2.1-3.5 3.3zm22.7 43.7l-0.3 0.3 0.6-0.4q-0.1 0.1-0.3 0.1zm19.5-15.2q0 0.1 0 0.2l0.4-0.4z"/><path class="c" d="m128.6 61.3q-0.6 0.3-1.2 0.7 1.1-1.5 2-3.1c1.1-2.2 1.9-4.5 2.5-6.9-0.3 3.1-1 6-2.1 8.7q-0.6 0.3-1.2 0.6z"/><path class="c" d="m83.4 55.6c3.7 9.6 12.6 16.6 22.1 17.2 3 0.3 6.1-0.2 9.1-1.2-1.4 1.3-2.6 2.7-3.7 4.2q-2.7 0.5-5.4 0.3c-9.2-0.7-18.1-7.9-21.7-17.2-0.9-2.3-1.4-4.7-1.7-7.1 0.3 1.1 0.9 2.7 1.3 3.8z"/><path class="a" d="m91.9 54.3c0 5.7 4.6 10.3 10.3 10.3 5.8 0 10.4-4.6 10.4-10.3 0-5.7-4.6-10.3-10.4-10.3-5.7 0-10.3 4.6-10.3 10.3z"/><path class="b" d="m101.9 50.5c0 1.9 1.6 3.4 3.4 3.4 1.9 0 3.5-1.5 3.5-3.4 0-1.9-1.6-3.4-3.5-3.4-1.8 0-3.4 1.5-3.4 3.4z"/><path class="a" d="m133.2 59.5c-16.2 3.7-28.3 17.6-32.5 33.3-3.7 14.1 3.3 35.5 19.6 38.2 0.8 0.1 1.4-0.8 0.8-1.5-4.7-5.4-10.5-8.6-14.2-15-4-6.8-3.8-15.3-1.9-22.7 3.7-14.7 15.7-25 28.4-31.8 0.3-0.1 0.1-0.5-0.2-0.5z"/><path class="a" d="m149.9 63c-5.4-5.5-13.5-7.3-20-2.3-0.4 0.4 0.1 1 0.5 0.9 3.1-0.7 5.6-2 8.8-2.1 3.8-0.2 7.3 1.8 10.2 4 0.3 0.3 0.8-0.1 0.5-0.5z"/><path class="a" d="m150.5 48.1c-8.6 1.3-13.9 5.8-19.8 11.9-0.6 0.7 0.4 1.7 1 1 5.5-5.7 11-10.7 18.9-12.7 0.1 0 0-0.2-0.1-0.2z"/><path class="d" d="m100.4 98.4c-4.7-6.6-14.6-8.3-21-3.6-1.2 0.9-2.4 2-3.9 2.2-1.5 0.1-2.9-0.8-4.2-1.5-7.1-3.6-16.4-1.1-21 5.5 0.2 8.8 1.4 17.8 5.5 25.4 4.2 7.6 11.9 13.6 20.2 13.3 8.5-0.2 15.9-6.9 19.7-14.9 3.7-8.1 4.7-17.4 4.7-26.4z"/><path class="e" d="m100.2 98.9q-0.2-0.6-0.3-1.2c-4.9-6-14.3-7.4-20.5-2.9-1.2 0.9-2.4 2-3.9 2.2-1.5 0.1-2.9-0.8-4.2-1.5-6.3-3.2-14.4-1.6-19.3 3.5 2.6-1.2 5.4-2.4 8.3-2.7 3.5-0.4 7.5 0.6 9.7 3.5 1.5 1.8 2.1 4.1 2.5 6.4q0.9 4.8 1.3 9.6c0.2-2.4 0.6-4.7 1.3-7 1.7-5.2 5.1-9.9 10-12.2 5-2.3 11.4-1.6 15.1 2.3z"/></svg>