<svg version="1.2" xmlns="http://www.w3.org/2000/svg" viewBox="0 0 125 124" width="125" height="124"><style>.a{fill:#1d1d1b}.b{fill:#fff}.c{fill:#ededed}.d{fill:#db5b54}.e{fill:#db4a43}</style><path class="a" d="m32.2 3.4c-8.5 0.7-16.7 4.5-22.5 10.6-0.7 0.7-1.7 0-1.4-0.9 2.3-4.8 6.6-10.2 10.5-11.9 4.4-1.8 9.4-1.2 13.6 1 0.6 0.3 0.4 1.2-0.2 1.2z"/><path class="b" d="m53.2 33.7c-4-7.6-11.6-12.7-19.8-13.5-8.1-0.7-16.6 2.9-22.1 9.6-6.3 7.8-8.3 19.4-4.8 28.9 3.4 9.5 12.2 16.3 21.7 17.1 9.5 0.7 19.3-4.7 24.4-13.5 5-8.6 5.2-20 0.6-28.6z"/><path fill-rule="evenodd" class="a" d="m54 33.2c0 0 0.3 0.7 0.8 1.9 0.2 0.5 0.7 1.2 0.9 2.1q0.4 1.4 0.9 3.1c0.2 1.1 0.4 2.4 0.7 3.9 0 1.4 0.2 2.9 0.1 4.6-0.2 3.3-0.9 7-2.5 10.8q-0.6 1.4-1.3 2.8c-0.5 1-1.2 1.8-1.8 2.7-0.5 1-1.4 1.8-2.1 2.6-0.4 0.4-0.8 0.9-1.2 1.3l-1.3 1.1c-3.5 3.1-8 5.4-13.2 6.3-5 0.9-10.5 0-15.2-2.6-4.8-2.5-8.6-6.5-11.3-11.3-2.6-4.7-3.9-10.2-3.6-15.5 0.2-5.4 1.5-10.6 4.2-15.3 2.4-4.4 6.4-8.1 10.6-10.5 1.1-0.5 2.2-1.1 3.3-1.5q0.8-0.3 1.7-0.6 0.8-0.2 1.7-0.4 0.8-0.3 1.6-0.4 0.9-0.1 1.8-0.3c0.6 0 1.2-0.1 1.7-0.1q0.8 0 1.5 0 0.8 0 1.5 0c0.3 0 0.1 0 0.2 0 0.1 0 0.3 0.1 0.3 0.1h0.4l0.8 0.2c1 0.1 2 0.3 3 0.7 0.9 0.3 1.8 0.5 2.7 0.9 0.8 0.5 1.6 0.9 2.3 1.3 3 1.8 5.2 3.9 6.7 5.8 0.9 0.9 1.4 1.9 2 2.6 0.6 0.8 0.9 1.5 1.2 2 0.6 1.1 0.9 1.7 0.9 1.7zm-1.7 0.9q0 0 0 0 0.1 0 0.1 0zm-1.1-1.5c-0.3-0.5-0.7-1.2-1.3-1.7-0.6-0.7-1.1-1.5-2-2.2-1.5-1.5-3.7-3.1-6.4-4.5-2.8-1.2-6-2.2-9.7-2.4q-0.7 0-1.5 0c-0.4 0-0.9 0-1.4 0.1q-0.6 0-1.4 0.1-0.7 0.1-1.4 0.3-0.7 0.2-1.5 0.3-0.7 0.3-1.4 0.5c-1.1 0.3-2 0.8-3 1.2-3.8 2-7.4 4.9-10 9-2.6 3.9-4.3 8.8-4.7 13.8-0.4 5 0.3 10.4 2.9 15 2.4 4.5 6.3 8.3 10.8 10.7 4.5 2.4 9.8 3.2 14.5 2.3 4.8-0.9 9.1-3.2 12.4-6.1l1.3-1.1c0.4-0.4 0.7-0.8 1.1-1.2 0.7-0.8 1.4-1.6 2-2.5 0.5-0.9 1.2-1.7 1.6-2.5q0.6-1.4 1.3-2.8c1.3-3.5 2-7.1 2.1-10.2 0.1-1.6-0.1-3-0.1-4.4q-0.4-2-0.7-3.6-0.5-1.6-0.8-2.9c-0.3-0.8-0.7-1.4-0.9-2q-0.6-1.4-0.7-1.6-0.2-0.2-1.1-1.6z"/><path class="c" d="m52.1 61.8c1.2-2.2 2.1-4.4 2.7-6.8-0.5 1.1-1.3 2.5-1.9 3.5-5.1 9-14.9 14.6-24.3 13.8-9.5-0.7-18.2-7.7-21.6-17.3-0.8-2.3-1.3-4.7-1.5-7.2-0.1 3.7 0.1 7.3 1.3 10.7 3.4 9.4 12 16.3 21.2 17 9.2 0.8 19.1-5 24.1-13.7z"/><path class="a" d="m44.7 56c-0.8 5.7-6.1 9.6-11.7 8.7-5.7-0.8-9.6-6.1-8.7-11.8 0.8-5.6 6.1-9.5 11.7-8.6 5.7 0.8 9.6 6.1 8.7 11.7z"/><path class="b" d="m35.4 50.8c-0.3 1.9-2 3.1-3.9 2.9-1.9-0.3-3.2-2.1-2.9-3.9 0.3-1.9 2-3.2 3.9-2.9 1.9 0.3 3.2 2 2.9 3.9z"/><path class="a" d="m92.2 3.4c8.4 0.7 16.6 4.5 22.5 10.6 0.6 0.7 1.7 0 1.3-0.9-2.2-4.8-6.5-10.2-10.5-11.9-4.4-1.8-9.3-1.2-13.6 1-0.6 0.3-0.4 1.2 0.3 1.2z"/><path class="b" d="m70 35.6c3.5-7.9 10.6-13.7 18.7-15.1 8-1.4 16.8 1.6 22.8 7.8 7 7.2 9.9 18.7 7.2 28.4-2.7 9.7-10.9 17.3-20.3 18.8-9.4 1.5-19.6-3.1-25.4-11.4-5.7-8.2-6.8-19.6-3-28.5z"/><path fill-rule="evenodd" class="a" d="m69.2 35.2q0-0.1 0.8-1.8c0.3-0.5 0.5-1.2 1.1-2 0.5-0.8 1-1.9 1.8-2.7 1.4-2 3.5-4.1 6.3-6.1 2.8-1.9 6.5-3.4 10.7-3.9q0.8 0 1.5-0.1c0.6 0 1.2 0 1.7 0q0.9 0.1 1.7 0.1 0.9 0.1 1.7 0.3 0.8 0.1 1.7 0.3 0.8 0.2 1.6 0.5c1.2 0.2 2.3 0.7 3.3 1.2 4.4 1.9 8.6 5.1 11.5 9.2 3 4.3 4.9 9.3 5.5 14.6 0.6 5.3-0.2 10.9-2.3 15.7-2.3 4.9-5.9 9.1-10.4 11.9-4.5 2.8-9.8 4-14.7 3.6-5.1-0.4-9.7-2.3-13.5-4.9l-1.4-1c-0.4-0.4-0.8-0.8-1.3-1.1-0.8-0.8-1.6-1.5-2.3-2.4-0.7-0.9-1.4-1.6-2-2.6q-0.8-1.3-1.6-2.5c-1.8-3.7-2.9-7.3-3.4-10.6-0.2-1.6-0.2-3.1-0.3-4.6 0.1-1.4 0.2-2.7 0.3-3.9q0.3-1.7 0.6-3.1c0.2-0.9 0.5-1.6 0.7-2.2 0.4-1.3 0.7-1.9 0.7-1.9zm1.7 0.8q-0.1 0.2-0.6 1.7c-0.2 0.5-0.5 1.2-0.7 2.1q-0.3 1.2-0.6 2.9-0.1 1.7-0.3 3.7c0.1 1.3 0 2.8 0.3 4.3 0.3 3.1 1.4 6.5 3 9.9q0.8 1.3 1.6 2.6c0.4 0.8 1.2 1.6 1.8 2.4 0.6 0.8 1.4 1.5 2.2 2.2 0.4 0.4 0.7 0.8 1.2 1.1l1.3 1c3.5 2.5 8 4.4 12.6 4.8 4.8 0.4 9.8-0.7 14.1-3.3 4.2-2.6 7.9-6.6 9.9-11.3 2.2-4.8 2.5-10.1 1.7-15-0.8-5-3.1-9.6-5.9-13.1-3-3.8-6.8-6.3-10.7-7.8-1-0.4-1.9-0.8-2.9-1q-0.8-0.2-1.5-0.3-0.7-0.1-1.5-0.2-0.7-0.1-1.4-0.2-0.7 0-1.3 0c-0.5 0-0.9 0-1.3 0q-0.8 0.1-1.5 0.2-0.8 0-1.5 0.1c-0.1 0.1-0.2 0.1-0.2 0.1l-0.3 0.1-0.6 0.1c-0.8 0.2-1.6 0.3-2.4 0.7-1.6 0.5-2.9 1.2-4.3 1.8-2.5 1.5-4.7 3.1-6.2 4.7-0.8 0.8-1.2 1.6-1.8 2.2-0.5 0.7-0.9 1.3-1.2 1.9q-0.9 1.4-1 1.6zm18-13.2q0 0 0.1 0-0.1 0-0.1 0 0 0 0 0zm0.1 0q0 0 0 0 0 0 0 0zm0 0c0.1 0 0 0 0 0q0 0 0 0z"/><path class="a" d="m100.4 52.4c1.4 5.6-2.1 11.1-7.7 12.4-5.5 1.3-11.1-2.1-12.4-7.7-1.3-5.5 2.2-11.1 7.7-12.4 5.6-1.3 11.1 2.2 12.4 7.7z"/><path class="b" d="m89.8 51c0.5 1.9-0.7 3.7-2.5 4.1-1.9 0.5-3.7-0.7-4.1-2.5-0.5-1.8 0.7-3.7 2.5-4.1 1.9-0.4 3.7 0.7 4.1 2.5z"/><path class="c" d="m74 63.6c-1.4-2-2.5-4.2-3.3-6.4q0.8 1.5 1.8 3c5.7 8.3 15.8 12.9 25.1 11.4 9.3-1.5 17.3-9 20-18.7 0.6-2.3 0.9-4.7 0.9-7.1 0.4 3.6 0.4 7.7-0.5 11.1-2.6 9.4-10.6 16.3-19.6 17.7-9.1 1.5-18.9-3-24.4-11z"/><path class="d" d="m106.5 97.6c-1.1-3.5-0.8-7.1-3.1-10-2.3-2.9-6-5-9.7-4.4-3.2 0.6-5.8 3.1-7.5 5.8-3.4 5.4-4.6 12-3.2 18.2 9.2-2.6 15.4-4.5 23.5-9.6z"/><path class="e" d="m95.3 103.8c-0.5 0-0.9-0.4-1-0.9q0-1.7-0.1-3.2c-0.1-3.5-0.2-6.5 0.1-10.6 0-0.6 0.5-0.9 1-0.9 0.5 0 0.9 0.5 0.9 1-0.3 4-0.2 6.8-0.1 10.5q0.1 1.4 0.1 3.1c0 0.6-0.4 1-0.9 1z"/><path class="a" d="m3.1 82.7c0 0 0.3 0.4 0.9 1.2 0.6 0.7 1.5 1.9 2.7 3.2 0.6 0.7 1.2 1.4 2 2.2q1.2 1.1 2.5 2.4 1.4 1.2 3.1 2.6 1.6 1.2 3.5 2.6c2.6 1.7 5.4 3.5 8.6 5 3.1 1.7 6.6 3 10.3 4.2 3.7 1.2 7.6 2.1 11.6 2.7 3.9 0.6 8.1 0.9 12.1 0.9 4.2-0.3 8.4-0.3 12.3-1.2 4.1-0.4 7.9-1.6 11.6-2.5 1.9-0.6 3.7-1.3 5.4-1.9q1.3-0.5 2.6-0.9c0.9-0.3 1.7-0.7 2.5-1.1q2.4-1.1 4.7-2.1c1.5-0.7 2.9-1.5 4.3-2.3 1.4-0.7 2.7-1.4 3.9-2.1q1.8-1.1 3.4-2.2 1.6-1 2.9-1.9c0.9-0.6 1.7-1.2 2.5-1.7 2.8-2.2 4.5-3.4 4.5-3.4l1.1 1.4c0 0-1.5 1.3-4.4 3.7-0.7 0.6-1.5 1.3-2.3 1.9q-1.4 1-3 2.1-1.5 1.2-3.3 2.4c-1.2 0.8-2.6 1.6-3.9 2.4-1.4 0.8-2.8 1.7-4.3 2.4q-2.4 1.2-4.8 2.4c-0.9 0.3-1.7 0.8-2.6 1.1q-1.3 0.6-2.6 1.1-2.7 1-5.6 2c-3.9 1-7.8 2.2-12.1 2.8-4.3 0.9-8.4 1-12.5 1.3l-3.4-0.1c-1.1 0-2.2-0.1-3.2-0.2-2.2-0.1-4.3-0.4-6.4-0.7-4.2-0.8-8.2-1.7-12.1-3-3.8-1.3-7.4-2.8-10.6-4.6-3.3-1.7-6.2-3.7-8.8-5.5-1.3-1-2.5-1.9-3.6-2.9q-1.6-1.5-3.1-2.8-1.3-1.5-2.5-2.7c-0.7-0.8-1.4-1.7-2-2.4-1.2-1.4-1.9-2.6-2.5-3.4-0.5-0.8-0.8-1.3-0.8-1.3z"/><path class="a" d="m7.8 80c-2.3-0.5-4.4 0.1-6 1.8-0.8 0.9-1.2 2-1.4 3.1-0.3 1.4-0.1 2.2 0.8 3.3 0.3 0.3 0.8 0.1 1-0.2 0.4-0.7 0.8-1.2 0.9-2 0-0.8 0.3-1.5 0.7-2.2 0.7-1.7 2-2.5 3.9-2.6 0.7 0 0.8-1 0.1-1.2z"/><path class="a" d="m117.1 86c0.6 1 2 1.6 2.9 2.5 0.6 0.6 0.9 1.5 1 2.4 0.2 0.9 0.2 2.1 0.8 2.9 0.2 0.3 0.5 0.5 0.9 0.3 2.9-0.8 1.7-5 0.4-6.7-1.1-1.3-3.2-3-5-3.2-0.9 0-1.4 1.1-1 1.8z"/><path class="a" d="m42.3 116.4c-0.7 4 7.1 5.9 9.7 6.4 5 0.9 12.1 2 16.7-0.6 0.7-0.4 0.4-1.4-0.4-1.5-8.9-0.5-18.1 1.2-25.7-4.4-0.1 0-0.2 0-0.3 0.1z"/></svg>