<svg version="1.2" xmlns="http://www.w3.org/2000/svg" viewBox="0 0 123 103" width="123" height="103"><style>.a{fill:#fff}.b{fill:#1d1d1b}.c{fill:#ededed}</style><path class="a" d="m53.7 31.2c-2.9-8.1-9.6-14.3-17.6-16.2-7.9-2-16.8 0.4-23.2 6.3-7.5 6.7-11.1 17.9-9.1 27.8 2.1 9.9 9.7 18 19 20.1 9.3 2.1 19.8-1.8 26.2-9.8 6.1-7.8 8-19 4.7-28.2z"/><path fill-rule="evenodd" class="b" d="m54.6 30.9c0 0 0.2 0.6 0.5 1.9 0.2 0.6 0.5 1.3 0.6 2.2q0.2 1.4 0.4 3.2c0.1 1.2 0.1 2.5 0.1 3.9-0.2 1.4-0.2 3-0.6 4.6-0.6 3.3-1.8 6.8-3.9 10.4q-0.9 1.2-1.7 2.5c-0.7 0.9-1.5 1.6-2.2 2.5-0.7 0.8-1.6 1.5-2.5 2.2-0.4 0.4-0.9 0.8-1.3 1.1q-0.8 0.5-1.5 1c-4 2.4-8.8 4.1-14 4.2-5.1 0.2-10.4-1.5-14.7-4.7-4.3-3.2-7.5-7.8-9.5-12.9-1.8-5-2.3-10.6-1.3-15.8 1-5.3 3-10.3 6.4-14.5 3-4 7.5-7.1 12-8.9 1.2-0.4 2.3-0.8 3.5-1q0.9-0.2 1.7-0.4 0.9-0.1 1.8-0.1 0.8-0.1 1.7-0.2 0.9 0 1.8 0c0.5 0.1 1.1 0.1 1.7 0.1q0.7 0.1 1.5 0.3 0.7 0.1 1.4 0.2c0.3 0 0.1 0 0.2 0 0.2 0.1 0.4 0.1 0.4 0.1l0.3 0.2 0.8 0.2c1 0.3 1.9 0.7 2.8 1.1 0.9 0.5 1.8 0.8 2.5 1.4 0.8 0.5 1.5 1 2.2 1.6 2.7 2.2 4.5 4.6 5.8 6.7 0.7 1 1.1 2 1.6 2.9 0.4 0.8 0.7 1.5 0.9 2.1 0.4 1.2 0.6 1.8 0.6 1.8zm-1.8 0.7q0 0 0 0 0 0 0 0zm-0.8-1.7c-0.2-0.5-0.5-1.2-1-1.9-0.5-0.7-0.9-1.5-1.7-2.4-1.3-1.7-3.2-3.6-5.7-5.4-2.5-1.6-5.6-3.1-9.2-3.8q-0.7-0.1-1.5-0.2c-0.4-0.1-0.9-0.1-1.4-0.1q-0.6-0.1-1.4-0.1-0.7 0-1.4 0.1-0.8 0-1.5 0.1-0.8 0.1-1.6 0.3c-1 0.1-2 0.4-3 0.7-4.1 1.4-8.1 3.8-11.3 7.4-3.1 3.5-5.5 8.1-6.6 13-1.1 4.9-1.2 10.3 0.6 15.2 1.8 4.8 5.1 9.2 9.2 12.2 4.1 3 9.2 4.6 14.1 4.4 4.8-0.2 9.4-1.8 13.1-4.2l1.4-0.9c0.4-0.3 0.8-0.7 1.2-1.1 0.9-0.7 1.7-1.3 2.4-2.1 0.6-0.8 1.4-1.5 1.9-2.3q0.9-1.3 1.7-2.5c1.9-3.3 3.1-6.7 3.6-9.8 0.3-1.5 0.4-3 0.5-4.4q0-2-0.1-3.7-0.2-1.6-0.4-2.9c-0.1-0.9-0.4-1.6-0.6-2.1q-0.4-1.6-0.5-1.8-0.1-0.2-0.8-1.7z"/><path class="c" d="m48.5 58.8c1.5-2 2.7-4 3.7-6.3-0.6 1-1.6 2.3-2.4 3.2-6.3 8.2-16.8 12.2-26.1 10.1-9.2-2.1-16.8-10.2-18.8-20.3-0.4-2.4-0.6-4.8-0.4-7.3-0.7 3.7-1 7.2-0.3 10.8 2 9.7 9.5 17.9 18.5 19.9 9 2.1 19.6-2.2 25.8-10.1z"/><path class="b" d="m43.3 49.2c-1.6 5.4-7.4 8.5-12.9 6.8-5.4-1.6-8.5-7.4-6.9-12.9 1.7-5.4 7.5-8.5 12.9-6.8 5.5 1.6 8.6 7.4 6.9 12.9z"/><path class="a" d="m34.8 42.6c-0.5 1.8-2.4 2.8-4.2 2.3-1.8-0.6-2.8-2.5-2.3-4.3 0.5-1.8 2.5-2.8 4.3-2.2 1.8 0.5 2.8 2.4 2.2 4.2z"/><path class="a" d="m68.9 29.4c3.5-7.8 10.7-13.5 18.7-14.9 8.1-1.3 16.8 1.8 22.8 8.1 6.9 7.3 9.7 18.7 6.9 28.4-2.8 9.7-11.1 17.2-20.5 18.6-9.4 1.4-19.6-3.3-25.3-11.7-5.6-8.2-6.6-19.6-2.6-28.5z"/><path fill-rule="evenodd" class="b" d="m68 29q0-0.1 0.8-1.8c0.3-0.5 0.6-1.2 1.2-2 0.5-0.8 1-1.8 1.8-2.7 1.5-2 3.6-4 6.4-6 2.8-1.9 6.5-3.4 10.8-3.8q0.7 0 1.4-0.1c0.6 0 1.2 0.1 1.7 0.1q0.9 0 1.7 0.1 0.9 0.1 1.7 0.3 0.8 0.1 1.7 0.3 0.8 0.2 1.6 0.5c1.2 0.3 2.2 0.7 3.3 1.2 4.3 2 8.5 5.3 11.3 9.4 3 4.3 4.8 9.4 5.4 14.7 0.6 5.3-0.3 10.8-2.5 15.6-2.3 4.9-6 9.1-10.5 11.8-4.5 2.7-9.8 3.9-14.8 3.5-5-0.5-9.6-2.4-13.4-5.1l-1.4-1c-0.4-0.4-0.8-0.8-1.2-1.2-0.8-0.8-1.7-1.5-2.3-2.4-0.7-0.8-1.4-1.6-2-2.5q-0.8-1.4-1.5-2.6c-1.9-3.7-2.9-7.3-3.3-10.6-0.3-1.6-0.2-3.2-0.3-4.6 0.1-1.4 0.2-2.7 0.3-3.9q0.4-1.8 0.7-3.1c0.2-0.9 0.5-1.7 0.7-2.3 0.5-1.2 0.7-1.8 0.7-1.8zm1.7 0.8q0 0.2-0.6 1.7c-0.2 0.5-0.5 1.2-0.7 2q-0.3 1.3-0.6 3-0.2 1.6-0.4 3.6c0.1 1.4 0 2.9 0.2 4.4 0.4 3.1 1.4 6.5 3 9.9q0.7 1.3 1.5 2.7c0.5 0.7 1.2 1.5 1.8 2.3 0.6 0.9 1.4 1.6 2.1 2.3 0.4 0.4 0.8 0.8 1.2 1.1l1.3 1c3.5 2.6 8 4.5 12.6 4.9 4.8 0.5 9.8-0.5 14.1-3.1 4.3-2.5 8-6.5 10.1-11.2 2.2-4.7 2.5-10 1.8-15-0.8-5-3-9.6-5.8-13.2-2.9-3.8-6.7-6.3-10.6-7.9-0.9-0.4-1.9-0.7-2.9-1q-0.7-0.1-1.4-0.3-0.8-0.1-1.5-0.3-0.7-0.1-1.4-0.2-0.7 0-1.4 0c-0.4 0-0.8 0-1.3 0q-0.7 0.1-1.5 0.2-0.7 0.1-1.4 0.1c-0.1 0.1-0.2 0.1-0.2 0.1l-0.3 0.1-0.6 0.1c-0.9 0.1-1.7 0.3-2.5 0.6-1.5 0.5-2.9 1.2-4.3 1.8-2.5 1.5-4.7 3.1-6.2 4.7-0.8 0.7-1.3 1.5-1.9 2.2-0.5 0.6-0.9 1.3-1.2 1.8q-0.9 1.4-1 1.6zm18.2-13q0 0 0 0 0 0 0 0 0 0 0 0zm0.1 0q0 0 0 0 0 0 0 0zm-0.1 0c0.2 0 0.1 0 0.1 0q-0.1 0-0.1 0z"/><path class="b" d="m103.3 42.2c1.2 5.5-2.3 11.1-7.9 12.3-5.5 1.3-11.1-2.3-12.3-7.8-1.3-5.6 2.3-11.1 7.8-12.4 5.6-1.2 11.1 2.3 12.4 7.9z"/><path class="a" d="m92.7 40.7c0.4 1.8-0.8 3.6-2.6 4-1.9 0.5-3.7-0.7-4.1-2.5-0.4-1.9 0.7-3.7 2.6-4.1 1.8-0.4 3.7 0.7 4.1 2.6z"/><path class="c" d="m72.5 57.4c-1.4-2-2.4-4.1-3.2-6.4q0.8 1.5 1.7 3c5.7 8.4 15.7 13 25 11.7 9.3-1.4 17.4-8.9 20.2-18.5 0.6-2.3 0.9-4.6 1-7 0.4 3.6 0.4 7.6-0.6 11-2.7 9.4-10.8 16.2-19.8 17.5-9.1 1.4-18.9-3.2-24.3-11.3z"/><path class="b" d="m121.2 19.1c-15.1-4.6-29-11.2-42.4-18.5-1.1-0.7-2.2 0.4-2 1.6 1.4 7.6 8.9 11 16 13.9 8.2 3.3 19.4 8.3 28.4 6 1.5-0.4 1.4-2.6 0-3z"/><path class="b" d="m1.2 23.4c8.5 2.1 18.6-2.3 26.4-5.2 7.6-2.9 16.6-6.5 18-14.8 0.3-1.2-0.9-2.2-2-1.6-13.4 7.3-27.2 14-42.4 18.5-1.4 0.5-1.5 2.7 0 3.1z"/><path class="b" d="m17.1 90.5c15 0.3 29.8-2.5 44.9-1.8 13.5 0.7 25.2 3.8 38.1 7 1 0.3 1.9-1 1-1.7-8.6-7.1-22.5-7.5-33.2-8.3-17.2-1.3-33.8 1.3-50.8 2.5-1.5 0.1-1.5 2.2 0 2.3z"/><path class="b" d="m42.3 95.8c10.1 0.3 20.4 0.4 30.5 0.1 0.7 0 0.8-0.9 0.2-1.2-9.7-3.6-21-1.6-30.9 0.2-0.5 0.1-0.3 0.9 0.2 0.9z"/><path class="b" d="m12.8 84.5c-1.7 0.7-1.6 4.8-1.7 6.4 0 2.2 1 5.6 3.6 5.8 0.5 0.1 0.8-0.5 0.7-1-0.1-1-0.9-2-1.3-3-0.4-1.1-0.7-2.2-0.8-3.5-0.1-1.4 0.7-3.7-0.4-4.7q0-0.1-0.1 0z"/><path class="b" d="m105.8 88.1c-0.2 2.2-0.1 4.3-0.2 6.5-0.1 2.8-1.3 5.2-2.7 7.6-0.4 0.6 0.3 1.1 0.8 0.8 6.2-2.6 3.6-9.7 3.3-14.9 0-0.8-1.2-0.8-1.2 0z"/></svg>