<svg version="1.2" xmlns="http://www.w3.org/2000/svg" viewBox="0 0 126 112" width="126" height="112"><style>.a{fill:#1d1d1b}.b{fill:#fff}.c{fill:#ededed}</style><path class="a" d="m29 4.1c-8.4 0.7-16.6 4.5-22.5 10.6-0.6 0.7-1.7 0-1.3-0.9 2.2-4.8 6.5-10.2 10.5-11.9 4.4-1.8 9.3-1.2 13.6 1 0.6 0.3 0.4 1.2-0.3 1.2z"/><path class="b" d="m47.7 31.2c-5.1-6.9-13.4-10.9-21.6-10.4-8.1 0.5-16 5.4-20.4 12.8-5.2 8.6-5.4 20.4-0.5 29.3 4.8 8.8 14.5 14.3 24 13.7 9.5-0.7 18.4-7.5 22.1-17 3.7-9.2 2.2-20.6-3.6-28.4z"/><path fill-rule="evenodd" class="a" d="m48.4 30.6c0 0 0.4 0.6 1.1 1.7 0.3 0.6 0.8 1.2 1.2 2q0.6 1.3 1.3 2.9c0.4 1.1 0.8 2.4 1.3 3.7 0.2 1.5 0.6 3 0.7 4.6 0.4 3.3 0.2 7.1-0.7 11.1q-0.5 1.4-0.9 2.9c-0.4 1.1-0.9 2-1.4 3-0.4 1-1.1 1.9-1.7 2.9-0.3 0.4-0.6 0.9-1 1.4l-1.1 1.3c-3.1 3.5-7.2 6.5-12.1 8.2-4.9 1.7-10.5 1.5-15.5-0.3-5.1-1.8-9.5-5.2-12.8-9.5-3.3-4.2-5.4-9.5-5.9-14.8-0.6-5.4-0.1-10.7 1.8-15.7 1.8-4.8 5.2-9 9-12 1-0.7 2-1.4 3-2q0.8-0.4 1.6-0.8 0.8-0.4 1.6-0.7 0.8-0.4 1.6-0.7 0.9-0.2 1.7-0.4c0.6-0.2 1.2-0.4 1.7-0.5q0.8-0.1 1.5-0.2 0.7-0.1 1.4-0.2c0.4 0 0.2 0 0.2 0 0.2 0 0.4 0 0.4 0h0.4 0.8c1 0 2 0.1 3 0.3 1 0.2 1.9 0.2 2.8 0.5 0.9 0.3 1.8 0.6 2.6 0.9 3.2 1.4 5.6 3.1 7.4 4.8 1 0.7 1.7 1.6 2.4 2.3 0.7 0.6 1.1 1.3 1.5 1.8 0.7 1 1.1 1.5 1.1 1.5zm-1.5 1.1q0 0 0 0 0 0.1 0 0.1zm-1.2-1.4c-0.4-0.4-0.9-1-1.6-1.5-0.7-0.6-1.3-1.3-2.3-1.8-1.7-1.3-4.1-2.6-7-3.5-2.9-0.8-6.3-1.4-9.9-1q-0.8 0.1-1.5 0.2c-0.5 0.1-0.9 0.2-1.4 0.3q-0.6 0.2-1.3 0.3-0.7 0.3-1.4 0.5-0.7 0.3-1.4 0.6-0.7 0.3-1.4 0.7c-1 0.4-1.8 1-2.7 1.6-3.5 2.5-6.6 5.9-8.6 10.4-2 4.2-3 9.3-2.6 14.3 0.4 5.1 1.8 10.2 5.1 14.4 3.1 4.1 7.5 7.3 12.3 9 4.8 1.7 10.1 1.7 14.7 0.1 4.6-1.6 8.5-4.5 11.3-7.9l1.1-1.2c0.3-0.5 0.6-0.9 0.9-1.4 0.6-0.9 1.2-1.8 1.6-2.7 0.4-1 0.9-1.9 1.2-2.8q0.5-1.5 0.9-2.9c0.8-3.7 1-7.3 0.6-10.4-0.1-1.6-0.6-3-0.8-4.3q-0.6-1.9-1.2-3.5-0.7-1.5-1.3-2.7c-0.3-0.8-0.8-1.4-1.1-1.9q-0.9-1.3-1-1.5-0.1-0.2-1.2-1.4z"/><path class="c" d="m50.7 59.1c0.9-2.3 1.4-4.6 1.7-7.1-0.3 1.2-0.9 2.7-1.3 3.8-3.7 9.6-12.6 16.6-22 17.3-9.5 0.7-19.1-5-23.9-14-1.2-2.1-2-4.5-2.6-6.9 0.4 3.7 1.2 7.2 2.9 10.4 4.7 8.8 14.3 14.4 23.5 13.7 9.2-0.6 18.1-7.8 21.7-17.2z"/><path class="a" d="m26.9 54c0 5.7-4.6 10.3-10.3 10.3-5.7 0-10.3-4.6-10.3-10.3 0-5.7 4.6-10.4 10.3-10.4 5.7 0 10.3 4.7 10.3 10.4z"/><path class="b" d="m16.9 50.2c0 1.9-1.5 3.4-3.4 3.4-1.9 0-3.4-1.5-3.4-3.4 0-1.9 1.5-3.4 3.4-3.4 1.9 0 3.4 1.5 3.4 3.4z"/><path class="a" d="m97.4 4.1c8.4 0.7 16.6 4.5 22.5 10.6 0.6 0.7 1.7 0 1.3-0.9-2.2-4.8-6.5-10.2-10.4-11.9-4.5-1.8-9.4-1.2-13.7 1-0.6 0.3-0.4 1.2 0.3 1.2z"/><path class="b" d="m78.7 31.2c5.2-6.9 13.4-10.9 21.6-10.4 8.2 0.5 16 5.4 20.4 12.8 5.2 8.6 5.4 20.4 0.6 29.3-4.9 8.8-14.5 14.3-24.1 13.7-9.5-0.7-18.4-7.5-22.1-17-3.6-9.2-2.2-20.6 3.6-28.4z"/><path fill-rule="evenodd" class="a" d="m78 30.6q0 0 1.2-1.5c0.4-0.5 0.8-1.1 1.5-1.8 0.7-0.6 1.4-1.5 2.4-2.2 1.8-1.6 4.4-3.1 7.5-4.4 3.2-1.2 7.1-1.9 11.4-1.4q0.7 0.2 1.4 0.3c0.6 0.1 1.1 0.2 1.7 0.4q0.8 0.2 1.6 0.4 0.8 0.4 1.6 0.7 0.8 0.3 1.5 0.7 0.8 0.4 1.6 0.8c1 0.5 1.9 1.2 2.9 2 3.8 2.8 7.1 6.9 9 11.6 2 4.8 2.6 10.2 2 15.5-0.5 5.2-2.6 10.4-5.8 14.7-3.3 4.3-7.8 7.5-12.8 9.2-5 1.7-10.4 1.7-15.2 0.2-4.8-1.6-8.9-4.5-12-7.9l-1.1-1.3c-0.3-0.5-0.6-1-1-1.4-0.6-1-1.3-1.8-1.7-2.9-0.5-1-1-1.8-1.4-2.9q-0.5-1.5-0.9-2.9c-1-4-1.2-7.7-0.9-11 0.1-1.6 0.5-3.1 0.7-4.5 0.4-1.4 0.8-2.7 1.2-3.8q0.7-1.6 1.3-2.9c0.4-0.8 0.9-1.5 1.2-2 0.7-1.1 1.1-1.7 1.1-1.7zm1.5 1.2q-0.1 0.2-1 1.5c-0.3 0.5-0.8 1.1-1.1 1.9q-0.6 1.2-1.3 2.7-0.5 1.6-1.1 3.5c-0.3 1.3-0.6 2.7-0.8 4.3-0.3 3.1-0.1 6.7 0.7 10.3q0.5 1.4 1 2.9c0.2 0.9 0.8 1.8 1.2 2.7 0.4 1 1 1.8 1.6 2.7 0.3 0.5 0.6 0.9 0.9 1.4l1.1 1.2c2.8 3.3 6.7 6.1 11.2 7.6 4.5 1.5 9.6 1.5 14.4 0 4.7-1.6 9.3-4.6 12.3-8.7 3.2-4.2 4.7-9.3 5-14.3 0.4-5-0.8-10.1-2.7-14.1-2.1-4.4-5.2-7.6-8.7-10-0.8-0.6-1.7-1.2-2.6-1.6q-0.7-0.4-1.3-0.7-0.7-0.3-1.4-0.5-0.7-0.3-1.3-0.6-0.7-0.1-1.4-0.3c-0.4-0.1-0.8-0.2-1.2-0.3q-0.8-0.1-1.5-0.1-0.7-0.1-1.5-0.2c-0.1 0-0.2 0-0.2 0h-0.3-0.6c-0.9 0-1.7 0-2.5 0.1-1.6 0.2-3.2 0.5-4.6 0.8-2.8 0.9-5.3 2-7.1 3.2-1 0.5-1.6 1.2-2.3 1.7-0.7 0.5-1.2 1.1-1.6 1.5q-1.2 1.3-1.3 1.4zm20.5-8.7q0.1 0 0.1 0-0.1 0-0.1 0 0 0 0 0zm0.1 0q0 0 0 0 0 0 0 0zm0 0c0.1 0 0 0 0 0q0 0 0 0z"/><path class="c" d="m76 59c-0.9-2.2-1.4-4.6-1.7-7 0.3 1.2 0.9 2.7 1.3 3.8 3.7 9.5 12.4 16.4 21.8 17 9.3 0.7 18.9-4.8 23.6-13.8 1.1-2.1 2-4.4 2.5-6.8-0.4 3.7-1.1 7.1-2.8 10.3-4.7 8.7-14.2 14.2-23.3 13.5-9.1-0.6-17.9-7.7-21.4-17z"/><path class="a" d="m117.6 45.1c0 5.7-4.6 10.4-10.3 10.4-5.7 0-10.3-4.7-10.3-10.4 0-5.7 4.6-10.3 10.3-10.3 5.7 0 10.3 4.6 10.3 10.3z"/><path class="b" d="m107.6 41.4c0 1.8-1.5 3.4-3.4 3.4-1.9 0-3.4-1.6-3.4-3.4 0-1.9 1.5-3.5 3.4-3.5 1.9 0 3.4 1.6 3.4 3.5z"/><path class="a" d="m91.1 90.3c-2.1-4.4-6.6-7.8-12.9-10-4.3-1.4-8.9-2.2-13.6-2.2-7.4 0-14.7 1.9-21 5.4-3.5 2-5.8 4-7.4 6.3-2.2 3.3-2.7 7.2-1.5 10.3 2.1 5.1 7.7 6.9 12 6.9 3 0 5.9-0.7 8.6-1.3 1.3-0.3 2.6-0.6 3.8-0.9 4.8-0.8 9.9-0.7 14.7 0.4q0.8 0.2 1.6 0.4c2.2 0.6 4.4 1.2 6.7 1.2 1.5 0 2.9-0.3 4.1-0.8 2.5-1 4.3-3 5.4-5.7 1.2-3.2 1-7-0.5-10z"/><path class="b" d="m88.6 89.9c-2.4-3.8-6.7-6.2-11-7.7q-0.3-0.1-0.6-0.2-0.3 5.5-0.1 11c0.1 1.6 0.4 3.6 1.9 4.1 1.1 0.5 2.4-0.2 3.4-0.9 2.5-1.7 4.7-3.8 6.4-6.3z"/><path class="b" d="m62.3 80.2c-6.2 0.3-12.3 2.1-17.8 5.1-1.9 1.1-3.8 2.4-5.4 4.1 0.7 1.3 1.1 2.8 1.7 4.2 1.2 2.4 4.1 4.6 6.3 3.1 1-0.7 1.5-2 1.8-3.2 0.9-3.4 1.2-7 1-10.5q1.5 4.9 4 9.4c0.4 0.8 1.1 1.7 2 1.9 1.4 0.2 2.3-1.2 2.9-2.5 1.7-3.7 2.8-7.6 3.5-11.6z"/><path class="b" d="m62.4 80.2c0.2 4.1 1.1 8.2 2.7 12 0.5 1.1 1.2 2.4 2.3 2.6 1.4 0.3 2.6-0.7 3.5-1.7 2.9-3.1 4.9-7 6-11.1-4.6-1.5-9.6-2.1-14.5-1.8z"/><path class="a" d="m54.8 111.7c2.6-1.9 6.7-2.3 9.9-2.3 2-0.1 4 0.2 5.9 0.8 1.3 0.3 2.3 1.2 3.5 1.1 0.4 0 0.6-0.3 0.6-0.7-0.8-3.2-7.4-3.3-10-3.3-3.9-0.1-7.9 0.8-10.3 4.1-0.1 0.2 0.2 0.5 0.4 0.3z"/></svg>