<svg version="1.2" xmlns="http://www.w3.org/2000/svg" viewBox="0 0 125 126" width="125" height="126"><style>.a{fill:#1d1d1b}.b{fill:#fff}.c{fill:#ededed}.d{fill:#db5b54}.e{fill:#db4a43}</style><path class="a" d="m45.6 15.3c-8.4-1.3-17.3 0.7-24.3 5.4-0.8 0.5-1.7-0.5-1.1-1.2 3.2-4.3 8.6-8.6 12.8-9.4 4.7-0.8 9.4 0.9 13.1 4 0.5 0.4 0.1 1.3-0.5 1.2z"/><path class="b" d="m55 44.7c-2.9-8-9.6-14.3-17.6-16.2-7.9-1.9-16.8 0.5-23.2 6.3-7.5 6.8-11.1 18-9 27.8 2 9.9 9.6 18 18.9 20.1 9.3 2.2 19.8-1.8 26.2-9.7 6.1-7.8 8-19.1 4.7-28.3z"/><path fill-rule="evenodd" class="a" d="m55.9 44.4c0 0 0.2 0.7 0.5 1.9 0.2 0.6 0.5 1.4 0.6 2.3q0.2 1.4 0.5 3.1c0 1.2 0 2.5 0 4-0.1 1.4-0.2 2.9-0.5 4.6-0.6 3.2-1.9 6.8-4 10.4q-0.8 1.2-1.7 2.4c-0.7 1-1.5 1.7-2.2 2.5-0.7 0.9-1.6 1.5-2.5 2.3-0.4 0.3-0.8 0.7-1.3 1.1q-0.7 0.4-1.5 0.9c-3.9 2.5-8.7 4.2-13.9 4.3-5.1 0.2-10.5-1.6-14.8-4.8-4.3-3.2-7.5-7.7-9.5-12.8-1.8-5-2.3-10.7-1.3-15.9 1-5.3 3-10.3 6.4-14.5 3.1-4 7.5-7.1 12-8.8 1.2-0.4 2.3-0.8 3.5-1q0.9-0.2 1.7-0.4 0.9-0.1 1.8-0.2 0.8-0.1 1.7-0.2 0.9 0.1 1.8 0.1c0.6 0 1.2 0 1.7 0.1q0.8 0.1 1.5 0.2 0.7 0.1 1.4 0.2c0.4 0.1 0.2 0.1 0.2 0.1 0.2 0 0.4 0.1 0.4 0.1l0.3 0.1 0.8 0.3c1 0.3 1.9 0.6 2.8 1.1 0.9 0.4 1.8 0.8 2.5 1.3 0.8 0.6 1.5 1.1 2.2 1.6 2.7 2.3 4.6 4.6 5.8 6.7 0.7 1 1.1 2.1 1.6 2.9 0.4 0.9 0.7 1.6 0.9 2.2 0.4 1.1 0.6 1.8 0.6 1.8zm-1.8 0.6q0 0 0 0 0 0 0 0zm-0.7-1.6c-0.3-0.6-0.6-1.3-1.1-2-0.5-0.6-0.9-1.5-1.7-2.3-1.3-1.8-3.2-3.7-5.7-5.4-2.5-1.6-5.6-3.2-9.2-3.8q-0.7-0.2-1.5-0.3c-0.4 0-0.9-0.1-1.3-0.1q-0.7 0-1.4-0.1-0.8 0.1-1.5 0.1-0.8 0.1-1.5 0.1-0.8 0.2-1.5 0.3c-1.1 0.1-2.1 0.4-3.1 0.8-4.1 1.3-8.1 3.7-11.3 7.4-3.1 3.4-5.5 8-6.6 12.9-1.1 5-1.2 10.3 0.7 15.3 1.7 4.8 5 9.2 9.1 12.1 4.1 3.1 9.2 4.7 14.1 4.4 4.8-0.1 9.4-1.8 13.1-4.2l1.4-0.9c0.4-0.3 0.8-0.7 1.3-1 0.8-0.7 1.6-1.3 2.3-2.2 0.6-0.8 1.4-1.5 2-2.3q0.8-1.2 1.6-2.5c1.9-3.3 3.1-6.7 3.6-9.8 0.4-1.5 0.4-3 0.5-4.3q0-2-0.1-3.7-0.2-1.7-0.4-3c-0.1-0.8-0.4-1.5-0.5-2.1q-0.5-1.5-0.5-1.7-0.1-0.2-0.8-1.7z"/><path class="c" d="m49.8 72.3c1.5-1.9 2.7-4 3.7-6.3-0.6 1-1.6 2.3-2.3 3.3-6.4 8.1-16.9 12.2-26.2 10.1-9.2-2.1-16.8-10.3-18.8-20.3-0.4-2.4-0.5-4.9-0.4-7.3-0.7 3.6-0.9 7.1-0.2 10.7 1.9 9.8 9.5 17.9 18.4 20 9 2 19.7-2.3 25.8-10.2z"/><path class="a" d="m49 49.3c-1.6 5.4-7.4 8.5-12.9 6.9-5.4-1.7-8.5-7.5-6.8-12.9 1.6-5.5 7.4-8.6 12.9-6.9 5.4 1.6 8.5 7.4 6.8 12.9z"/><path class="b" d="m40.6 42.8c-0.6 1.8-2.5 2.8-4.3 2.2-1.8-0.5-2.8-2.4-2.3-4.2 0.6-1.8 2.5-2.9 4.3-2.3 1.8 0.5 2.8 2.4 2.3 4.3z"/><path class="a" d="m78.6 2.5c8.1 2.6 15.2 8.2 19.5 15.5 0.5 0.8 1.7 0.3 1.5-0.6-1.1-5.3-4-11.5-7.5-14-3.9-2.8-8.8-3.3-13.5-2.1-0.6 0.1-0.6 1 0 1.2z"/><path class="b" d="m70.2 42.9c3.5-7.8 10.7-13.5 18.8-14.8 8-1.4 16.7 1.7 22.7 8 6.9 7.3 9.7 18.8 6.9 28.5-2.8 9.6-11 17.1-20.5 18.5-9.4 1.5-19.6-3.2-25.3-11.7-5.6-8.2-6.6-19.6-2.6-28.5z"/><path fill-rule="evenodd" class="a" d="m69.3 42.5q0.1-0.1 0.9-1.7c0.2-0.6 0.5-1.3 1.1-2.1 0.5-0.8 1-1.8 1.8-2.7 1.5-1.9 3.6-4 6.4-5.9 2.8-1.9 6.5-3.4 10.8-3.8q0.7-0.1 1.5-0.1c0.5 0 1.1 0 1.6 0q0.9 0.1 1.7 0.1 0.9 0.2 1.7 0.3 0.8 0.2 1.7 0.3 0.8 0.3 1.6 0.5c1.2 0.3 2.3 0.8 3.3 1.3 4.3 1.9 8.5 5.2 11.3 9.4 3 4.3 4.8 9.3 5.4 14.6 0.6 5.3-0.3 10.8-2.5 15.7-2.3 4.9-6 9-10.5 11.7-4.5 2.8-9.8 4-14.8 3.5-5-0.4-9.6-2.4-13.3-5.1l-1.4-1c-0.5-0.4-0.9-0.8-1.3-1.1-0.8-0.8-1.7-1.5-2.3-2.4-0.7-0.9-1.4-1.6-2-2.6q-0.8-1.3-1.5-2.6c-1.8-3.7-2.9-7.3-3.3-10.6-0.2-1.6-0.2-3.1-0.3-4.6 0.1-1.4 0.2-2.7 0.4-3.9q0.3-1.7 0.6-3.1c0.2-0.9 0.6-1.6 0.7-2.2 0.5-1.2 0.7-1.9 0.7-1.9zm1.7 0.8q0 0.2-0.6 1.7c-0.2 0.6-0.5 1.2-0.7 2.1q-0.3 1.3-0.6 2.9-0.2 1.7-0.4 3.7c0.1 1.3 0 2.8 0.2 4.3 0.4 3.2 1.4 6.6 3 10q0.7 1.3 1.5 2.6c0.5 0.8 1.2 1.6 1.8 2.4 0.6 0.8 1.4 1.5 2.2 2.2 0.3 0.4 0.7 0.8 1.1 1.2l1.3 0.9c3.5 2.6 8 4.5 12.6 5 4.8 0.4 9.8-0.6 14.1-3.2 4.3-2.5 8-6.5 10.1-11.1 2.3-4.8 2.5-10.1 1.8-15.1-0.7-4.9-3-9.6-5.7-13.1-3-3.9-6.8-6.3-10.7-7.9-0.9-0.4-1.9-0.8-2.9-1q-0.7-0.2-1.4-0.4-0.8-0.1-1.5-0.2-0.7-0.1-1.4-0.2-0.7 0-1.3 0c-0.5 0-0.9-0.1-1.4-0.1q-0.7 0.1-1.5 0.2-0.7 0.1-1.4 0.2c-0.1 0-0.2 0-0.2 0l-0.3 0.1-0.6 0.1c-0.9 0.2-1.7 0.4-2.4 0.7-1.6 0.5-3 1.2-4.3 1.8-2.6 1.4-4.7 3-6.3 4.6-0.8 0.8-1.3 1.6-1.8 2.2-0.6 0.6-1 1.3-1.3 1.8q-0.9 1.5-1 1.6zm18.2-12.9q0 0 0 0 0 0 0 0 0 0 0 0zm0.1 0q0 0 0 0 0 0 0 0zm-0.1 0c0.2 0 0.1 0 0.1 0q0 0-0.1 0z"/><path class="a" d="m109.2 43.8c1.2 5.6-2.3 11.1-7.9 12.3-5.5 1.3-11.1-2.2-12.3-7.8-1.3-5.6 2.3-11.1 7.8-12.4 5.6-1.2 11.1 2.3 12.4 7.9z"/><path class="b" d="m98.6 42.3c0.4 1.8-0.8 3.6-2.6 4.1-1.9 0.4-3.7-0.8-4.1-2.6-0.4-1.9 0.7-3.7 2.6-4.1 1.8-0.4 3.7 0.7 4.1 2.6z"/><path class="c" d="m73.8 71c-1.3-2-2.4-4.2-3.2-6.5q0.8 1.6 1.7 3c5.7 8.4 15.7 13.1 25 11.7 9.3-1.4 17.5-8.8 20.2-18.4 0.7-2.3 1-4.7 1-7.1 0.4 3.6 0.4 7.7-0.6 11.1-2.7 9.3-10.8 16.1-19.8 17.5-9.1 1.3-18.8-3.2-24.3-11.3z"/><path class="d" d="m12.9 104c-2.2 3-5.3 4.8-6.4 8.3-1.1 3.6-0.7 7.8 1.9 10.5 2.3 2.3 5.8 3 9.1 2.8 6.3-0.2 13.5-4.8 17.7-9.4-9.1-3.4-13.5-8.4-22.3-12.2z"/><path class="e" d="m12.4 119.1c-0.3 0-0.6-0.2-0.8-0.5-0.3-0.4-0.1-1 0.3-1.3 3.4-2 5.7-3.7 8.6-5.9q1.2-0.9 2.6-1.9c0.4-0.3 1-0.2 1.3 0.2 0.3 0.4 0.2 1-0.2 1.3q-1.4 1-2.6 1.9c-2.8 2.1-5.2 3.9-8.7 6q-0.3 0.2-0.5 0.2z"/><path class="a" d="m3.1 90.3c0 0 0.3 0.4 0.9 1.2 0.6 0.7 1.5 1.9 2.7 3.2 0.6 0.7 1.2 1.4 2 2.2q1.2 1.1 2.5 2.4 1.4 1.2 3.1 2.6 1.6 1.2 3.5 2.6c2.6 1.7 5.4 3.5 8.6 5 3.1 1.7 6.6 3 10.3 4.2 3.7 1.2 7.6 2.1 11.6 2.7 3.9 0.6 8.1 0.9 12.1 0.9 4.2-0.3 8.4-0.3 12.3-1.2 4.1-0.4 7.9-1.6 11.6-2.5 1.9-0.6 3.7-1.3 5.4-1.9q1.3-0.5 2.6-0.9c0.9-0.4 1.7-0.7 2.5-1.1q2.4-1.1 4.7-2.1c1.5-0.7 2.9-1.5 4.3-2.3 1.4-0.7 2.7-1.4 3.9-2.1q1.8-1.1 3.4-2.2 1.6-1 2.9-1.9c0.9-0.6 1.7-1.2 2.5-1.7 2.8-2.2 4.5-3.4 4.5-3.4l1.1 1.4c0 0-1.5 1.3-4.4 3.7-0.7 0.6-1.5 1.3-2.3 1.9q-1.4 1-3 2.1-1.5 1.2-3.3 2.4c-1.2 0.8-2.6 1.6-3.9 2.4-1.4 0.8-2.8 1.7-4.3 2.4q-2.4 1.2-4.8 2.3c-0.9 0.4-1.7 0.9-2.6 1.2q-1.3 0.6-2.6 1.1-2.7 1-5.6 2c-3.9 1-7.8 2.2-12.1 2.8-4.3 0.9-8.4 1-12.5 1.3l-3.4-0.1c-1.1 0-2.2-0.1-3.2-0.2-2.2-0.1-4.3-0.4-6.4-0.7-4.2-0.8-8.2-1.7-12.1-3-3.8-1.3-7.4-2.8-10.6-4.6-3.3-1.7-6.2-3.7-8.8-5.5-1.3-1-2.5-1.9-3.6-2.9q-1.6-1.5-3.1-2.8-1.3-1.5-2.5-2.7c-0.7-0.8-1.4-1.7-2-2.4-1.2-1.4-1.9-2.6-2.5-3.4-0.5-0.9-0.8-1.3-0.8-1.3z"/><path class="a" d="m7.8 87.6c-2.3-0.5-4.4 0-6 1.8-0.8 0.9-1.2 2-1.4 3.1-0.3 1.4-0.1 2.2 0.8 3.2 0.3 0.4 0.8 0.2 1-0.1 0.4-0.7 0.8-1.2 0.9-2 0-0.8 0.3-1.5 0.7-2.2 0.7-1.7 2-2.5 3.9-2.6 0.7 0 0.8-1 0.1-1.2z"/><path class="a" d="m117.1 93.6c0.6 1 2 1.6 2.9 2.5 0.6 0.6 0.9 1.5 1 2.4 0.2 0.9 0.2 2.1 0.8 2.9 0.2 0.3 0.5 0.5 0.9 0.3 2.9-0.8 1.7-5 0.4-6.7-1.1-1.3-3.2-3-5-3.2-0.9 0-1.4 1.1-1 1.8z"/></svg>