<svg version="1.2" xmlns="http://www.w3.org/2000/svg" viewBox="0 0 130 101" width="130" height="101"><style>.a{fill:#1d1d1b}</style><path class="a" d="m41.7 5.1c-10.3 0.2-20.5 4.4-28 11.5-0.8 0.7-2-0.2-1.5-1.2 3-5.8 8.5-12.1 13.4-13.8 5.5-2 11.4-0.9 16.5 2 0.6 0.4 0.4 1.4-0.4 1.5z"/><path class="a" d="m1.2 47.6c11.4-13.6 30.3-17.5 47-13.4 2.4 0.6 3.4-3.1 1-3.7-18.2-4.2-38.1-0.1-48.3 16.9-0.1 0.2 0.2 0.4 0.3 0.2z"/><path class="a" d="m24.8 54.6c6.6-1.8 12.6-4.4 17.9-8.8 3.1-2.6 10.1-10 6.8-14.2-0.3-0.4-0.9-0.3-1.3-0.1-2.1 0.9-2.1 2.7-3 4.6-1.3 2.7-3.3 4.8-5.4 6.8-4.4 4.1-10.1 7.2-15.6 9.4-1.4 0.6-0.9 2.7 0.6 2.3z"/><path class="a" d="m88.7 5.1c10.3 0.2 20.5 4.4 28 11.5 0.8 0.7 2-0.2 1.5-1.2-3-5.8-8.5-12.1-13.4-13.8-5.4-2-11.4-0.9-16.4 2-0.7 0.4-0.5 1.4 0.3 1.5z"/><path class="a" d="m129.5 47.4c-10.1-17-30.1-21.1-48.3-16.9-2.4 0.6-1.4 4.3 1 3.7 16.7-4.1 35.6-0.2 47 13.4 0.2 0.2 0.5 0 0.3-0.2z"/><path class="a" d="m106.2 52.3c-5.6-2.3-10.9-5.4-15.5-9.4-2.3-1.9-4-4.2-5.4-6.8-1.1-1.9-0.9-3.7-3.1-4.6-0.4-0.2-0.9-0.3-1.3 0.1-3.2 4 3.1 10.6 5.8 13.3 5.1 5.1 12.1 7.9 18.9 9.7 1.5 0.4 2-1.7 0.6-2.3z"/><path class="a" d="m28.8 21.9c4.3 0.5 8.4 3.2 11.9 5.4 1.9 1.1 3.6 2.2 5.2 3.6 1.3 1 1.8 2.3 3.5 2.7 0.5 0.1 0.9-0.2 0.9-0.7 0.3-3.5-5.7-6.5-8.3-7.8-4-2.3-8.7-2.5-13.1-3.4-0.2-0.1-0.2 0.2-0.1 0.2z"/><path class="a" d="m107.4 20.9c-6.2-0.8-12.5 0.5-18.2 3.3-2.3 1.1-10.6 5.5-8 9.2 0.3 0.4 1.1 0.7 1.5 0.1 2.7-3.3 4.7-5.6 8.7-7.7 4.7-2.4 10.8-3.3 16-3.8 0.7-0.1 0.7-1 0-1.1z"/><path class="a" d="m113.6 80.6c-0.3-1.7-3-1-2.7 0.8 0.2 0.9 0.1 1.8-0.1 2.6-0.5-0.6-1.2-1.4-2.2-2.4q-0.8-0.7-1.7-1.6-1-0.9-2.2-1.8c-1.6-1.3-3.4-2.6-5.5-3.9-2.1-1.3-4.4-2.7-7-3.9-1.3-0.6-2.6-1.2-4-1.8q-2-0.9-4.2-1.6c-2.9-1.1-6.1-1.8-9.3-2.5-1.6-0.3-3.2-0.6-4.9-0.8-1.6-0.1-3.4-0.3-5-0.3h-2.4c-1-0.1-1.7 0.1-2.6 0.1-1.6 0.1-3.3 0.4-4.9 0.7-3.2 0.6-6.4 1.4-9.3 2.4-3 1-5.7 2.2-8.2 3.5-2.6 1.3-4.9 2.6-6.9 4-4.2 2.7-7.3 5.5-9.4 7.5-0.9 1-1.6 1.8-2.1 2.4-0.2-0.8-0.2-1.7-0.1-2.6 0.3-1.8-2.3-2.5-2.6-0.8-0.4 2.3-0.2 4.5 1 6.5 1.2 1.9 3.8 3 5.9 3.6 0.6 0.2 0.9-0.6 0.4-1-1.3-0.9-2.6-2-3.5-3.3q0.2-0.3 0.6-0.7c0.5-0.7 1.1-1.3 2.1-2.3 1-0.9 2.3-2 3.8-3.2 1.5-1.2 3.3-2.4 5.4-3.7 2-1.3 4.2-2.5 6.7-3.7 2.4-1.1 5.1-2.3 7.9-3.2 2.8-1 5.8-1.7 8.8-2.3 1.6-0.2 3.1-0.5 4.7-0.5 0.7-0.1 1.6-0.2 2.3-0.2h2.4c1.6 0 3.1 0.2 4.7 0.3 1.6 0.2 3.1 0.4 4.7 0.7 3 0.6 6 1.3 8.8 2.3q2.1 0.7 4.1 1.5c1.4 0.5 2.6 1.1 3.9 1.7 2.4 1.1 4.7 2.4 6.8 3.6 2 1.2 3.8 2.4 5.3 3.6q1.2 0.8 2.2 1.6 0.9 0.8 1.7 1.5c0.9 1 1.7 1.7 2.1 2.3 0.3 0.3 0.5 0.5 0.6 0.7-0.9 1.3-2.2 2.4-3.5 3.3-0.4 0.4-0.2 1.2 0.4 1 2.1-0.7 4.3-1.6 5.7-3.3 1.5-1.9 1.7-4.5 1.3-6.8z"/><path class="a" d="m13 94c-1.3-1.2-2.1-2.9-2.9-4.4-1.5-2.7-1.4-6.5-3.2-8.9-0.1 0-0.2-0.1-0.2 0-1.4 2.9 0.3 7.8 1.3 10.6 1.2 3.3 4.7 7.2 8.4 7.3 0.8 0 1.2-1 0.6-1.5-1.2-1.1-2.7-1.9-4-3.1z"/><path class="a" d="m124.1 82.8c-0.1-0.4-0.8-0.6-0.9-0.1-1.2 8.5-7.8 12.5-14.5 16.5-0.5 0.3-0.3 1.3 0.3 1.2 9.2-1.1 15.9-8.2 15.1-17.6z"/><path class="a" d="m44.7 78.8c-0.3 0.2-0.1 0.5 0.1 0.4 11.8-4.2 22.2-4.4 34.3-1.5 0.5 0.1 0.8-0.5 0.4-0.8-10.2-6.1-25.1-3.7-34.8 1.9z"/></svg>