<svg version="1.2" xmlns="http://www.w3.org/2000/svg" viewBox="0 0 114 113" width="114" height="113"><style>.a{fill:#1d1d1b}.b{fill:#fff}.c{fill:#ededed}.d{fill:#db5b54}</style><path class="a" d="m28.9 3.4c-8.5 0.6-16.7 4.5-22.6 10.6-0.6 0.6-1.7-0.1-1.3-0.9 2.3-4.9 6.6-10.3 10.5-11.9 4.4-1.9 9.4-1.2 13.6 0.9 0.6 0.3 0.4 1.2-0.2 1.3z"/><path class="b" d="m47.5 30.4c-5.1-6.8-13.4-10.8-21.5-10.4-8.2 0.5-16 5.4-20.5 12.8-5.1 8.7-5.3 20.4-0.5 29.3 4.8 8.9 14.5 14.4 24 13.7 9.5-0.7 18.4-7.5 22.2-16.9 3.6-9.3 2.1-20.6-3.7-28.5z"/><path fill-rule="evenodd" class="a" d="m48.3 29.9c0 0 0.3 0.6 1 1.7 0.3 0.5 0.8 1.1 1.2 2q0.6 1.2 1.4 2.8c0.4 1.2 0.7 2.4 1.2 3.8 0.2 1.4 0.6 2.9 0.8 4.6 0.3 3.2 0.1 7-0.8 11q-0.5 1.5-0.9 2.9c-0.4 1.1-0.9 2-1.4 3-0.4 1.1-1.1 2-1.7 2.9-0.3 0.5-0.6 1-1 1.4l-1.1 1.4c-3.1 3.5-7.2 6.5-12.1 8.1-4.8 1.7-10.5 1.6-15.5-0.3-5-1.8-9.4-5.2-12.8-9.5-3.2-4.2-5.3-9.5-5.9-14.8-0.6-5.3-0.1-10.7 1.9-15.7 1.8-4.7 5.1-9 9-11.9 0.9-0.8 1.9-1.5 3-2q0.8-0.5 1.5-0.9 0.8-0.3 1.6-0.7 0.8-0.3 1.6-0.6 0.9-0.3 1.8-0.5c0.5-0.2 1.1-0.3 1.6-0.4q0.8-0.1 1.5-0.2 0.8-0.1 1.5-0.3c0.3 0 0.1 0 0.2 0 0.1 0 0.3 0 0.3 0l0.4 0.1h0.8c1 0 2.1 0 3 0.2 1 0.2 2 0.3 2.8 0.6 0.9 0.3 1.8 0.5 2.6 0.9 3.2 1.3 5.7 3.1 7.5 4.7 0.9 0.7 1.6 1.6 2.3 2.3 0.7 0.7 1.1 1.3 1.5 1.8 0.7 1 1.1 1.5 1.1 1.5zm-1.5 1.2q0 0 0 0 0.1 0 0.1 0zm-1.3-1.3c-0.4-0.5-0.9-1.1-1.6-1.6-0.6-0.5-1.3-1.2-2.2-1.8-1.8-1.3-4.2-2.5-7.1-3.5-2.9-0.8-6.3-1.4-9.9-0.9q-0.7 0-1.5 0.1c-0.5 0.1-0.9 0.2-1.3 0.3q-0.7 0.2-1.4 0.4-0.7 0.2-1.4 0.5-0.7 0.2-1.4 0.5-0.7 0.4-1.4 0.7c-0.9 0.5-1.8 1.1-2.7 1.7-3.5 2.5-6.6 5.9-8.6 10.3-2 4.2-2.9 9.3-2.6 14.4 0.4 5 1.9 10.2 5.1 14.3 3.1 4.1 7.5 7.4 12.3 9 4.8 1.7 10.1 1.8 14.7 0.1 4.6-1.5 8.5-4.5 11.4-7.8l1-1.3c0.4-0.4 0.6-0.9 0.9-1.3 0.6-1 1.2-1.8 1.6-2.8 0.4-0.9 1-1.9 1.3-2.8q0.4-1.4 0.8-2.9c0.8-3.7 1-7.3 0.6-10.4-0.1-1.5-0.5-2.9-0.8-4.3q-0.6-1.9-1.1-3.5-0.8-1.5-1.3-2.7c-0.4-0.8-0.9-1.3-1.2-1.9q-0.8-1.3-0.9-1.5-0.2-0.1-1.3-1.3z"/><path class="c" d="m50.6 58.4c0.8-2.3 1.4-4.7 1.7-7.1-0.3 1.1-0.9 2.6-1.4 3.7-3.7 9.7-12.5 16.6-22 17.3-9.5 0.7-19.1-4.9-23.9-13.9-1.2-2.2-2-4.5-2.5-6.9 0.4 3.7 1.1 7.2 2.8 10.4 4.7 8.7 14.3 14.3 23.5 13.7 9.2-0.7 18.1-7.9 21.8-17.2z"/><path class="a" d="m35.3 47.2c0 5.7-4.6 10.3-10.3 10.3-5.7 0-10.4-4.6-10.4-10.3 0-5.7 4.7-10.3 10.4-10.3 5.7 0 10.3 4.6 10.3 10.3z"/><path class="b" d="m25.3 43.4c0 1.9-1.6 3.4-3.4 3.4-1.9 0-3.5-1.5-3.5-3.4 0-1.9 1.6-3.4 3.5-3.4 1.8 0 3.4 1.5 3.4 3.4z"/><path class="a" d="m85.6 3.4c8.4 0.6 16.6 4.5 22.5 10.6 0.6 0.6 1.7-0.1 1.3-0.9-2.2-4.9-6.5-10.3-10.5-11.9-4.4-1.9-9.3-1.2-13.6 0.9-0.6 0.3-0.4 1.2 0.3 1.3z"/><path class="b" d="m66.9 30.4c5.1-6.8 13.4-10.8 21.6-10.4 8.1 0.5 16 5.4 20.4 12.8 5.1 8.7 5.4 20.4 0.5 29.3-4.8 8.9-14.5 14.4-24 13.7-9.5-0.7-18.4-7.5-22.1-16.9-3.7-9.3-2.2-20.6 3.6-28.5z"/><path fill-rule="evenodd" class="a" d="m66.1 29.9q0.1-0.1 1.2-1.6c0.4-0.5 0.9-1.1 1.6-1.7 0.7-0.7 1.4-1.6 2.4-2.2 1.8-1.6 4.3-3.2 7.5-4.5 3.2-1.2 7.1-1.9 11.3-1.3q0.8 0.1 1.5 0.2c0.5 0.1 1.1 0.3 1.6 0.4q0.9 0.3 1.7 0.5 0.8 0.3 1.5 0.6 0.8 0.4 1.6 0.7 0.8 0.4 1.5 0.9c1.1 0.5 2 1.2 3 1.9 3.7 2.8 7.1 6.9 9 11.6 1.9 4.9 2.6 10.2 2 15.5-0.6 5.3-2.6 10.5-5.8 14.7-3.3 4.3-7.8 7.5-12.8 9.2-5 1.7-10.5 1.7-15.2 0.2-4.8-1.5-8.9-4.4-12-7.9l-1.1-1.3c-0.4-0.4-0.7-0.9-1-1.4-0.6-0.9-1.3-1.8-1.7-2.8-0.5-1-1-1.9-1.4-3q-0.5-1.4-1-2.8c-0.9-4-1.2-7.8-0.8-11 0.1-1.7 0.5-3.2 0.7-4.6 0.4-1.4 0.8-2.6 1.2-3.8q0.7-1.6 1.3-2.9c0.4-0.8 0.9-1.4 1.2-2 0.7-1 1-1.6 1-1.6zm1.6 1.1q-0.2 0.2-1 1.5c-0.3 0.5-0.8 1.1-1.2 1.9q-0.5 1.2-1.2 2.7-0.5 1.6-1.2 3.5c-0.2 1.4-0.6 2.8-0.7 4.3-0.3 3.1-0.1 6.7 0.7 10.4q0.5 1.4 0.9 2.9c0.3 0.8 0.9 1.8 1.3 2.7 0.4 0.9 1 1.8 1.6 2.7 0.3 0.4 0.6 0.9 0.9 1.3l1 1.2c2.9 3.3 6.8 6.1 11.3 7.6 4.5 1.5 9.6 1.6 14.4 0 4.7-1.5 9.2-4.6 12.3-8.7 3.2-4.1 4.6-9.3 5-14.3 0.3-5-0.8-10-2.7-14.1-2.1-4.4-5.2-7.6-8.7-10-0.8-0.6-1.7-1.2-2.6-1.6q-0.7-0.3-1.4-0.7-0.6-0.2-1.3-0.5-0.7-0.3-1.4-0.5-0.6-0.2-1.3-0.3c-0.4-0.1-0.8-0.2-1.3-0.3q-0.7-0.1-1.5-0.2-0.7-0.1-1.4-0.1c-0.1 0-0.2 0-0.2 0h-0.3-0.7c-0.8-0.1-1.6-0.1-2.4 0.1-1.7 0.1-3.2 0.5-4.6 0.8-2.9 0.8-5.3 1.9-7.1 3.2-1 0.5-1.6 1.2-2.3 1.7-0.7 0.5-1.2 1-1.7 1.5q-1.1 1.2-1.2 1.3zm20.5-8.6q0 0 0 0 0 0 0 0 0 0 0 0zm0.1 0q0 0 0 0 0 0 0 0zm-0.1 0c0.2 0 0.1 0 0.1 0q0 0-0.1 0z"/><path class="a" d="m95.8 46.2c0 5.8-4.6 10.4-10.4 10.4-5.7 0-10.3-4.6-10.3-10.4 0-5.7 4.6-10.3 10.3-10.3 5.8 0 10.4 4.6 10.4 10.3z"/><path class="b" d="m85.8 42.5c0 1.9-1.6 3.4-3.5 3.4-1.8 0-3.4-1.5-3.4-3.4 0-1.9 1.6-3.4 3.4-3.4 1.9 0 3.5 1.5 3.5 3.4z"/><path class="c" d="m64.3 58.6c-0.9-2.2-1.4-4.6-1.7-7q0.4 1.7 1 3.4c3.7 9.3 12.5 16.1 21.9 16.8 9.4 0.6 18.9-4.8 23.7-13.6 1.1-2.1 1.9-4.4 2.5-6.7-0.4 3.6-1.3 7.6-3 10.7-4.6 8.5-14 13.4-23.1 12.7-9.2-0.6-17.7-7.2-21.3-16.3z"/><path class="a" d="m46.7 79.1c-3.8 2.9-6.2 7.1-8.3 11.4-1.8 3.6-3.5 7.4-3.5 11.4 0 4.1 2.1 8.4 5.8 9.8 7 2.7 14.2-5.3 21.5-3.9 3.4 0.6 6.4 3.3 9.9 3.1 2.8-0.2 5.3-2.4 6.4-5 1.2-2.6 1.2-5.5 0.8-8.3-1-7.5-5-14.7-11.3-18.7-6.4-4-15.2-4.2-21.3 0.2z"/><path class="d" d="m46.5 91.8c-0.1-1.1 0-2.3 0.8-3 0.9-0.7 2.2-0.5 3.3 0 1 0.5 1.9 1.3 3 1.6 1.6 0.5 3.4-0.1 4.9-0.9 1.5-0.9 2.9-1.9 4.5-2.6 1.6-0.6 3.6-0.6 4.9 0.5 1.7 1.6 1.4 4.4 0.4 6.5-2.1 4.4-7 7.5-11.9 7.1-4.9-0.4-9.3-4.4-9.9-9.2z"/></svg>