<svg version="1.2" xmlns="http://www.w3.org/2000/svg" viewBox="0 0 131 99" width="131" height="99"><style>.a{fill:#1d1d1b}.b{fill:#fff}.c{fill:#ededed}.d{fill:#db5b54}</style><path class="a" d="m29.8 5.3c-8.5 0.6-16.7 4.5-22.6 10.6-0.6 0.7-1.7-0.1-1.3-0.9 2.3-4.9 6.5-10.3 10.5-11.9 4.4-1.9 9.4-1.2 13.6 1 0.6 0.3 0.4 1.2-0.2 1.2z"/><path class="b" d="m49.2 27.3c-5.3-6.9-13.9-10.9-22.4-10.4-8.5 0.4-16.7 5.3-21.3 12.8-5.4 8.6-5.6 20.4-0.6 29.2 5.1 8.9 15.1 14.4 25 13.7 9.9-0.6 19.2-7.5 23.1-16.9 3.8-9.3 2.3-20.6-3.8-28.4z"/><path fill-rule="evenodd" class="a" d="m50 26.7c0 0 0.4 0.6 1.1 1.7 0.3 0.5 0.8 1.1 1.2 2q0.7 1.3 1.5 2.9 0.6 1.7 1.2 3.8c0.3 1.5 0.7 3 0.8 4.7q0.1 1.3 0.2 2.6c0 0.9-0.1 1.8-0.1 2.8q0 0.7-0.1 1.4-0.1 0.7-0.3 1.5c-0.2 1-0.3 2.1-0.6 3-1 4-3.4 8.1-6.6 11.5-3.3 3.5-7.6 6.4-12.7 7.9l-1.9 0.6-1.9 0.2c-0.7 0.1-1.2 0.2-2 0.3l-2-0.1c-0.7 0-1.3 0.1-2-0.1l-2-0.3c-1.4-0.2-2.6-0.6-3.9-1.1-5.2-1.8-9.8-5.1-13.3-9.4-3.4-4.3-5.6-9.6-6.2-15.1-0.5-5.4 0.1-10.9 2.3-15.9 2-4.9 5.6-9 9.6-11.9 1-0.8 2.1-1.4 3.1-1.9 1.1-0.6 2.2-1 3.3-1.5 1.1-0.5 2.3-0.7 3.4-1 1.2-0.4 2.2-0.5 3.2-0.6l0.7-0.1 0.4-0.1h0.3 0.1 0.2q0.8 0 1.6 0.1 0.7 0 1.5 0 0.8 0.1 1.5 0.2c2 0.2 3.8 0.9 5.5 1.5 1.6 0.7 3.1 1.4 4.3 2.2 1.3 0.8 2.4 1.7 3.4 2.5 0.9 0.7 1.7 1.6 2.4 2.3 0.7 0.7 1.2 1.3 1.6 1.8 0.7 1 1.1 1.5 1.1 1.5zm-1.5 1.2q0 0 0 0 0 0.1 0 0.1zm-1.2-1.4c-0.5-0.4-1-1-1.7-1.5-0.7-0.6-1.3-1.3-2.3-1.8-1-0.6-2-1.3-3.3-1.9-1.1-0.6-2.5-1.1-4-1.6-3-0.8-6.4-1.4-10.1-1-1 0.1-2.1 0.1-3 0.4-0.9 0.2-1.8 0.4-2.8 0.8-1 0.3-2 0.6-2.9 1.2-1 0.4-1.9 0.9-2.8 1.6-3.7 2.3-7 5.7-9.2 10.1-2.1 4.3-3.2 9.4-2.9 14.6 0.4 5.1 1.9 10.4 5.3 14.5 3.2 4.2 7.8 7.3 12.7 9 5 1.7 10.3 1.8 15.1 0.3 4.7-1.5 8.8-4.3 11.9-7.6 3-3.4 5.1-7.2 6.1-11 0.3-1 0.4-1.9 0.6-2.9q0.1-0.6 0.2-1.3 0-0.7 0.1-1.4c0-0.9 0.1-1.7 0-2.6q-0.1-1.2-0.2-2.4c-0.1-1.6-0.5-3.1-0.8-4.4q-0.6-2-1.2-3.6-0.7-1.5-1.3-2.7c-0.4-0.8-0.9-1.4-1.2-1.9q-0.9-1.3-1-1.5-0.2-0.2-1.3-1.4z"/><path class="a" d="m44.1 32c-4-5.1-10.5-8.1-16.8-7.8-6.4 0.4-12.6 4-16 9.6-4 6.5-4.2 15.3-0.4 22 3.8 6.6 11.3 10.8 18.7 10.3 7.5-0.5 14.5-5.7 17.4-12.8 2.8-6.9 1.7-15.4-2.9-21.3z"/><path class="c" d="m52.5 54.9c0.9-2.3 1.4-4.6 1.7-7.1-0.3 1.2-0.9 2.7-1.3 3.8-3.9 9.6-13.2 16.6-23 17.3-9.9 0.6-19.9-5-24.9-14-1.2-2.1-2.1-4.5-2.7-6.9 0.5 3.7 1.3 7.2 3.1 10.4 4.8 8.8 14.9 14.4 24.4 13.7 9.6-0.6 18.9-7.8 22.7-17.2z"/><path class="a" d="m100.1 3.2c8.5 0.6 16.7 4.5 22.5 10.6 0.7 0.7 1.7-0.1 1.4-0.9-2.3-4.9-6.6-10.2-10.5-11.9-4.4-1.9-9.4-1.2-13.6 1-0.6 0.3-0.5 1.2 0.2 1.2z"/><path class="b" d="m31.3 36.4c0 4.4-3.8 8.1-8.4 8.1-4.7 0-8.5-3.7-8.5-8.1 0-4.5 3.8-8.1 8.5-8.1 4.6 0 8.4 3.6 8.4 8.1z"/><path class="b" d="m43.4 50.4c0 3.4-2.9 6.2-6.5 6.2-3.6 0-6.5-2.8-6.5-6.2 0-3.4 2.9-6.2 6.5-6.2 3.6 0 6.5 2.8 6.5 6.2z"/><path class="b" d="m24.8 53.5c0 2.7-2.3 5-5.2 5-2.8 0-5.2-2.3-5.2-5 0-2.8 2.4-5 5.2-5 2.9 0 5.2 2.2 5.2 5z"/><path class="b" d="m123.3 27.3c-5.4-6.9-14-10.9-22.5-10.4-8.5 0.4-16.7 5.3-21.3 12.8-5.3 8.6-5.6 20.4-0.5 29.2 5 8.9 15.1 14.4 25 13.7 9.9-0.6 19.2-7.5 23.1-16.9 3.8-9.3 2.2-20.6-3.8-28.4z"/><path fill-rule="evenodd" class="a" d="m124 26.7c0 0 0.4 0.6 1.1 1.7 0.3 0.5 0.9 1.1 1.3 2q0.6 1.3 1.4 2.9 0.6 1.7 1.3 3.8c0.2 1.5 0.7 3 0.8 4.7q0.1 1.3 0.2 2.6c0 0.9-0.1 1.8-0.2 2.8q0 0.7 0 1.4-0.2 0.7-0.3 1.5c-0.2 1-0.3 2.1-0.7 3-1 4-3.3 8.1-6.6 11.5-3.3 3.5-7.5 6.4-12.6 7.9l-1.9 0.6-1.9 0.2c-0.7 0.1-1.2 0.2-2 0.3l-2-0.1c-0.7 0-1.4 0.1-2.1-0.1l-2-0.3c-1.3-0.2-2.6-0.6-3.9-1.1-5.2-1.8-9.7-5.1-13.2-9.4-3.4-4.3-5.6-9.6-6.2-15.1-0.6-5.4 0.1-10.9 2.2-15.9 2.1-4.9 5.6-9 9.6-11.9 1-0.8 2.1-1.4 3.2-1.9 1-0.6 2.2-1 3.2-1.5 1.1-0.5 2.3-0.7 3.5-1 1.2-0.4 2.1-0.5 3.1-0.6l0.8-0.1 0.4-0.1h0.2 0.1 0.2q0.8 0 1.6 0.1 0.8 0 1.6 0 0.7 0.1 1.5 0.2c2 0.2 3.8 0.9 5.4 1.5 1.6 0.7 3.1 1.4 4.4 2.2 1.3 0.8 2.4 1.7 3.3 2.5 1 0.7 1.7 1.6 2.4 2.3 0.8 0.7 1.2 1.3 1.6 1.8 0.8 1 1.2 1.5 1.2 1.5zm-1.5 1.2q0 0 0 0 0 0.1 0 0.1zm-1.3-1.4c-0.4-0.4-1-1-1.6-1.5-0.7-0.6-1.4-1.3-2.4-1.8-0.9-0.6-2-1.3-3.2-1.9-1.2-0.6-2.6-1.1-4-1.6-3-0.8-6.5-1.4-10.2-1-1 0.1-2.1 0.1-2.9 0.4-0.9 0.2-1.9 0.4-2.9 0.8-0.9 0.3-1.9 0.6-2.9 1.2-0.9 0.4-1.9 0.9-2.8 1.6-3.6 2.3-7 5.7-9.1 10.1-2.2 4.3-3.3 9.4-2.9 14.6 0.3 5.1 1.9 10.4 5.3 14.5 3.2 4.2 7.8 7.3 12.7 9 4.9 1.7 10.3 1.8 15 0.3 4.7-1.5 8.9-4.3 11.9-7.6 3-3.4 5.2-7.2 6.1-11 0.4-1 0.4-1.9 0.6-2.9q0.1-0.6 0.3-1.3 0-0.7 0-1.4c0-0.9 0.1-1.7 0.1-2.6q-0.1-1.2-0.2-2.4c-0.1-1.6-0.6-3.1-0.8-4.4q-0.7-2-1.2-3.6-0.8-1.5-1.4-2.7c-0.4-0.8-0.9-1.4-1.2-1.9q-0.9-1.3-1-1.5-0.2-0.2-1.3-1.4z"/><path class="a" d="m118.2 32c-4-5.1-10.5-8.1-16.9-7.8-6.4 0.4-12.5 4-16 9.6-4 6.5-4.2 15.3-0.4 22 3.8 6.6 11.4 10.8 18.8 10.3 7.4-0.5 14.4-5.7 17.3-12.8 2.9-6.9 1.7-15.4-2.8-21.3z"/><path class="c" d="m126.5 54.9c0.9-2.3 1.5-4.6 1.8-7.1-0.3 1.2-0.9 2.7-1.4 3.8-3.9 9.6-13.1 16.6-23 17.3-9.8 0.6-19.8-5-24.9-14-1.2-2.1-2-4.5-2.6-6.9 0.4 3.7 1.2 7.2 3 10.4 4.9 8.8 14.9 14.4 24.5 13.7 9.6-0.6 18.8-7.8 22.6-17.2z"/><path class="b" d="m105.3 36.4c0 4.4-3.7 8.1-8.4 8.1-4.6 0-8.4-3.7-8.4-8.1 0-4.5 3.8-8.1 8.4-8.1 4.7 0 8.4 3.6 8.4 8.1z"/><path class="b" d="m117.4 50.4c0 3.4-2.9 6.2-6.5 6.2-3.5 0-6.4-2.8-6.4-6.2 0-3.4 2.9-6.2 6.4-6.2 3.6 0 6.5 2.8 6.5 6.2z"/><path class="b" d="m98.9 53.5c0 2.7-2.4 5-5.2 5-2.9 0-5.2-2.3-5.2-5 0-2.8 2.3-5 5.2-5 2.8 0 5.2 2.2 5.2 5z"/><path class="a" d="m93.2 81.9c-0.5-3.2-2.9-6.1-6.4-7.8-2.8-1.4-6-1.7-8.5-2.1-4.8-0.5-10-1.1-15.2-1.1-6.8 0-12.5 0.9-17.6 2.9-4.3 1.6-7 4-8 7.1-1 2.8-0.3 6.1 1.7 8.8 1.9 2.5 4.5 4 6.3 4.9 5.6 2.9 12.1 4.5 19 4.5 5.9 0 12-1.2 17.7-3.3 2.5-0.9 5.4-2.2 7.7-4.5 2.6-2.6 3.9-6.1 3.3-9.4z"/><path class="d" d="m64.2 83c-4.2 0-8.5 0.3-12.4 1.6-3.3 1.1-6.3 2.9-8.6 5.4 1 0.9 2.2 1.6 3.5 2.3 10.5 5.4 23.5 5.2 34.6 1 1.8-0.7 3.6-1.5 5.2-2.6-5.4-6-14.2-7.7-22.3-7.7z"/></svg>