<svg version="1.2" xmlns="http://www.w3.org/2000/svg" viewBox="0 0 117 146" width="117" height="146"><style>.a{fill:#1d1d1b}.b{fill:#fff}.c{fill:#ededed}.d{fill:#db5b54}</style><path class="a" d="m29.9 19.7c-8.5 0.6-16.7 4.5-22.6 10.6-0.6 0.6-1.7-0.1-1.3-0.9 2.3-4.9 6.6-10.3 10.5-11.9 4.4-1.9 9.4-1.2 13.6 0.9 0.6 0.3 0.4 1.2-0.2 1.3z"/><path class="a" d="m71.2 2.8c8.4 1.2 16.4 5.6 21.8 12.1 0.6 0.7 1.7 0 1.4-0.9-1.9-5-5.8-10.6-9.7-12.6-4.2-2.1-9.2-1.8-13.6 0.1-0.6 0.3-0.5 1.2 0.1 1.3z"/><path class="b" d="m48.5 43c-5.1-6.9-13.4-10.9-21.5-10.4-8.2 0.5-16 5.4-20.5 12.8-5.1 8.6-5.3 20.4-0.5 29.2 4.8 8.9 14.5 14.4 24 13.7 9.5-0.6 18.4-7.4 22.2-16.9 3.6-9.2 2.1-20.6-3.7-28.4z"/><path fill-rule="evenodd" class="a" d="m49.3 42.4c0 0 0.3 0.6 1 1.7 0.3 0.5 0.8 1.2 1.2 2q0.6 1.3 1.4 2.9c0.4 1.1 0.7 2.4 1.2 3.7 0.2 1.4 0.6 2.9 0.8 4.6 0.3 3.3 0.1 7-0.8 11.1q-0.5 1.4-0.9 2.9c-0.4 1.1-0.9 1.9-1.4 3-0.4 1-1.1 1.9-1.7 2.9-0.3 0.4-0.6 0.9-1 1.4l-1.1 1.3c-3.1 3.5-7.2 6.5-12.1 8.2-4.8 1.6-10.5 1.5-15.5-0.3-5-1.8-9.4-5.2-12.8-9.5-3.2-4.3-5.3-9.5-5.9-14.8-0.6-5.4-0.1-10.7 1.9-15.7 1.8-4.8 5.1-9.1 9-12 0.9-0.7 1.9-1.4 3-2q0.8-0.4 1.5-0.9 0.8-0.3 1.6-0.6 0.8-0.4 1.6-0.7 0.9-0.2 1.8-0.5c0.5-0.1 1.1-0.3 1.6-0.4q0.8-0.1 1.5-0.2 0.8-0.1 1.5-0.2c0.3 0 0.1 0 0.2 0 0.1 0 0.3 0 0.3 0h0.4 0.8c1 0 2.1 0.1 3 0.3 1 0.1 2 0.2 2.8 0.5 0.9 0.3 1.8 0.6 2.6 0.9 3.2 1.4 5.7 3.1 7.5 4.7 0.9 0.8 1.6 1.7 2.3 2.3 0.7 0.7 1.1 1.3 1.5 1.8 0.7 1 1.1 1.6 1.1 1.6zm-1.5 1.1q0 0 0 0 0.1 0.1 0.1 0.1zm-1.3-1.4c-0.4-0.5-0.9-1.1-1.6-1.6-0.6-0.5-1.3-1.2-2.2-1.8-1.8-1.2-4.2-2.5-7.1-3.4-2.9-0.9-6.3-1.4-9.9-1q-0.7 0.1-1.5 0.2c-0.5 0.1-0.9 0.2-1.3 0.3q-0.7 0.1-1.4 0.3-0.7 0.3-1.4 0.5-0.7 0.3-1.4 0.6-0.7 0.3-1.4 0.7c-0.9 0.4-1.8 1-2.7 1.6-3.5 2.5-6.6 5.9-8.6 10.4-2 4.2-2.9 9.3-2.6 14.3 0.4 5 1.9 10.2 5.1 14.4 3.1 4.1 7.5 7.3 12.3 9 4.8 1.7 10.1 1.7 14.7 0.1 4.6-1.6 8.5-4.5 11.4-7.9l1-1.2c0.4-0.5 0.6-1 0.9-1.4 0.6-0.9 1.2-1.8 1.6-2.7 0.4-1 1-1.9 1.3-2.8q0.4-1.5 0.8-2.9c0.8-3.7 1-7.3 0.6-10.4-0.1-1.6-0.5-3-0.8-4.3q-0.6-2-1.1-3.5-0.8-1.6-1.3-2.7c-0.4-0.8-0.9-1.4-1.2-1.9q-0.8-1.4-0.9-1.5-0.2-0.2-1.3-1.4z"/><path class="a" d="m38.9 63.6c0 5.7-4.6 10.4-10.3 10.4-5.8 0-10.4-4.7-10.4-10.4 0-5.7 4.6-10.3 10.4-10.3 5.7 0 10.3 4.6 10.3 10.3z"/><path class="b" d="m28.9 59.8c0 1.9-1.6 3.5-3.4 3.5-1.9 0-3.5-1.6-3.5-3.5 0-1.8 1.6-3.4 3.5-3.4 1.8 0 3.4 1.6 3.4 3.4z"/><path class="b" d="m67.9 43c5.1-6.9 13.4-10.9 21.6-10.4 8.1 0.5 16 5.4 20.4 12.8 5.1 8.6 5.4 20.4 0.5 29.2-4.8 8.9-14.5 14.4-24 13.7-9.5-0.6-18.4-7.4-22.1-16.9-3.7-9.2-2.2-20.6 3.6-28.4z"/><path fill-rule="evenodd" class="a" d="m67.1 42.4q0.1-0.1 1.2-1.5c0.4-0.5 0.9-1.1 1.6-1.8 0.7-0.6 1.4-1.5 2.4-2.2 1.8-1.6 4.3-3.2 7.5-4.4 3.2-1.2 7.1-1.9 11.3-1.4q0.8 0.1 1.5 0.2c0.5 0.2 1.1 0.3 1.6 0.5q0.8 0.2 1.7 0.4 0.8 0.3 1.5 0.7 0.8 0.3 1.6 0.6 0.8 0.5 1.5 0.9c1.1 0.5 2 1.2 3 1.9 3.7 2.9 7.1 7 9 11.6 1.9 4.9 2.6 10.2 2 15.5-0.6 5.3-2.6 10.5-5.8 14.8-3.3 4.3-7.8 7.5-12.8 9.2-5 1.7-10.5 1.7-15.2 0.1-4.8-1.5-8.9-4.4-12-7.9l-1.1-1.2c-0.4-0.5-0.7-1-1-1.4-0.6-1-1.3-1.9-1.7-2.9-0.5-1-1-1.9-1.4-2.9q-0.5-1.5-1-2.9c-0.9-4-1.2-7.7-0.8-11 0.1-1.6 0.5-3.1 0.7-4.6 0.4-1.3 0.8-2.6 1.2-3.7q0.7-1.6 1.3-2.9c0.4-0.9 0.9-1.5 1.2-2 0.7-1.1 1-1.7 1-1.7zm1.6 1.2q-0.2 0.1-1 1.5c-0.3 0.5-0.8 1.1-1.2 1.9q-0.5 1.1-1.2 2.7-0.5 1.6-1.2 3.5c-0.2 1.3-0.6 2.7-0.7 4.3-0.3 3.1-0.1 6.7 0.7 10.3q0.5 1.4 0.9 2.9c0.3 0.8 0.9 1.8 1.3 2.7 0.4 1 1 1.8 1.6 2.7 0.3 0.4 0.6 0.9 0.9 1.3l1 1.3c2.9 3.3 6.8 6.1 11.3 7.5 4.5 1.5 9.6 1.6 14.4 0 4.7-1.5 9.2-4.6 12.3-8.6 3.2-4.2 4.6-9.3 5-14.3 0.3-5-0.8-10.1-2.7-14.1-2.1-4.4-5.2-7.7-8.7-10-0.8-0.6-1.7-1.2-2.6-1.6q-0.7-0.4-1.4-0.7-0.6-0.3-1.3-0.6-0.7-0.2-1.4-0.5-0.6-0.1-1.3-0.3c-0.4-0.1-0.8-0.2-1.3-0.3q-0.7-0.1-1.5-0.2-0.7 0-1.4-0.1c-0.1 0-0.2 0-0.2 0h-0.3-0.7c-0.8 0-1.6 0-2.4 0.1-1.7 0.1-3.2 0.5-4.6 0.8-2.9 0.9-5.3 2-7.1 3.2-1 0.5-1.6 1.2-2.3 1.7-0.7 0.5-1.2 1.1-1.7 1.5q-1.1 1.3-1.2 1.4zm20.5-8.7q0 0 0 0 0 0 0 0 0 0 0 0zm0.1 0q0 0 0 0 0 0 0 0zm-0.1 0c0.2 0 0.1 0 0.1 0q0 0-0.1 0z"/><path class="a" d="m99.2 62.9c0 5.8-4.6 10.4-10.3 10.4-5.7 0-10.4-4.6-10.4-10.4 0-5.7 4.7-10.3 10.4-10.3 5.7 0 10.3 4.6 10.3 10.3z"/><path class="b" d="m89.2 59.2c0 1.9-1.5 3.4-3.4 3.4-1.9 0-3.4-1.5-3.4-3.4 0-1.9 1.5-3.4 3.4-3.4 1.9 0 3.4 1.5 3.4 3.4z"/><path class="c" d="m51.6 70.9c0.8-2.3 1.4-4.6 1.7-7.1-0.3 1.2-0.9 2.7-1.4 3.8-3.7 9.6-12.5 16.6-22 17.3-9.5 0.6-19.1-5-23.9-14-1.2-2.1-2-4.5-2.5-6.9 0.4 3.7 1.1 7.2 2.8 10.4 4.7 8.8 14.3 14.4 23.5 13.7 9.2-0.7 18.1-7.8 21.8-17.2z"/><path class="c" d="m65.3 71.1c-0.9-2.2-1.4-4.5-1.7-6.9q0.4 1.7 1 3.3c3.7 9.4 12.5 16.1 21.9 16.8 9.4 0.7 18.9-4.8 23.7-13.6 1.1-2.1 1.9-4.3 2.5-6.7-0.4 3.6-1.3 7.6-3 10.7-4.6 8.6-14 13.4-23.1 12.8-9.2-0.7-17.7-7.2-21.3-16.4z"/><path class="a" d="m0 104.1c0.2 5.1 4 9.3 7.8 12.7 13.4 11.5 30.8 18.5 48.5 19.4 17.7 0.8 35.7-4.4 50.2-14.6 3.2-2.3 6.3-4.9 8.2-8.3 1.9-3.5 2.4-8 0.3-11.3-2-3.4-6.2-4.9-10.1-5.1-3.9-0.1-7.7 1-11.5 1.9-18.7 4.3-38.5 3.3-56.7-2.8-7-2.4-14.1-5.6-21.6-5.2-7.4 0.4-15.3 5.9-15.1 13.3z"/><path class="b" d="m77.4 113.5q0.9-0.6 1.8-1.2c1.9-1.3 3.5-2.9 4.9-4.8 1.4-1.8 2.5-3.8 3.4-5.9-15.8 3.4-32.6 2.4-47.9-2.7-3.3-1.2-6.7-2.5-10-3.4 0.3 2.3 1.8 5.1 2.7 6.9 8.3 15.1 30.7 19.5 45.1 11.1z"/><path class="a" d="m39.5 140.8c0 0 0.6 0.1 1.6 0.3 1 0.1 2.4 0.4 4 0.6q1.3 0.1 2.7 0.4c0.9 0.1 1.9 0.2 2.9 0.3 2.1 0.3 4.2 0.4 6.4 0.5 2.2 0.1 4.4 0.2 6.5 0.1 1 0 2 0.1 3 0q1.4-0.1 2.6-0.1c1.7 0 3.1-0.2 4.1-0.2 1-0.1 1.5-0.1 1.5-0.1 0 0-0.5 0.2-1.4 0.6-0.9 0.3-2.3 0.9-3.9 1.2q-1.3 0.3-2.7 0.6c-1 0.2-2 0.3-3.1 0.4-1.1 0.1-2.2 0.3-3.3 0.2q-1.7 0-3.4 0-1.7-0.2-3.4-0.3c-1.1-0.1-2.2-0.4-3.2-0.6-1.1-0.2-2.1-0.4-3.1-0.7q-1.4-0.4-2.6-0.8c-1.6-0.5-2.9-1.2-3.8-1.6-0.9-0.5-1.4-0.8-1.4-0.8z"/><path class="d" d="m59.7 121c-9.1-0.5-18.4 2.6-25.4 8.5 7.1 2.7 14.6 4.4 22.2 4.8 8.8 0.4 17.6-0.8 25.9-3.6-6.2-5.7-14.3-9.2-22.7-9.7z"/><path class="a" d="m56.3 102.7q-0.8-0.1-1.6-0.2c-0.6 4.9-0.4 9.9 0.5 14.7q0.8 0.2 1.7 0.3c-1-4.9-1.2-9.8-0.6-14.8z"/></svg>