<svg version="1.2" xmlns="http://www.w3.org/2000/svg" viewBox="0 0 114 153" width="114" height="153"><style>.a{fill:#1d1d1b}.b{fill:#fff}.c{fill:#ededed}.d{fill:#db5b54}.e{fill:#db4a43}</style><path class="a" d="m28.9 3.4c-8.5 0.6-16.7 4.5-22.6 10.6-0.6 0.7-1.7-0.1-1.3-0.9 2.3-4.9 6.6-10.3 10.5-11.9 4.4-1.9 9.4-1.2 13.6 1 0.6 0.3 0.4 1.2-0.2 1.2z"/><path class="b" d="m47.5 30.5c-5.1-6.9-13.4-10.9-21.5-10.4-8.2 0.4-16 5.3-20.5 12.8-5.1 8.6-5.3 20.4-0.5 29.2 4.8 8.9 14.5 14.4 24 13.7 9.5-0.6 18.4-7.5 22.2-16.9 3.6-9.3 2.1-20.6-3.7-28.4z"/><path fill-rule="evenodd" class="a" d="m48.3 29.9c0 0 0.3 0.6 1 1.7 0.3 0.5 0.8 1.1 1.2 2q0.6 1.3 1.4 2.9c0.4 1.1 0.7 2.4 1.2 3.7 0.2 1.4 0.6 2.9 0.8 4.6 0.3 3.3 0.1 7-0.8 11.1q-0.5 1.4-0.9 2.9c-0.4 1.1-0.9 1.9-1.4 3-0.4 1-1.1 1.9-1.7 2.8-0.3 0.5-0.6 1-1 1.5l-1.1 1.3c-3.1 3.5-7.2 6.5-12.1 8.1-4.8 1.7-10.5 1.6-15.5-0.2-5-1.8-9.4-5.2-12.8-9.5-3.2-4.3-5.3-9.5-5.9-14.9-0.6-5.3-0.1-10.6 1.9-15.7 1.8-4.7 5.1-9 9-11.9 0.9-0.8 1.9-1.5 3-2q0.8-0.4 1.5-0.9 0.8-0.3 1.6-0.7 0.8-0.3 1.6-0.6 0.9-0.2 1.8-0.5c0.5-0.1 1.1-0.3 1.6-0.4q0.8-0.1 1.5-0.2 0.8-0.1 1.5-0.2c0.3 0 0.1 0 0.2 0 0.1 0 0.3 0 0.3 0h0.4 0.8c1 0 2.1 0.1 3 0.3 1 0.1 2 0.2 2.8 0.5 0.9 0.3 1.8 0.6 2.6 0.9 3.2 1.4 5.7 3.1 7.5 4.7 0.9 0.8 1.6 1.7 2.3 2.3 0.7 0.7 1.1 1.3 1.5 1.8 0.7 1 1.1 1.6 1.1 1.6zm-1.5 1.1q0 0 0 0 0.1 0 0.1 0zm-1.3-1.3c-0.4-0.5-0.9-1.1-1.6-1.6-0.6-0.5-1.3-1.2-2.2-1.8-1.8-1.3-4.2-2.5-7.1-3.4-2.9-0.9-6.3-1.4-9.9-1q-0.7 0.1-1.5 0.2c-0.5 0-0.9 0.2-1.3 0.3q-0.7 0.1-1.4 0.3-0.7 0.3-1.4 0.5-0.7 0.3-1.4 0.5-0.7 0.4-1.4 0.8c-0.9 0.4-1.8 1-2.7 1.6-3.5 2.5-6.6 5.9-8.6 10.4-2 4.2-2.9 9.3-2.6 14.3 0.4 5 1.9 10.2 5.1 14.4 3.1 4.1 7.5 7.3 12.3 8.9 4.8 1.8 10.1 1.8 14.7 0.2 4.6-1.6 8.5-4.5 11.4-7.9l1-1.3c0.4-0.4 0.6-0.9 0.9-1.3 0.6-0.9 1.2-1.8 1.6-2.8 0.4-0.9 1-1.8 1.3-2.7q0.4-1.5 0.8-2.9c0.8-3.7 1-7.3 0.6-10.4-0.1-1.6-0.5-3-0.8-4.3q-0.6-2-1.1-3.6-0.8-1.5-1.3-2.6c-0.4-0.8-0.9-1.4-1.2-1.9q-0.8-1.4-0.9-1.5-0.2-0.2-1.3-1.4z"/><path class="c" d="m50.6 58.4c0.8-2.3 1.4-4.7 1.7-7.1-0.3 1.2-0.9 2.7-1.4 3.8-3.7 9.6-12.5 16.6-22 17.2-9.5 0.7-19.1-4.9-23.9-13.9-1.2-2.2-2-4.5-2.5-6.9 0.4 3.7 1.1 7.2 2.8 10.4 4.7 8.8 14.3 14.4 23.5 13.7 9.2-0.7 18.1-7.8 21.8-17.2z"/><path class="a" d="m42.4 53.8c0 5.7-4.6 10.4-10.3 10.4-5.7 0-10.3-4.7-10.3-10.4 0-5.7 4.6-10.3 10.3-10.3 5.7 0 10.3 4.6 10.3 10.3z"/><path class="b" d="m32.4 50c0 1.9-1.5 3.4-3.4 3.4-1.9 0-3.4-1.5-3.4-3.4 0-1.8 1.5-3.4 3.4-3.4 1.9 0 3.4 1.6 3.4 3.4z"/><path class="a" d="m85.6 3.4c8.4 0.6 16.6 4.5 22.5 10.6 0.6 0.7 1.7-0.1 1.3-0.9-2.2-4.9-6.5-10.3-10.5-11.9-4.4-1.9-9.3-1.2-13.6 1-0.6 0.3-0.4 1.2 0.3 1.2z"/><path class="b" d="m66.9 30.5c5.1-6.9 13.4-10.9 21.6-10.4 8.1 0.4 16 5.3 20.4 12.8 5.1 8.6 5.4 20.4 0.5 29.2-4.8 8.9-14.5 14.4-24 13.7-9.5-0.6-18.4-7.5-22.1-16.9-3.7-9.3-2.2-20.6 3.6-28.4z"/><path fill-rule="evenodd" class="a" d="m66.1 29.9q0.1-0.1 1.2-1.5c0.4-0.5 0.9-1.1 1.6-1.8 0.7-0.6 1.4-1.5 2.4-2.2 1.8-1.6 4.3-3.2 7.5-4.5 3.2-1.2 7.1-1.8 11.3-1.3q0.8 0.1 1.5 0.2c0.5 0.2 1.1 0.3 1.6 0.5q0.9 0.2 1.7 0.4 0.8 0.3 1.5 0.7 0.8 0.3 1.6 0.6 0.8 0.5 1.5 0.9c1.1 0.5 2 1.2 3 1.9 3.7 2.9 7.1 7 9 11.6 1.9 4.9 2.6 10.2 2 15.5-0.6 5.3-2.6 10.5-5.8 14.7-3.3 4.3-7.8 7.6-12.8 9.3-5 1.7-10.5 1.6-15.2 0.1-4.8-1.5-8.9-4.4-12-7.9l-1.1-1.2c-0.4-0.5-0.7-1-1-1.4-0.6-1-1.3-1.9-1.7-2.9-0.5-1-1-1.9-1.4-2.9q-0.5-1.5-1-2.9c-0.9-4-1.2-7.7-0.8-11 0.1-1.7 0.5-3.2 0.7-4.6 0.4-1.3 0.8-2.6 1.2-3.7q0.7-1.7 1.3-2.9c0.4-0.9 0.9-1.5 1.2-2 0.7-1.1 1-1.7 1-1.7zm1.6 1.2q-0.2 0.1-1 1.5c-0.3 0.5-0.8 1.1-1.2 1.8q-0.5 1.2-1.2 2.8-0.5 1.5-1.2 3.5c-0.2 1.3-0.6 2.7-0.7 4.3-0.3 3.1-0.1 6.6 0.7 10.3q0.5 1.4 0.9 2.9c0.3 0.8 0.9 1.8 1.3 2.7 0.4 1 1 1.8 1.6 2.7 0.3 0.4 0.6 0.9 0.9 1.3l1 1.3c2.9 3.2 6.8 6.1 11.3 7.5 4.5 1.5 9.6 1.6 14.4 0 4.7-1.5 9.2-4.6 12.3-8.6 3.2-4.2 4.6-9.3 5-14.3 0.3-5-0.8-10.1-2.7-14.1-2.1-4.4-5.2-7.7-8.7-10-0.8-0.7-1.7-1.2-2.6-1.7q-0.7-0.3-1.4-0.7-0.6-0.2-1.3-0.5-0.7-0.2-1.4-0.5-0.6-0.1-1.3-0.3c-0.4-0.1-0.8-0.2-1.3-0.3q-0.7-0.1-1.5-0.2-0.7 0-1.4-0.1c-0.1 0-0.2 0-0.2 0h-0.3-0.7c-0.8 0-1.6-0.1-2.4 0.1-1.7 0.1-3.2 0.5-4.6 0.8-2.9 0.9-5.3 2-7.1 3.2-1 0.5-1.6 1.2-2.3 1.7-0.7 0.5-1.2 1.1-1.7 1.5q-1.1 1.2-1.2 1.4zm20.5-8.7q0 0 0 0 0 0 0 0 0 0 0 0zm0.1 0q0 0 0 0 0 0 0 0zm-0.1 0c0.2 0 0.1 0 0.1 0q0 0-0.1 0z"/><path class="a" d="m92.7 53.8c0 5.7-4.7 10.4-10.4 10.4-5.7 0-10.3-4.7-10.3-10.4 0-5.7 4.6-10.3 10.3-10.3 5.7 0 10.4 4.6 10.4 10.3z"/><path class="b" d="m82.6 50c0 1.9-1.5 3.4-3.4 3.4-1.9 0-3.4-1.5-3.4-3.4 0-1.8 1.5-3.4 3.4-3.4 1.9 0 3.4 1.6 3.4 3.4z"/><path class="c" d="m64.3 58.6c-0.9-2.2-1.4-4.6-1.7-7q0.4 1.8 1 3.4c3.7 9.4 12.5 16.1 21.9 16.8 9.4 0.7 18.9-4.8 23.7-13.6 1.1-2.1 1.9-4.3 2.5-6.7-0.4 3.6-1.3 7.6-3 10.7-4.6 8.5-14 13.4-23.1 12.8-9.2-0.7-17.7-7.3-21.3-16.4z"/><path class="a" d="m77.2 88.5c-11.7 3.7-24.5 3.7-36.2-0.1-5.4-1.8-10.6-4.3-16.2-5.1-5.6-0.8-12.1 0.6-15.3 5.3-2.7 4-2.4 9.4-0.4 13.7 2.1 4.3 5.7 7.7 9.6 10.5 19.2 14.2 43.7 15.4 65.7 6.1 7.1-3.1 14.1-7.8 17.3-14.9 3.1-7.2 3-15.1-4.1-18.2-6.5-2.8-13.7 0.5-20.4 2.7z"/><path class="d" d="m24.8 147.6c3.7 3.2 8.8 4.5 13.8 4.6 6.4 0.2 13.3-1.7 17.6-6.5 2.8-3.1 4.3-7 5.8-10.7 1.5-3.8 2.5-8.6 6.1-10.6 3-1.6 5.6-0.8 11.3-3.8 0.2-3.1-3.2-4.8-6.3-5.3-3.1-0.5-6.3 0.3-9.5 0.4-5.3 0-10.4-2.1-15.7-2.9-9.3-1.4-19.6 1.8-25.2 9.3-5.6 7.6-5.2 19.5 2.1 25.5z"/><path class="b" d="m88.4 87.6c-3.4 1-10.2 2.9-15 4.4-9.3 3-19.6 2.9-29-0.1-4.3-1.4-10.9-3.5-15.4-5.1-0.5-0.1 0.5 0.1 0 0 6 9.1 17.3 16.1 28.2 16.8 11.8 0.8 25.8-5.4 31.2-16z"/><path class="a" d="m57.4 103.6q1 0.1 1.9 0.1c-0.6-3.1-0.9-6.3-0.9-9.5q-0.9 0-1.8-0.1c0 3.2 0.2 6.4 0.8 9.5z"/><path class="e" d="m33.1 137c2.5-5.7 7-10.3 12.2-13.8 5.2-3.4 11.1-5.6 17.1-7.4-6.5-0.2-13 1.8-18.3 5.6-5.2 3.8-9.2 9.3-11 15.6z"/><path class="a" d="m7.3 82.6c-2.6 1.7-4.5 3.8-5.6 6.7-0.8 2.3-0.6 6.1 1.5 7.6 0.3 0.2 0.7 0 0.8-0.3 0.6-2-0.1-4.2 0.1-6.2 0.2-3 1.6-5.2 3.7-7.2 0.2-0.3-0.1-0.8-0.5-0.6z"/><path class="a" d="m103.6 83.1c1.8 2 3.8 4.2 5 6.6 1.3 2.4 1.2 5.2 2.6 7.4 0.3 0.6 1.1 0.5 1.2-0.1 1-2.9-0.3-6-1.7-8.5-1.6-2.9-3.9-4.6-6.9-5.7-0.2-0.1-0.3 0.1-0.2 0.3z"/><path class="a" d="m66.9 132.1c7 0.3 15.1-2.4 19.7-8 0.3-0.4-0.1-0.9-0.6-0.7-3.3 1.7-6.2 3.9-9.6 5.3-3 1.2-6.4 2.1-9.6 2.8-0.4 0-0.3 0.6 0.1 0.6z"/></svg>