<svg version="1.2" xmlns="http://www.w3.org/2000/svg" viewBox="0 0 129 103" width="129" height="103"><style>.a{fill:#1d1d1b}.b{fill:#fff}.c{fill:#ededed}.d{fill:#db5b54}</style><path class="a" d="m101.9 2c7.6 3.8 13.8 10.4 17 18.3 0.3 0.8 1.6 0.5 1.5-0.4-0.2-5.3-2.2-11.9-5.2-15-3.4-3.3-8.3-4.5-13-4.1-0.7 0-0.9 1-0.3 1.2z"/><path class="b" d="m112.5 38.2c-3.6-1.8-7.5-3-11.3-4.1-4-1.3-8.2-2.2-12.2-3.7-5.7-2.3-11.3-5.1-14.5-9.6-4.7 7.7-5.7 18-2.3 26.5 3.7 9.5 12.6 16.3 22.2 16.9 9.5 0.7 19.1-4.8 24-13.6 1-2 1.8-4.1 2.4-6.3-2.7-2.1-5.3-4.7-8.3-6.1z"/><path fill-rule="evenodd" class="a" d="m95.9 65.2q-0.8 0-1.6 0c-9.9-0.7-19.1-7.8-23-17.6-3.4-8.6-2.4-19.3 2.4-27.3l0.8-1.2 0.8 1.2c3.3 4.6 9.2 7.3 14.1 9.2 2.5 1 5.2 1.7 7.8 2.4q2.1 0.6 4.3 1.3l0.5 0.1c3.7 1.2 7.4 2.3 10.9 4 2.2 1.1 4.2 2.7 6 4.3q1.2 1 2.5 1.9l0.5 0.4-0.2 0.6c-0.6 2.4-1.5 4.5-2.5 6.5-4.7 8.6-13.9 14.2-23.3 14.2zm-21.2-42.7c-4 7.3-4.7 16.8-1.6 24.5 3.6 9.1 12.1 15.7 21.3 16.3 9.2 0.7 18.5-4.7 23.1-13.2q1.4-2.5 2.3-5.5-1.1-0.8-2.1-1.6c-1.8-1.6-3.6-3-5.6-4-3.4-1.6-7.1-2.8-10.6-3.9l-0.6-0.1q-2.1-0.7-4.2-1.3c-2.7-0.7-5.4-1.5-8-2.5-4.7-1.8-10.4-4.4-14-8.7z"/><path class="a" d="m89 30.4c-2.5-1-5-2.1-7.3-3.4-2.1 1.9-3.5 4.6-3.5 7.7 0 5.7 4.7 10.4 10.4 10.4 5.7 0 10.3-4.7 10.3-10.4q0-0.7-0.1-1.3c-3.3-1-6.6-1.8-9.8-3z"/><path class="b" d="m88.9 31c0 1.8-1.5 3.4-3.4 3.4-1.9 0-3.4-1.6-3.4-3.4 0-1.9 1.5-3.5 3.4-3.5 1.9 0 3.4 1.6 3.4 3.5z"/><path class="c" d="m73.3 47.1c-0.9-2.3-1.5-4.6-1.8-7q0.5 1.7 1.1 3.3c3.7 9.4 12.5 16.2 21.8 16.8 9.4 0.7 19-4.8 23.7-13.6 1.2-2.1 2-4.3 2.6-6.7-0.4 3.6-1.4 7.6-3.1 10.7-4.6 8.6-14 13.4-23.1 12.8-9.1-0.7-17.7-7.2-21.2-16.3z"/><path class="a" d="m86 3.4c-5.9 5.2-21.7 12.4-10.4 21.3 5.5 4.4 14.4 5.5 20.9 7.8 12.3 4.4 20.7 10.4 30.8 18.4 0.7 0.5 1.4-0.3 0.9-0.9-8.7-11.1-17.9-15.9-30.8-20.8-6.5-2.5-13.7-3.8-19.9-6.9-8.8-4.5 6.5-15.2 8.6-18.8 0.1-0.1 0-0.2-0.1-0.1z"/><path class="a" d="m74.5 53.4c3.9 8.2 7.9 11.9 16.3 15.7 8.3 3.9 17.1 3.2 25.9 1.5 0.4-0.1 0.3-0.6-0.1-0.7-7.3-0.9-14.7-0.5-21.9-2.2-8.9-2.1-14.6-7.6-20-14.4-0.1-0.1-0.2 0-0.2 0.1z"/><path class="a" d="m26.5 2c-7.6 3.8-13.8 10.4-17 18.3-0.3 0.8-1.6 0.5-1.5-0.4 0.2-5.3 2.2-11.9 5.3-15 3.4-3.3 8.2-4.5 13-4.1 0.6 0 0.8 1 0.2 1.2z"/><path class="b" d="m15.9 38.2c3.6-1.8 7.5-3 11.3-4.1 4.1-1.3 8.2-2.2 12.2-3.7 5.8-2.3 11.3-5.1 14.5-9.6 4.7 7.7 5.7 18 2.3 26.5-3.7 9.5-12.6 16.3-22.1 16.9-9.5 0.7-19.2-4.8-24-13.6-1.1-2-1.9-4.1-2.5-6.3 2.8-2.1 5.3-4.7 8.3-6.1z"/><path fill-rule="evenodd" class="a" d="m32.5 65.2c-9.4 0-18.5-5.6-23.3-14.2-1-2-1.9-4.1-2.5-6.5l-0.2-0.6 0.5-0.4q1.3-0.9 2.5-1.9c1.9-1.6 3.8-3.2 6-4.3 3.5-1.7 7.3-2.8 10.9-4l0.5-0.1q2.2-0.7 4.4-1.3c2.6-0.7 5.2-1.4 7.7-2.4 4.9-1.9 10.9-4.6 14.1-9.2l0.8-1.2 0.8 1.2c4.9 8 5.8 18.7 2.4 27.3-3.9 9.8-13.1 16.9-23 17.6q-0.8 0-1.6 0zm-23.8-20.6q0.8 3 2.2 5.5c4.6 8.5 13.8 13.9 23.1 13.2 9.2-0.6 17.8-7.2 21.4-16.3 3-7.7 2.3-17.2-1.6-24.5-3.7 4.3-9.4 6.9-14.1 8.7-2.6 1-5.3 1.8-7.9 2.5q-2.2 0.6-4.3 1.3l-0.5 0.1c-3.6 1.1-7.3 2.3-10.7 3.9-2 1-3.7 2.4-5.6 4q-1 0.8-2 1.6z"/><path class="a" d="m39.4 30.4c2.5-1 5-2.1 7.3-3.4 2.1 1.9 3.5 4.6 3.5 7.7 0 5.7-4.6 10.4-10.3 10.4-5.8 0-10.4-4.7-10.4-10.4q0-0.7 0.1-1.3c3.3-1 6.6-1.8 9.8-3z"/><path class="b" d="m39.5 31c0 1.8 1.6 3.4 3.5 3.4 1.8 0 3.4-1.6 3.4-3.4 0-1.9-1.6-3.5-3.4-3.5-1.9 0-3.5 1.6-3.5 3.5z"/><path class="c" d="m55.2 47.1c0.8-2.3 1.4-4.6 1.7-7q-0.4 1.7-1.1 3.3c-3.6 9.4-12.4 16.2-21.8 16.8-9.4 0.7-18.9-4.8-23.7-13.6-1.1-2.1-2-4.3-2.5-6.7 0.4 3.6 1.3 7.6 3 10.7 4.6 8.6 14 13.4 23.1 12.8 9.1-0.7 17.7-7.2 21.3-16.3z"/><path class="a" d="m42.3 3.5c1.9 3.3 5.1 5.2 7.8 7.7 9.5 8.8-0.2 11.9-4.8 13.2-4.8 1.4-9.5 3-14.3 4.8-12.9 4.7-22.2 9.8-30.8 20.8-0.5 0.6 0.2 1.4 0.9 0.9 4.4-3.5 8.6-7.4 13.1-10.7 5.2-3.7 11.8-5.6 17.7-7.7 6.5-2.4 15.3-3.4 20.9-7.8 11.4-8.9-4.4-16.1-10.4-21.3-0.1-0.1-0.2 0-0.1 0.1z"/><path class="a" d="m53.8 53.3c-5 6.3-9.6 10.3-17.2 13.4-7.8 3.2-16.6 2.2-24.8 3.2-0.3 0.1-0.5 0.6-0.1 0.7 9 1.7 17 2 25.6-1.3 8.6-3.4 12.8-7.9 16.6-15.9 0-0.1-0.1-0.2-0.1-0.1z"/><path class="a" d="m56.4 69.2c-3.1 2.3-5.1 5.7-6.8 9.2-1.4 2.9-2.8 6-2.8 9.3 0 3.3 1.7 6.8 4.8 7.9 5.6 2.2 11.5-4.3 17.4-3.2 2.8 0.6 5.2 2.7 8 2.6 2.3-0.2 4.3-1.9 5.2-4 1-2.1 1-4.6 0.7-6.8-0.8-6.1-4-12-9.2-15.2-5.2-3.2-12.4-3.4-17.3 0.2z"/><path class="d" d="m76.6 92.2c-0.2-1.8-1.1-3.7-2.1-5.3-2.2-3.2-5.4-5.9-9.2-6.3-4.1-0.5-8.1 2-10.6 5.3-1.4 2-2.4 4.5-2 6.8q0.5 0.3 1 0.5c4.7 1.8 9.6-3.6 14.6-2.7 2.3 0.5 4.4 2.3 6.7 2.1q0.8 0 1.6-0.4z"/><path class="a" d="m39.8 89.7c-0.5 3-0.2 5.7 1.8 8.2 2 2.4 4.9 4.4 8 4.3 0.7 0 0.8-0.8 0.3-1.1-2.1-1.6-4.6-2.3-6.5-4.2-1.8-1.8-2.9-4.8-3.4-7.2 0-0.1-0.2-0.1-0.2 0z"/><path class="a" d="m88.4 88.9c-0.6 0.4-0.8 0.8-0.9 1.5-0.2 1-0.6 1.9-1.2 2.7-0.9 1.4-3.2 2.6-3.2 4.4 0 0.3 0.2 0.6 0.5 0.7 2.4 0.6 4.5-2.7 5.2-4.6 0.4-1 0.9-2.6 0.6-3.7-0.1-0.2-0.6-1.2-1-1z"/></svg>