<svg version="1.2" xmlns="http://www.w3.org/2000/svg" viewBox="0 0 135 88" width="135" height="88"><style>.a{fill:#1d1d1b}.b{fill:#fff}.c{fill:#ededed}</style><path class="a" d="m40.6 82.4q0 0 0.2-0.7c0.2-0.5 0.3-1.2 0.7-2.1q0.3-0.7 0.6-1.5 0.4-0.8 0.9-1.7c0.7-1.1 1.5-2.4 2.6-3.7 1-1.2 2.3-2.5 3.8-3.7 1.4-1.2 3.1-2.2 5-3.1 1.8-0.9 3.8-1.6 5.9-2 2.2-0.4 4.3-0.6 6.7-0.4 2 0.3 4.1 0.5 6.2 1.3 2.2 0.6 3.9 1.8 5.8 2.6 1.6 1.2 3.3 2.2 4.7 3.5q1 1 2 1.9 0.8 0.9 1.6 1.9c1.1 1.1 2 2.4 2.7 3.5q0.5 0.8 1 1.5 0.4 0.7 0.8 1.4c0.8 1.6 1.4 2.6 1.4 2.6 0.3 0.6 0 1.4-0.6 1.7-0.6 0.3-1.3 0.1-1.7-0.5l-0.1-0.2c0 0-0.5-0.8-1.4-2.3q-0.3-0.6-0.7-1.3-0.5-0.6-1.1-1.3c-0.7-1-1.5-2.1-2.6-3.2q-0.7-0.8-1.5-1.7-1-0.7-1.9-1.6c-1.3-1.2-2.9-2-4.3-3-1.7-0.8-3.3-1.9-5.1-2.3-1.5-0.7-3.7-0.9-5.8-1.2 0 0 0.3 0 0.2 0-0.2 0-0.3 0-0.3 0h-0.4-0.7c-0.5-0.1-0.9 0-1.4 0-0.9 0-1.9 0.2-2.8 0.3-1.8 0.4-3.6 1-5.2 1.7-1.6 0.9-3.2 1.7-4.5 2.7-1.3 1-2.4 2.1-3.4 3.2q-1.4 1.6-2.4 3.1-0.4 0.8-0.8 1.5-0.4 0.6-0.6 1.2c-0.4 0.7-0.6 1.5-0.8 1.9q-0.2 0.7-0.2 0.7c-0.2 0.7-1 1.1-1.6 0.9-0.7-0.3-1.1-1-0.9-1.6z"/><path class="a" d="m45.9 84.5c0.1 0.2 0 0-0.1-0.2-0.1-0.4-0.3-0.6-0.5-0.8-0.4-0.4-1-0.6-1.4-1-0.5-0.4-0.9-0.9-1.3-1.4-0.5-0.5-0.8-0.7-1.1-1.2-1.1-2.4-5.1-0.7-4.2 1.7 0.9 2.4 2.6 3.6 5 4.2 0.9 0.1 2.1 0.4 2.9-0.1 0.4-0.2 0.8-0.8 0.7-1.2z"/><path class="a" d="m90.5 87.1c2.2-0.4 4.2-1.3 5.4-3.2 0.9-1.5-0.8-3-2.2-2.3-1.6 0.9-2.7 2.2-4.2 3.1-1.4 0.7-0.4 2.7 1 2.4z"/><path class="b" d="m34.5 30.9c7.7-0.5 15.4 1 22.4-2 1.2 5.6 0.7 11.6-1.3 16.9-3.8 9.5-12.7 16.3-22.2 17-9.5 0.6-19.2-4.9-24-13.7-2.4-4.4-3.6-9.5-3.5-14.6 9.6-0.7 19-3 28.6-3.6z"/><path fill-rule="evenodd" class="a" d="m31.8 63.8c-9.4 0-18.5-5.6-23.2-14.3-2.5-4.4-3.7-9.6-3.6-15v-0.9h0.9c4.5-0.4 9.2-1.1 13.6-1.8 4.9-0.8 9.9-1.6 14.9-1.9 2.4-0.1 4.8-0.1 7.1 0q1.6 0 3.2 0c3.9 0 8-0.2 11.9-1.9l1-0.4 0.2 1.1c1.2 5.9 0.7 12.1-1.4 17.5-3.8 9.8-13.1 16.8-22.9 17.5q-0.8 0.1-1.7 0.1zm-24.9-28.5c0 4.8 1.2 9.4 3.3 13.3 4.7 8.6 13.9 13.9 23.1 13.2 9.2-0.6 17.8-7.2 21.4-16.3 1.8-4.7 2.4-10.1 1.5-15.3-3.8 1.4-7.8 1.6-11.5 1.6q-1.6 0-3.2-0.1c-2.3 0-4.6 0-6.9 0.1-5 0.3-9.9 1.1-14.8 1.8-4.2 0.7-8.6 1.4-12.9 1.7z"/><path class="a" d="m46.8 40.8c0 5.7-4.6 10.3-10.3 10.3-5.7 0-10.3-4.6-10.3-10.3 0-5.8 4.6-10.4 10.3-10.4 5.7 0 10.3 4.6 10.3 10.4z"/><path class="b" d="m36.8 37c0 1.9-1.5 3.4-3.4 3.4-1.9 0-3.4-1.5-3.4-3.4 0-1.9 1.5-3.4 3.4-3.4 1.9 0 3.4 1.5 3.4 3.4z"/><path class="c" d="m54.5 45.6c0.9-2.2 1.4-4.6 1.7-7q-0.4 1.7-1 3.3c-3.7 9.4-12.5 16.2-21.9 16.8-9.4 0.7-18.9-4.8-23.7-13.5-1.1-2.1-1.9-4.4-2.5-6.7 0.4 3.6 1.3 7.5 3 10.7 4.6 8.5 14 13.4 23.2 12.7 9.1-0.6 17.6-7.2 21.2-16.3z"/><path class="a" d="m51.6 11.3c3.4 4.8 13.4 16.1-0.4 17.5-6.1 0.6-12.4 0.4-18.5 0.6-11.2 0.4-22 1.4-32.2 6.2-0.5 0.3-0.1 1 0.4 0.9 11.7-2.6 23.4-3.9 35.4-4.2 5.7-0.1 14.4 1.3 19.7-1.4 9.3-4.8 2.8-16.3-4.3-19.7-0.1-0.1-0.2 0-0.1 0.1z"/><path class="a" d="m14.7 13.2c2.5-4.7 7.3-7.8 12.3-9.8 5.2-2.1 11-3.2 15.7-3-7.6 7.2-17.6 11.7-28 12.8z"/><path class="a" d="m56.1 31.9c2 4.6 0.5 10.5 0.2 15.4-0.3 6.4-2.5 10.7-7.1 15.2-0.4 0.4 0.2 1.2 0.7 0.8 4.4-2.9 6.9-7.5 7.5-12.7 0.7-5.8 2-13.5-1.1-18.8-0.1-0.1-0.2 0-0.2 0.1z"/><path class="b" d="m99.9 31.3c-7.7-0.4-15.4 1.1-22.4-1.9-1.1 5.6-0.7 11.6 1.4 16.9 3.7 9.5 12.6 16.3 22.1 16.9 9.5 0.7 19.2-4.8 24-13.7 2.4-4.3 3.6-9.5 3.5-14.5-9.6-0.7-19-3.1-28.6-3.7z"/><path fill-rule="evenodd" class="a" d="m102.6 64.2q-0.8 0-1.6 0c-9.9-0.7-19.1-7.8-23-17.6-2.1-5.3-2.6-11.5-1.4-17.4l0.2-1.1 1.1 0.4c3.8 1.7 7.9 1.9 11.8 1.9q1.6 0 3.2-0.1c2.3 0 4.7 0 7.1 0.1 5 0.3 10 1.1 14.9 1.9 4.5 0.7 9.1 1.4 13.7 1.7l0.8 0.1v0.8c0.1 5.4-1.1 10.7-3.6 15.1-4.7 8.6-13.8 14.2-23.2 14.2zm-24.4-33.5c-0.8 5.2-0.3 10.6 1.5 15.3 3.6 9.1 12.2 15.7 21.4 16.3 9.3 0.7 18.5-4.7 23.1-13.2 2.2-3.9 3.3-8.5 3.4-13.3-4.4-0.3-8.8-1-13-1.7-4.8-0.7-9.8-1.5-14.7-1.8-2.4-0.2-4.7-0.1-7-0.1q-1.6 0-3.2 0c-3.7 0-7.7-0.2-11.5-1.5z"/><path class="a" d="m108.3 41.2c0 5.7-4.7 10.4-10.4 10.4-5.7 0-10.3-4.7-10.3-10.4 0-5.7 4.6-10.3 10.3-10.3 5.7 0 10.4 4.6 10.4 10.3z"/><path class="b" d="m98.2 37.5c0 1.8-1.5 3.4-3.4 3.4-1.9 0-3.4-1.6-3.4-3.4 0-1.9 1.5-3.5 3.4-3.5 1.9 0 3.4 1.6 3.4 3.5z"/><path class="c" d="m79.9 46.3c-0.9-2.2-1.5-4.6-1.8-7q0.5 1.7 1.1 3.4c3.7 9.3 12.5 16.1 21.9 16.8 9.3 0.6 18.9-4.8 23.6-13.6 1.2-2.1 2-4.4 2.6-6.7-0.4 3.6-1.3 7.6-3 10.7-4.7 8.5-14.1 13.4-23.2 12.7-9.1-0.6-17.7-7.2-21.2-16.3z"/><path class="a" d="m82.7 11.6c-7.1 3.5-13.6 15-4.3 19.7 5.3 2.8 14.1 1.4 19.7 1.5 12 0.2 23.8 1.5 35.5 4.1 0.4 0.1 0.8-0.6 0.3-0.8-10.3-4.9-20.9-5.7-32.2-6.3-5.4-0.2-10.9-0.3-16.4-0.4-14.9-0.5-6.8-11.4-2.5-17.6 0.1-0.1 0-0.2-0.1-0.2z"/><path class="a" d="m119.7 13.7c-2.5-4.7-7.3-7.8-12.2-9.8-5.3-2.2-11.1-3.3-15.8-3 7.6 7.1 17.6 11.7 28 12.8z"/><path class="a" d="m76.8 33.3c0.3 12.2 1 25.2 12.5 32.4 0.5 0.3 1.1-0.4 0.6-0.9-9-9.2-13-18.5-12.9-31.5 0-0.2-0.2-0.2-0.2 0z"/></svg>