<svg version="1.2" xmlns="http://www.w3.org/2000/svg" viewBox="0 0 128 94" width="128" height="94"><style>.a{fill:#1d1d1b}.b{fill:#fff}.c{fill:#ededed}</style><path class="a" d="m22.5 89.6q0.1 0 0.7-0.8c0.5-0.5 1.1-1.2 2.1-2.1 1-0.8 2.3-2 3.7-3 1.5-1 3.2-2.2 5.1-3.2q1.5-0.8 3-1.6 1.7-0.8 3.4-1.6c2.2-1.1 4.8-1.8 7.4-2.7 1.3-0.5 2.8-0.7 4.1-1 1.4-0.3 2.8-0.8 4.3-0.9q2.2-0.2 4.4-0.5l1.1-0.1c0.2 0 0.3 0 0.6 0h0.6 2.1c1.4 0 3 0.2 4.5 0.3 1.5 0.1 2.9 0.3 4.3 0.5 2.9 0.6 5.7 1.2 8.3 2q2 0.5 3.9 1.2 1.9 0.7 3.6 1.5c2.3 0.9 4.5 2 6.4 3 3.9 2.2 6.8 4.4 8.8 6.1 1 0.8 1.7 1.5 2.2 2.1q0.7 0.8 0.7 0.8l-1.8 1.5q0 0-0.6-0.6c-0.4-0.5-1.1-1.1-2.1-1.9-1.8-1.5-4.8-3.5-8.5-5.4-1.9-0.9-4-1.9-6.2-2.8-2.3-0.9-4.7-1.7-7.2-2.5-2.6-0.7-5.2-1.3-8-1.8-2.7-0.4-5.5-0.7-8.3-0.7h-2.1-0.6-0.5l-1 0.2q-2.1 0.2-4.1 0.4c-1.4 0.1-2.7 0.5-4.1 0.7-1.3 0.4-2.6 0.5-3.9 1-2.5 0.8-4.9 1.5-7.1 2.5q-1.7 0.7-3.3 1.4-1.5 0.8-2.9 1.5c-1.9 0.9-3.5 2-5 2.9-1.4 0.9-2.5 1.9-3.4 2.6-1 0.6-1.7 1.5-2.1 1.9q-0.8 0.7-0.8 0.7z"/><path class="a" d="m27.4 93.9q0.1-0.1 0.1-0.2c0.1-0.2 0-0.4-0.1-0.5-1.3-1.4-2.6-2.9-4-4.2-0.7-0.6-1.2-1.3-1.6-2.2-0.4-1-0.3-1.9-1-2.8-0.4-0.4-1.1-0.2-1.4 0.2-1.2 1.8 0.3 4.7 1.5 6.1 1.5 1.9 3.8 2.6 5.8 3.7 0.2 0.1 0.4 0.2 0.6 0 0 0 0.1 0 0.1-0.1z"/><path class="a" d="m100.1 93.1c3.1 0.6 5.5-0.1 7.5-2.5 0.9-1.1 1.5-2.3 1.9-3.6 0.6-1.6 0.4-2.7-0.5-4.1-0.4-0.5-1.2-0.5-1.5 0-0.5 0.9-1 1.5-1.1 2.5q-0.2 1.3-0.8 2.6c-1 2-3.4 3.4-5.5 4.1-0.4 0.1-0.5 0.9 0 1z"/><path class="a" d="m106.5 17.7c-11.4-2.8-22.1-8-31.3-15.2 6-2.7 13-1.2 19 1.7 5.9 2.9 10.6 7.1 12.3 13.5z"/><path class="b" d="m75.1 35.4c-0.3 4.2 0.4 8.5 1.9 12.4 3.7 9.4 12.6 16.3 22.1 16.9 9.6 0.7 19.2-4.8 24.1-13.7 2-3.7 3.1-7.9 3.4-12.2-8.1-0.1-16.2-0.4-24.3-1.1-9.2 0.1-18.3-0.2-27.2-2.3z"/><path fill-rule="evenodd" class="a" d="m100.7 66.1q-0.8 0-1.6 0c-10.1-0.7-19.4-7.9-23.3-17.8-1.6-4-2.3-8.5-2.1-13l0.1-1.6 1.6 0.4c6.7 1.6 14 2.3 23.5 2.3q1.7 0 3.4 0c7.5 0.6 15.4 1 24.3 1h1.4l-0.1 1.4c-0.3 4.6-1.5 9.1-3.6 12.9-4.8 8.7-14 14.4-23.6 14.4zm-24.3-29.1c0 3.6 0.6 7.2 1.8 10.3 3.6 9 12 15.5 21 16.1 9.1 0.6 18.2-4.6 22.8-13 1.7-3.1 2.7-6.6 3.1-10.3-8.4-0.1-15.9-0.5-22.9-1.1-1 0.1-2.1 0.1-3.3 0.1-9 0-16-0.7-22.5-2.1z"/><path class="a" d="m101.4 37c-3.4 0-6.8-0.1-10.3-0.4-1-0.1-2-0.4-2.8-0.7-1.6 1.8-2.6 4.2-2.6 6.8 0 5.7 4.6 10.4 10.3 10.4 5.8 0 10.4-4.7 10.4-10.4 0-1.8-0.5-3.5-1.3-5q-1.9-0.4-3.7-0.7z"/><path class="b" d="m96.4 38.9c0 1.9-1.6 3.5-3.5 3.5-1.8 0-3.4-1.6-3.4-3.5 0-1.8 1.6-3.4 3.4-3.4 1.9 0 3.5 1.6 3.5 3.4z"/><path class="c" d="m78.4 47.5c-0.8-2.2-1.4-4.6-1.7-7q0.5 1.8 1.1 3.4c3.6 9.4 12.3 16.1 21.6 16.8 9.2 0.7 18.6-4.8 23.4-13.6 1.1-2.1 1.9-4.3 2.4-6.7-0.4 3.6-1.2 7.6-2.9 10.7-4.6 8.6-13.9 13.4-22.9 12.8-9-0.7-17.4-7.3-21-16.4z"/><path class="a" d="m127.4 37.6c-10.6-0.2-21.7-1.7-32.4-2.4-5.5-0.4-11-0.9-16.4-1.8-9.4-1.7 0.1-11.1 2.6-15.2 0.5-0.7-0.2-1.5-1-1.3-10.2 2.7-15.9 17.8-2.6 20.4 7.8 1.6 16.1 1.6 24.1 1.9 8.5 0.2 17.4 1 25.9-0.2 0.8-0.1 0.6-1.4-0.2-1.4z"/><path class="a" d="m19.7 15.4c11.5-2 22.6-6.5 32.3-13-5.9-3.1-12.9-2.1-19.1 0.3-6.1 2.5-11.1 6.5-13.2 12.7z"/><path class="b" d="m53.3 35.4c0.3 4.2-0.3 8.5-1.9 12.4-3.7 9.4-12.6 16.3-22.1 16.9-9.5 0.7-19.2-4.8-24-13.7-2.1-3.7-3.2-7.9-3.4-12.2 8-0.1 16.2-0.4 24.2-1.1 9.2 0.1 18.4-0.2 27.2-2.3z"/><path fill-rule="evenodd" class="a" d="m27.7 66.1c-9.5 0-18.8-5.7-23.6-14.4-2.1-3.8-3.3-8.3-3.6-12.9l-0.1-1.4h1.4c8.9 0 16.8-0.4 24.2-1 1.3 0 2.4 0 3.5 0 9.5 0 16.8-0.7 23.5-2.3l1.6-0.4 0.1 1.6c0.2 4.5-0.5 9-2 13-3.9 9.9-13.3 17.1-23.3 17.8q-0.9 0-1.7 0zm-24.4-26c0.4 3.7 1.5 7.2 3.1 10.3 4.6 8.4 13.7 13.6 22.8 13 9-0.6 17.4-7.1 21-16.1 1.2-3.1 1.9-6.7 1.9-10.3-6.5 1.4-13.6 2.1-22.6 2.1q-1.7 0-3.4-0.1c-6.9 0.6-14.4 1-22.8 1.1z"/><path class="a" d="m27 37c3.4 0 6.8-0.1 10.3-0.4 1.1-0.1 2-0.4 2.8-0.7 1.6 1.8 2.6 4.2 2.6 6.8 0 5.7-4.6 10.4-10.3 10.4-5.7 0-10.4-4.7-10.4-10.4 0-1.8 0.5-3.5 1.4-5q1.8-0.4 3.6-0.7z"/><path class="b" d="m23.6 38.9c0 1.9 1.5 3.5 3.4 3.5 1.9 0 3.4-1.6 3.4-3.5 0-1.8-1.5-3.4-3.4-3.4-1.9 0-3.4 1.6-3.4 3.4z"/><path class="c" d="m50 47.5c0.9-2.2 1.4-4.6 1.7-7q-0.4 1.8-1 3.4c-3.7 9.4-12.3 16.1-21.5 16.8-9.3 0.7-18.6-4.8-23.3-13.6-1.2-2.1-2-4.3-2.5-6.7 0.4 3.6 1.3 7.6 2.9 10.7 4.6 8.6 13.8 13.4 22.8 12.8 9-0.7 17.4-7.3 20.9-16.4z"/><path class="a" d="m0.8 39c15 2 33.5 0.9 48.4-1.4 13.9-2.2 11-17.5-1-20.7-0.7-0.2-1.4 0.6-1 1.3 2.1 3.5 11.7 12.6 3.9 14.9-4.8 1.4-10.3 1.5-15.3 1.9q-7.2 0.6-14.4 0.8c-6.9 0.1-13.6 1.6-20.4 1.8-0.8 0-1 1.3-0.2 1.4z"/></svg>