<svg version="1.2" xmlns="http://www.w3.org/2000/svg" viewBox="0 0 117 118" width="117" height="118"><style>.a{fill:#1d1d1b}.b{fill:#fff}.c{fill:#ededed}</style><path class="a" d="m47.6 112.7c0 0 0.3 0.1 0.9 0.3q0.5 0.1 1.1 0.3 0.6 0.2 1.4 0.3 0.7 0.2 1.5 0.4c0.6 0.1 1.2 0.1 1.8 0.2q0.4 0.1 0.9 0.2 0.5 0 1 0c0.6 0.1 1.3 0.2 1.9 0.2 1.3 0 2.6 0 3.9-0.2 0.6 0 1.2 0 1.7-0.1q0.9-0.1 1.7-0.2c1-0.1 1.8-0.3 2.5-0.3 0.6-0.1 0.9-0.1 0.9-0.1 0 0-0.2 0.2-0.7 0.6q-0.4 0.2-1 0.6c-0.4 0.2-0.8 0.5-1.3 0.7-1 0.4-2.1 1-3.5 1.2-0.7 0.1-1.4 0.3-2.1 0.3q-1.1 0.1-2.2 0.1c-0.7 0-1.4-0.1-2.1-0.2-0.8-0.1-1.5-0.3-2.1-0.5-1.3-0.3-2.5-0.9-3.5-1.5-1-0.5-1.5-1.2-2-1.6-0.5-0.4-0.7-0.7-0.7-0.7z"/><path class="a" d="m96.7 87.3q0 0-0.6 0.8c-0.3 0.5-1 1.3-1.8 2.1-1.7 1.7-4.3 4-7.7 6.2-1.7 1.1-3.6 2.2-5.7 3.3-2.1 1-4.3 2.1-6.8 2.9-2.4 0.8-5 1.5-7.6 2-1.4 0.2-2.7 0.4-4.1 0.5-0.7 0-1.3 0.2-2.1 0.1h-2c-1.3 0-2.8-0.2-4.1-0.3q-2.1-0.2-4.1-0.6c-2.6-0.5-5.2-1.2-7.6-2q-1.8-0.6-3.5-1.4c-1.2-0.4-2.2-0.9-3.3-1.5-2.1-1-4-2.1-5.7-3.1-1.8-1.1-3.3-2.2-4.6-3.2q-1.9-1.6-3.2-2.9c-0.8-0.9-1.5-1.6-1.9-2.1q-0.6-0.8-0.6-0.8l1.5-1.1q0 0 0.6 0.7c0.3 0.4 1 1 1.8 1.8q1.2 1.2 3.1 2.6c1.3 1 2.8 2 4.4 3 1.7 1 3.6 2 5.6 2.9 2.1 1 4.3 1.9 6.6 2.7 2.3 0.8 4.8 1.4 7.3 1.9q1.9 0.3 3.8 0.5c1.3 0.1 2.5 0.3 3.9 0.3h2c0.6 0 1.3-0.1 1.9-0.1 1.3-0.1 2.6-0.3 3.8-0.5 2.5-0.4 5-1.1 7.3-1.9 2.3-0.7 4.5-1.7 6.5-2.6 2-1 3.9-2 5.6-3.1 3.3-2.1 5.9-4.1 7.5-5.7 0.8-0.8 1.3-1.3 1.7-1.8q0.6-0.8 0.6-0.8z"/><path class="a" d="m92.3 83.5c2.2 1.6 4.3 4 3.8 6.9-0.2 1.5 1.9 2.1 2.2 0.6 0.3-1.9 0.1-3.6-0.9-5.3-1-1.6-3.1-2.4-4.8-3-0.5-0.1-0.7 0.5-0.3 0.8z"/><path class="a" d="m23.8 82.7c-1.7 0.6-3.4 1.4-4.6 2.8-1.3 1.5-1.4 3.7-1.1 5.5 0.3 1.5 2.5 0.9 2.2-0.6-0.5-2.9 1.6-5.3 3.9-6.9 0.4-0.3 0.1-0.9-0.4-0.8z"/><path class="a" d="m37.2 15.1c-8.4-0.5-17 2.3-23.7 7.6-0.7 0.5-1.6-0.3-1.2-1.1 2.9-4.5 7.9-9.3 12-10.5 4.6-1.2 9.4 0.1 13.4 2.8 0.5 0.4 0.2 1.2-0.5 1.2z"/><path class="a" d="m91.6 3.2c8.4 1.2 16.3 5.6 21.7 12.1 0.6 0.7 1.7 0 1.4-0.8-1.9-5-5.8-10.7-9.7-12.6-4.2-2.2-9.2-1.8-13.6 0.1-0.6 0.2-0.5 1.1 0.2 1.2z"/><path class="b" d="m69.7 26.5c5.1-6.9 13.4-10.9 21.6-10.4 8.1 0.5 16 5.4 20.4 12.8 5.2 8.6 5.4 20.4 0.5 29.3-4.8 8.8-14.5 14.3-24 13.6-9.5-0.6-18.4-7.4-22.1-16.9-3.7-9.2-2.2-20.6 3.6-28.4z"/><path fill-rule="evenodd" class="a" d="m69 25.9q0 0 1.2-1.5c0.3-0.5 0.8-1.1 1.5-1.8 0.7-0.6 1.4-1.5 2.4-2.2 1.8-1.6 4.3-3.1 7.5-4.4 3.2-1.2 7.1-1.9 11.3-1.4q0.8 0.1 1.5 0.3c0.6 0.1 1.1 0.2 1.6 0.4q0.9 0.2 1.7 0.4 0.8 0.3 1.6 0.7 0.7 0.3 1.5 0.6 0.8 0.5 1.5 0.9c1.1 0.5 2 1.2 3 2 3.8 2.8 7.1 6.9 9 11.6 2 4.8 2.6 10.2 2 15.5-0.6 5.2-2.6 10.4-5.8 14.7-3.3 4.3-7.8 7.5-12.8 9.2-5 1.7-10.4 1.7-15.2 0.1-4.8-1.5-8.9-4.4-12-7.8l-1.1-1.3c-0.4-0.5-0.7-1-1-1.4-0.6-1-1.3-1.8-1.7-2.9-0.5-1-1-1.8-1.4-2.9q-0.5-1.5-0.9-2.9c-1-4-1.3-7.7-0.9-11 0.1-1.6 0.5-3.1 0.7-4.5 0.4-1.4 0.8-2.7 1.2-3.8q0.7-1.6 1.3-2.9c0.4-0.8 0.9-1.5 1.2-2 0.7-1.1 1.1-1.7 1.1-1.7zm1.5 1.2q-0.1 0.2-1 1.5c-0.3 0.5-0.8 1.1-1.2 1.9q-0.5 1.2-1.2 2.7-0.5 1.6-1.1 3.5c-0.3 1.3-0.7 2.7-0.8 4.3-0.3 3.1-0.1 6.7 0.7 10.3q0.5 1.4 0.9 2.9c0.3 0.9 0.9 1.8 1.3 2.7 0.4 1 1 1.8 1.6 2.7 0.3 0.5 0.6 0.9 0.9 1.3l1.1 1.3c2.8 3.3 6.7 6.1 11.2 7.6 4.5 1.5 9.6 1.5 14.4 0 4.7-1.6 9.3-4.6 12.3-8.7 3.2-4.2 4.6-9.3 5-14.3 0.3-5-0.8-10.1-2.7-14.1-2.1-4.4-5.2-7.6-8.7-10-0.8-0.6-1.7-1.2-2.6-1.6q-0.7-0.4-1.3-0.7-0.7-0.3-1.4-0.6-0.7-0.2-1.4-0.5-0.6-0.1-1.3-0.3c-0.4-0.1-0.8-0.2-1.2-0.3q-0.8-0.1-1.5-0.1-0.8-0.1-1.5-0.2c-0.1 0-0.2 0-0.2 0h-0.3-0.6c-0.9 0-1.7 0-2.5 0.1-1.7 0.1-3.2 0.5-4.6 0.8-2.9 0.9-5.3 2-7.1 3.2-1 0.5-1.6 1.2-2.3 1.7-0.7 0.5-1.2 1.1-1.6 1.5q-1.2 1.3-1.3 1.4zm20.5-8.7q0 0 0 0 0 0 0 0 0 0 0 0zm0.1 0q0 0 0 0 0 0 0 0zm-0.1 0c0.2 0 0.1 0 0.1 0q0 0-0.1 0z"/><path class="a" d="m101 46.5c0 5.7-4.6 10.3-10.3 10.3-5.7 0-10.3-4.6-10.3-10.3 0-5.8 4.6-10.4 10.3-10.4 5.7 0 10.3 4.6 10.3 10.4z"/><path class="b" d="m91 42.7c0 1.9-1.5 3.4-3.4 3.4-1.9 0-3.4-1.5-3.4-3.4 0-1.9 1.5-3.4 3.4-3.4 1.9 0 3.4 1.5 3.4 3.4z"/><path class="c" d="m67.1 54.7c-0.8-2.3-1.4-4.6-1.7-7q0.4 1.7 1.1 3.3c3.6 9.4 12.4 16.2 21.8 16.8 9.4 0.7 18.9-4.8 23.7-13.6 1.2-2.1 2-4.3 2.5-6.7-0.4 3.6-1.3 7.6-3 10.7-4.6 8.6-14 13.4-23.1 12.8-9.1-0.7-17.7-7.2-21.3-16.3z"/><path class="a" d="m0.7 53.3c12.3-2.5 27.7-2.7 39.3 2.4 2.1 0.9 3.4-2 1.2-2.9-12.7-5.3-27.8-4.8-40.5 0.1-0.3 0.1-0.2 0.4 0 0.4z"/><path class="a" d="m18.2 69.1c5.7-0.5 11-1.8 15.9-4.7 2.9-1.7 9.4-6.6 7.5-10.5-0.2-0.3-0.7-0.5-1-0.4-1.4 0.4-1.6 0.8-2.3 2-1.3 2.6-3.6 4.5-6 6-4.2 2.9-9.3 4.6-14.3 5.7-1.1 0.2-0.8 2 0.2 1.9z"/><path class="a" d="m22.6 36.3c4.2 1.4 7.8 3.6 11.1 6.6 1.4 1.4 2.5 3.1 3.5 4.9 1 2 0.9 3.9 1.3 6.1 0.3 2.2 4.1 1.7 3.8-0.5-1.3-10.1-10.3-16.1-19.7-17.3-0.1 0-0.1 0.1 0 0.2z"/></svg>