<svg version="1.2" xmlns="http://www.w3.org/2000/svg" viewBox="0 0 127 84" width="127" height="84"><style>.a{fill:#1d1d1b}.b{fill:#fff}.c{fill:#ededed}</style><path class="a" d="m92.1 76.7c-0.5 0.3-1 0.6-1.6 1q-0.2-0.8-0.8-2.5-0.4-1.5-1.2-3.5c-0.6-1.3-1.3-2.8-2.2-4.3-0.9-1.5-2.2-3.2-3.6-4.5-0.7-0.8-1.6-1.4-2.5-2-0.9-0.6-1.8-1.2-2.9-1.6-2-1-4.3-1.6-6.6-1.9l-1.8-0.1h-1.8c-1.2 0-2.2 0.1-3.5 0.3-2.4 0.3-4.6 1.1-6.8 2-2.1 0.9-4.1 2-5.9 3.2-1.9 1.3-3.6 2.5-5 3.9q-1.1 1-2.2 2c-0.6 0.7-1.2 1.3-1.8 2-1.3 1.2-2.3 2.4-3.2 3.5q-1.4 1.6-2.3 2.8c-0.4 0.6-0.8 1.1-1.1 1.5-0.4-0.3-0.9-0.6-1.1-0.9-0.4-0.7-1.4-0.5-1.7 0.2-0.7 2.3 1.5 4.9 3.6 5.7 2.1 0.7 3.4-2.6 1.5-3.7q-0.3-0.1-0.5-0.2 0.5-0.5 1.1-1.1 1.1-1.1 2.6-2.5 1.5-1.5 3.4-3.1c0.6-0.6 1.3-1.2 2-1.8q1-0.8 2.1-1.6 0.6-0.5 1.1-0.9 0.6-0.4 1.2-0.9c0.9-0.6 1.7-1 2.5-1.5 1.7-1 3.5-2 5.4-2.7 1.9-0.6 3.9-1.2 5.8-1.5l0.4-0.1c0 0 0.2 0 0.2 0l0.9-0.1c0.6 0 1.2-0.1 1.6-0.1l1.3 0.1c0.5 0 1 0.1 1.4 0.1 1.9 0.2 3.8 0.7 5.4 1.4 0.9 0.3 1.6 0.7 2.3 1.1 0.7 0.5 1.5 1 2 1.4q0.6 0.5 1.1 0.9c0.3 0.3 0.5 0.6 0.8 0.8 0.5 0.5 1 1.2 1.5 1.8 0.5 0.6 0.9 1.2 1.3 1.8 0.4 0.6 0.8 1.2 1.2 1.8 0.7 1.1 1.3 2.2 1.7 3.1 0.7 1.3 1.2 2.2 1.4 2.6q-0.4 0.2-0.7 0.5c-0.2 0.1-0.2 0.3 0 0.4 0.8 0.6 1.3 0.6 2.3 0.5 1-0.2 2.1-0.6 3-1.1 1.4-0.9 0.2-3-1.3-2.2z"/><path class="a" d="m64.7 74.4c-4.2 0.8-7.3 2.9-10.4 5.7 0 0 0.1 0.2 0.1 0.1 4.4-2.4 10.7-5.7 15.8-3.9 0.5 0.2 1-0.5 0.7-0.9-1.4-1.9-4.2-1.3-6.2-1z"/><path class="b" d="m27.4 28.3c-6.7-4-15.6-9.3-20.8-15.6-0.6 0.8-1 0.4-1.5 1.3-5.2 9-5.3 20.1-0.5 28.6 4.8 8.6 14.1 14.1 23.4 13.4 9.3-0.6 18-7.3 21.7-16.5 1-2.7 1.6-5.5 1.8-8.4-7.4 4.7-17.4 1.1-24.1-2.8z"/><path fill-rule="evenodd" class="a" d="m26.5 57c-9.1 0-18.1-5.5-22.8-13.9-4.9-8.9-4.7-20.4 0.6-29.6 0.4-0.7 0.8-0.9 1.1-1 0.2-0.1 0.3-0.1 0.4-0.3l0.7-1 0.8 0.9c5.2 6.3 14.1 11.5 20.6 15.4 3.1 1.8 9.2 4.9 15.4 4.9 3 0 5.5-0.7 7.7-2.1l1.6-1-0.1 1.9c-0.3 3-0.9 5.9-1.9 8.6-3.8 9.6-12.9 16.5-22.5 17.1q-0.8 0.1-1.6 0.1zm-20-43q-0.2 0.1-0.3 0.2c-0.2 0.1-0.2 0.1-0.3 0.3-4.9 8.5-5.1 19.4-0.5 27.7 4.6 8.3 13.6 13.5 22.6 12.9 8.9-0.6 17.3-7.1 20.8-16q1.2-3 1.6-6.3-3.2 1.4-7.1 1.5c-6.6 0-13.1-3.3-16.4-5.2-6.3-3.8-15-8.9-20.4-15.1z"/><path class="c" d="m49.2 38.7c0.8-2.2 1.3-4.5 1.6-6.9-0.3 1.1-0.8 2.6-1.3 3.7-3.6 9.4-12.3 16.2-21.5 16.8-9.3 0.7-18.7-4.8-23.4-13.6-1.1-2.1-1.9-4.4-2.5-6.7 0.4 3.6 1.2 7 2.9 10.1 4.5 8.6 13.9 14.1 22.9 13.4 9-0.6 17.7-7.6 21.3-16.8z"/><path class="a" d="m24.5 27c-0.7-0.5-1.2-1.1-1.7-1.8-1.9 1.9-3.1 4.5-3.1 7.4 0 5.7 4.6 10.3 10.3 10.3 5.6 0 10.2-4.5 10.3-10.1-5.6 0.1-11.4-2.2-15.8-5.8z"/><path class="b" d="m29.9 30.1c0 1.8-1.5 3.4-3.4 3.4-1.9 0-3.4-1.6-3.4-3.4 0-1.9 1.5-3.5 3.4-3.5 1.9 0 3.4 1.6 3.4 3.5z"/><path class="a" d="m3.4 8.7c8.5 12.2 20.6 20.6 34.8 25 6.6 2.1 21.4 2.9 18.6-8.2-0.2-0.8-1.4-0.9-1.8-0.2-10.4 18.1-43.2-8-51.2-17-0.2-0.2-0.6 0.1-0.4 0.4z"/><path class="a" d="m48.7 18.9c-5.2-7.4-11.9-13.6-19.5-18.2-0.3 5.1 2.7 9.7 6.4 13.1 3.7 3.4 8.1 5.7 13.1 5.1z"/><path class="b" d="m99 28.3c6.8-4 15.6-9.3 20.9-15.6 0.6 0.8 0.9 0.4 1.4 1.3 5.2 9 5.3 20.1 0.6 28.6-4.8 8.6-14.2 14.1-23.5 13.4-9.3-0.6-18-7.3-21.7-16.5-1-2.7-1.6-5.5-1.8-8.4 7.4 4.7 17.4 1.1 24.1-2.8z"/><path fill-rule="evenodd" class="a" d="m99.9 57q-0.8 0-1.6-0.1c-9.6-0.6-18.6-7.5-22.4-17.1-1.1-2.7-1.7-5.6-1.9-8.6l-0.2-1.9 1.6 1c2.2 1.4 4.8 2.1 7.7 2.1 6.2 0 12.3-3.1 15.4-4.9 6.5-3.9 15.4-9.1 20.6-15.4l0.8-0.9 0.7 1c0.1 0.2 0.2 0.2 0.4 0.3 0.3 0.1 0.7 0.3 1.2 1 5.2 9.2 5.4 20.7 0.5 29.6-4.7 8.4-13.7 13.9-22.8 13.9zm-23.9-24.2q0.4 3.3 1.6 6.3c3.5 8.9 11.9 15.4 20.9 16 8.9 0.6 17.9-4.6 22.5-12.9 4.7-8.3 4.5-19.2-0.5-27.7-0.1-0.2-0.1-0.2-0.3-0.3q-0.1-0.1-0.2-0.2c-5.5 6.2-14.1 11.3-20.5 15.1-3.3 1.9-9.8 5.2-16.4 5.2q-3.9-0.1-7.1-1.5z"/><path class="c" d="m77.3 38.7c-0.9-2.2-1.4-4.5-1.7-6.9 0.3 1.1 0.9 2.6 1.3 3.7 3.6 9.4 12.3 16.2 21.5 16.8 9.3 0.7 18.7-4.8 23.4-13.6 1.1-2.1 1.9-4.4 2.5-6.7-0.4 3.6-1.2 7-2.8 10.1-4.6 8.6-14 14.1-23 13.4-9-0.6-17.7-7.6-21.2-16.8z"/><path class="a" d="m101.9 27c0.7-0.5 1.2-1.1 1.8-1.8 1.9 1.9 3.1 4.5 3.1 7.4 0 5.7-4.7 10.3-10.4 10.3-5.6 0-10.2-4.5-10.3-10.1 5.7 0.1 11.4-2.2 15.8-5.8z"/><path class="b" d="m96.5 30.1c0 1.8 1.5 3.4 3.4 3.4 1.9 0 3.4-1.6 3.4-3.4 0-1.9-1.5-3.5-3.4-3.5-1.9 0-3.4 1.6-3.4 3.5z"/><path class="a" d="m122.6 8.3c-8 9-40.8 35.1-51.2 17-0.4-0.7-1.5-0.6-1.7 0.2-2.7 10.3 10.1 10.3 16.6 8.8 14.9-3.4 28.2-13.4 36.8-25.6 0.1-0.3-0.3-0.6-0.5-0.4z"/><path class="a" d="m77.8 18.9c5.1-7.4 11.8-13.6 19.5-18.2 0.2 5.1-2.8 9.7-6.5 13.1-3.7 3.4-8 5.7-13 5.1z"/><path class="a" d="m47.1 43.7c-3 4.1-4.9 8.2-8.9 11.7-4.5 4.1-11.2 4.7-16.9 5.4-0.6 0.1-0.6 0.8 0 0.9 5.6 0.5 10.5 0 15.5-2.8 2.5-1.4 4.6-3.7 6.5-5.8 2.3-2.6 2.7-6.2 4.2-9.2 0.2-0.3-0.2-0.5-0.4-0.2z"/><path class="a" d="m76.8 40.7c1.2 5.8 3.3 9.7 7.8 13.8 3.8 3.5 8.9 6.9 14 8.2 0.5 0.1 0.8-0.5 0.4-0.8-4-2.8-8.5-4.7-12.4-7.8-4.1-3.3-8.3-8.3-9.6-13.5 0-0.1-0.2 0-0.2 0.1z"/></svg>