<svg version="1.2" xmlns="http://www.w3.org/2000/svg" viewBox="0 0 121 123" width="121" height="123"><style>.a{fill:#1d1d1b}.b{fill:#fff}.c{fill:#ededed}.d{fill:#db5b54}</style><path class="a" d="m29.3 5.7c-8.5 0.6-16.7 4.5-22.6 10.6-0.6 0.6-1.7-0.1-1.3-0.9 2.3-4.9 6.6-10.3 10.5-11.9 4.4-1.9 9.4-1.2 13.6 0.9 0.6 0.3 0.4 1.2-0.2 1.3z"/><path class="b" d="m47.9 32.8c-5.1-6.9-13.4-10.9-21.5-10.4-8.2 0.4-16.1 5.3-20.5 12.7-5.1 8.7-5.3 20.5-0.5 29.3 4.8 8.9 14.5 14.4 24 13.7 9.5-0.7 18.4-7.5 22.2-16.9 3.6-9.3 2.1-20.6-3.7-28.4z"/><path fill-rule="evenodd" class="a" d="m48.7 32.2c0 0 0.3 0.6 1 1.7 0.3 0.5 0.8 1.1 1.2 2q0.6 1.2 1.4 2.8c0.4 1.2 0.7 2.4 1.2 3.8 0.2 1.4 0.6 2.9 0.8 4.6 0.3 3.2 0.1 7-0.8 11q-0.5 1.5-0.9 2.9c-0.4 1.1-0.9 2-1.4 3-0.4 1.1-1.1 2-1.7 2.9-0.3 0.5-0.6 1-1 1.4l-1.1 1.4c-3.1 3.5-7.2 6.5-12.1 8.1-4.8 1.7-10.5 1.6-15.5-0.3-5.1-1.8-9.4-5.2-12.8-9.5-3.2-4.2-5.3-9.5-5.9-14.8-0.6-5.3-0.1-10.7 1.9-15.7 1.8-4.7 5.1-9 9-11.9 0.9-0.8 1.9-1.5 3-2q0.8-0.5 1.5-0.9 0.8-0.3 1.6-0.7 0.8-0.3 1.6-0.6 0.9-0.3 1.7-0.5c0.6-0.1 1.2-0.3 1.7-0.4q0.8-0.1 1.5-0.2 0.7-0.1 1.5-0.2c0.3-0.1 0.1-0.1 0.2-0.1 0.1 0 0.3 0 0.3 0l0.4 0.1h0.8c1 0 2.1 0 3 0.2 1 0.2 2 0.3 2.8 0.6 0.9 0.3 1.8 0.6 2.6 0.9 3.2 1.3 5.7 3.1 7.5 4.7 0.9 0.7 1.6 1.7 2.3 2.3 0.7 0.7 1.1 1.3 1.5 1.8 0.7 1 1.1 1.5 1.1 1.5zm-1.5 1.2q0 0 0 0 0 0 0 0zm-1.2-1.3c-0.4-0.5-0.9-1.1-1.6-1.6-0.7-0.5-1.3-1.2-2.2-1.8-1.8-1.3-4.2-2.5-7.1-3.5-2.9-0.8-6.3-1.3-9.9-0.9q-0.7 0.1-1.5 0.1c-0.5 0.1-0.9 0.2-1.3 0.4q-0.7 0.1-1.4 0.3-0.7 0.2-1.4 0.5-0.7 0.3-1.4 0.5-0.7 0.4-1.4 0.7c-0.9 0.5-1.8 1.1-2.7 1.7-3.5 2.5-6.6 5.9-8.6 10.3-2 4.2-2.9 9.3-2.6 14.4 0.4 5 1.8 10.2 5.1 14.3 3.1 4.1 7.5 7.4 12.3 9 4.8 1.7 10.1 1.8 14.7 0.1 4.6-1.5 8.5-4.4 11.4-7.8l1-1.3c0.4-0.4 0.6-0.9 0.9-1.3 0.6-1 1.2-1.8 1.6-2.8 0.4-0.9 1-1.9 1.2-2.8q0.5-1.4 0.9-2.8c0.8-3.8 1-7.3 0.6-10.5-0.1-1.5-0.5-2.9-0.8-4.3q-0.6-1.9-1.1-3.5-0.8-1.5-1.3-2.7c-0.4-0.8-0.9-1.3-1.2-1.8q-0.8-1.4-0.9-1.6-0.2-0.1-1.3-1.3z"/><path class="c" d="m50.9 60.7c0.9-2.3 1.5-4.7 1.7-7.1-0.2 1.1-0.8 2.6-1.3 3.8-3.7 9.6-12.6 16.5-22 17.2-9.5 0.7-19.1-4.9-23.9-13.9-1.2-2.2-2-4.5-2.6-6.9 0.5 3.7 1.2 7.2 2.9 10.4 4.7 8.7 14.3 14.3 23.5 13.7 9.2-0.7 18.1-7.9 21.7-17.2z"/><path class="a" d="m42.8 56.1c0 5.7-4.6 10.3-10.3 10.3-5.7 0-10.3-4.6-10.3-10.3 0-5.7 4.6-10.4 10.3-10.4 5.7 0 10.3 4.7 10.3 10.4z"/><path class="b" d="m32.8 52.3c0 1.9-1.5 3.4-3.4 3.4-1.9 0-3.4-1.5-3.4-3.4 0-1.9 1.5-3.4 3.4-3.4 1.9 0 3.4 1.5 3.4 3.4z"/><path class="a" d="m90.1 3.5c8.5 0.6 16.7 4.5 22.5 10.6 0.7 0.6 1.7-0.1 1.4-0.9-2.3-4.9-6.6-10.3-10.5-12-4.4-1.8-9.4-1.1-13.6 1-0.6 0.3-0.4 1.2 0.2 1.3z"/><path class="b" d="m115.4 35.4c-3.5-5.9-7.8-9.5-14.2-11.2-3.6 2-8.5 4-12.1 5.9-5.5 3-10.9 5-16.9 4.6-4.8 7.8-5.8 18.2-2.4 26.7 3.7 9.5 12.6 16.3 22.1 17 9.5 0.6 19.2-4.9 24-13.7 4.9-8.9 4.6-20.6-0.5-29.3z"/><path fill-rule="evenodd" class="a" d="m93.5 79.4q-0.8 0-1.6-0.1c-9.9-0.7-19.1-7.7-23-17.5-3.5-8.8-2.5-19.6 2.6-27.6l0.2-0.4h0.6c5.1 0.3 9.8-1 16.4-4.5 1.6-0.9 3.5-1.8 5.5-2.7 2.3-1.1 4.6-2.2 6.6-3.2l0.3-0.2 0.4 0.1c6.4 1.7 10.9 5.3 14.7 11.6 5.3 9 5.5 21.1 0.5 30.2-4.7 8.7-13.8 14.3-23.2 14.3zm-20.8-43.7c-4.4 7.4-5.2 17.3-2.1 25.4 3.6 9.1 12.2 15.7 21.4 16.4 9.2 0.6 18.5-4.7 23.1-13.3 4.7-8.5 4.5-19.9-0.5-28.3-3.4-5.8-7.5-9.1-13.2-10.7-2 1-4.2 2.1-6.4 3.1-2 0.9-3.8 1.8-5.4 2.7-4.4 2.3-10.2 5-16.9 4.7z"/><path class="a" d="m99.2 56.4c0 5.7-4.7 10.3-10.4 10.3-5.7 0-10.3-4.6-10.3-10.3 0-5.7 4.6-10.4 10.3-10.4 5.7 0 10.4 4.7 10.4 10.4z"/><path class="b" d="m89.1 52.6c0 1.9-1.5 3.4-3.4 3.4-1.9 0-3.4-1.5-3.4-3.4 0-1.9 1.5-3.4 3.4-3.4 1.9 0 3.4 1.5 3.4 3.4z"/><path class="c" d="m70.8 61.2c-0.9-2.2-1.4-4.6-1.7-7q0.4 1.7 1 3.3c3.7 9.4 12.5 16.2 21.9 16.9 9.4 0.6 18.9-4.9 23.7-13.6 1.1-2.1 1.9-4.4 2.5-6.7-0.4 3.6-1.3 7.5-3 10.7-4.6 8.5-14 13.4-23.1 12.7-9.2-0.6-17.7-7.2-21.3-16.3z"/><path class="a" d="m119.6 20.2c-8.6-0.9-15.5 1.1-23.3 4.5-12.3 5.5-27 16.4-35.1-1.1-0.1-0.4-0.8-0.4-1 0-2.8 6.3 4.1 12.9 10.5 13.2 6.5 0.3 12.4-2.1 18.2-4.9 10.3-4.9 19.2-9.5 30.7-11 0.4 0 0.4-0.6 0-0.7z"/><path class="a" d="m96.6 110.3c-0.3-3.1-2.7-5.6-5.2-7.5-8.6-6.8-19.5-10.5-30.4-10.5-11 0-21.9 3.7-30.5 10.5-1.9 1.5-3.7 3.2-4.8 5.3-1.1 2.2-1.2 5 0.2 7 1.3 2 3.9 2.8 6.3 2.8 2.4-0.1 4.8-0.8 7.1-1.5 11.4-3.2 23.6-3.2 35 0 4.4 1.3 8.8 3 13.4 2.6 4.6-0.5 9.3-4.1 8.9-8.7z"/><path class="d" d="m49.5 104.8q-0.5 0.3-1 0.7-1.5 1.2-2.6 2.8c-0.8 1.1-1.3 2.3-1.8 3.5 8.9-2.3 18.5-2.3 27.4 0.2 1.9 0.6 3.8 1.2 5.8 1.7-0.2-1.4-1.2-2.9-1.8-3.9-5.1-8.4-18-10.2-26-5z"/><path class="a" d="m43.7 121c4.5-1.2 9.3-1.4 13.9-1.2 4.9 0.2 9 2.1 13.7 3 0.5 0 1.1-0.6 0.6-1.1-7-5.9-20.8-5.2-28.4-1.2-0.2 0.2 0 0.6 0.2 0.5z"/></svg>