<svg version="1.2" xmlns="http://www.w3.org/2000/svg" viewBox="0 0 109 113" width="109" height="113"><style>.a{fill:#1d1d1b}.b{fill:#fff}.c{fill:#db5b54}</style><path class="a" d="m76.7 3.5c10 2.2 19.2 8.3 25.2 16.7 0.6 0.9 2 0.2 1.7-0.9-1.8-6.2-6-13.4-10.5-16.1-5-3-11-3.1-16.5-1.3-0.8 0.3-0.7 1.4 0.1 1.6z"/><path class="a" d="m65.1 40.5c9.1-18.8 29.7-13.3 42.3-1.7 0.4 0.4 1.1-0.1 0.8-0.6-4.8-8.4-15.6-13.1-25-13.2-8.5-0.1-18.5 6.3-18.4 15.4 0 0.2 0.2 0.2 0.3 0.1z"/><path class="a" d="m31.8 3.5c-10.1 2.2-19.2 8.3-25.2 16.7-0.7 0.9-2.1 0.2-1.8-0.9 1.9-6.2 6.1-13.4 10.5-16.1 5-3 11-3.1 16.5-1.3 0.8 0.3 0.7 1.4 0 1.6z"/><path class="a" d="m43.6 40.4c0.1-8.5-8.3-14.3-16.2-15.2-10-1.1-22 4-27.2 13-0.3 0.5 0.4 1 0.8 0.6 12.7-11.6 33.2-17.1 42.3 1.7 0.1 0.1 0.3 0.1 0.3-0.1z"/><path class="a" d="m102.2 65.8c-3.1-4.8-9-7.5-16.3-7.5q-1.4 0-2.8 0.2c-3.1 0.3-6.2 1-9.1 1.6-3.2 0.8-6.2 1.4-9.2 1.7-5.7 0.4-11.6-0.9-16.6-2.1l-2.2-0.5c-5-1.2-10.2-2.4-15.5-2.7q-1.1-0.1-2.1-0.1c-6.4 0-12.1 1.6-16.4 4.7-6 4.2-9.2 11.4-7.9 17.8 1.3 6.3 6.1 11.5 14.9 15.9 11.3 5.6 23.6 8.7 35.4 8.9h1c12.5 0 24.4-3.1 34.5-9.1 5.9-3.4 9.8-7.1 12.2-11.4 3.3-5.7 3.3-12.6 0.1-17.4z"/><path class="b" d="m52.9 76c15.1 0.2 30.1-4.4 42.6-12.8-3.6-1.9-8-2.5-12.2-2.1-6.1 0.6-12.1 2.9-18.3 3.3-5.9 0.5-11.7-0.7-17.4-2.1-5.7-1.3-11.4-2.8-17.3-3.2-5.8-0.3-12 0.8-16.7 4.2q-0.3 0.1-0.5 0.3c11.8 7.8 25.7 12.2 39.8 12.4z"/><path class="c" d="m54.5 101c9.4 0.1 18.8-1.6 27.4-5.3-0.5-1.7-2-3-3.5-4.1-12.4-8.6-29.1-10.7-43.2-5.4-3.1 1.2-6.1 2.7-8.9 4.5-1.3 0.8-2.6 1.7-3 3.1 9.8 4.5 20.4 7.1 31.2 7.2z"/><path class="a" d="m68 108.9c-4.7 1.2-9 1.8-13.8 1.4-4.9-0.4-9.4-2-14.3-1.4-0.5 0-0.8 0.7-0.3 0.9 7.9 3.5 21.3 5.1 28.6-0.5 0.2-0.2 0-0.5-0.2-0.4z"/><path class="a" d="m54.8 76c0-2.7-0.4-5.4-0.5-8q-0.1-2.1 0-4.3-1.1-0.1-2.1-0.4c-0.9 4.2-1.2 8.6-0.6 12.6 0.5 0 0.9 0.1 1.3 0.1q0.9 0 1.9 0z"/></svg>