<svg version="1.2" xmlns="http://www.w3.org/2000/svg" viewBox="0 0 161 94" width="161" height="94"><style>.a{fill:#1d1d1b}.b{fill:#fff}.c{fill:#db5b54}.d{fill:#c0d8ff}</style><path class="a" d="m118.1 66.7c-5.4-10.5-15.1-18.5-26.5-22-11.1-3.4-23.8-2.3-34.3 3-10.4 5.2-18.8 14.5-23.1 25.5-0.8 2-1.6 4.5-1.5 7.2 0.1 3.1 1.5 6 3.8 7.6q2.2 1.5 5.1 1.5c2 0 4.1-0.5 6.7-1.5 1.9-0.8 3.8-1.6 5.7-2.5 3.3-1.5 6.4-2.8 9.7-3.8 3.1-1 12.8-1.7 16.5-1.7q0.4 0 0.6 0c9 0.5 15.4 2.6 23.4 5.6l0.4 0.2c1.8 0.7 4 1.5 6.3 1.5 2.3 0 4.4-0.8 6.2-2.4 1.3-1.1 2.3-2.6 2.9-4.2 1.9-5.5-0.2-10.6-1.9-14z"/><path class="a" d="m111.5 3.6c10.1 2.2 19.2 8.3 25.2 16.7 0.6 0.9 2 0.2 1.7-0.9-1.8-6.2-6-13.5-10.5-16.1-4.9-3.1-11-3.1-16.5-1.3-0.7 0.3-0.7 1.4 0.1 1.6z"/><path class="a" d="m100 40.6c9-18.8 29.6-13.3 42.2-1.7 0.5 0.4 1.2-0.1 0.9-0.6-4.9-8.5-15.6-13.1-25.1-13.2-8.5-0.1-18.4 6.3-18.4 15.4 0 0.1 0.3 0.2 0.4 0.1z"/><path class="a" d="m55.4 3.6c-10 2.2-19.2 8.3-25.1 16.7-0.7 0.9-2.1 0.2-1.8-0.9 1.9-6.2 6.1-13.5 10.5-16.1 5-3.1 11-3.1 16.5-1.3 0.8 0.3 0.7 1.4-0.1 1.6z"/><path class="a" d="m67.3 40.5c0.1-8.5-8.3-14.3-16.2-15.2-10.1-1.1-22.1 4-27.2 13-0.3 0.5 0.4 1 0.8 0.6 12.7-11.6 33.2-17.1 42.3 1.7 0.1 0.1 0.3 0 0.3-0.1z"/><path class="a" d="m65.6 40.8c-1.1-2.7-5.4-3.1-7.9-3.9-4.8-1.5-11.1 0-15.4 2-0.3 0.2-0.1 0.5 0.2 0.5 4-0.7 8-1.2 12.1-1 2.8 0.1 8.3 0.9 10.8 2.6 0.1 0 0.2-0.1 0.2-0.2z"/><path class="a" d="m102.9 40.9c3.5 0.3 7.2-0.4 10.8-0.3 4.4 0.1 8.4 1.3 12.6 2.2 0.3 0.1 0.5-0.3 0.2-0.4-6.6-3.8-16.5-5-23.6-1.6-0.1 0-0.1 0.1 0 0.1z"/><path class="a" d="m57 93.3c11.4-5.8 23.8-2.1 35.3 0.6 0.5 0.2 0.8-0.5 0.3-0.8-9.6-5.2-26.4-6.8-35.7 0-0.1 0.1 0 0.3 0.1 0.2z"/><path class="b" d="m63.1 48.1c-0.1 1.9 0.1 3.9 1 5.6 0.9 1.8 2.5 3.3 4.5 3.6 2.4 0.4 4.8-0.9 6.6-2.6 2.5-2.5 4-5.8 4.4-9.3-5.6-0.1-11.3 0.8-16.5 2.7z"/><path class="b" d="m58.5 50.1c-2.7 1.3-5.2 2.9-7.5 4.8 0.1 1 0.6 2 1.3 2.7 1.2 1.2 3.1 1.8 4.8 1.4 2.1-0.6 3.7-2.5 4.5-4.6 0.8-2 1-4.2 1.4-6.3q-2.3 0.9-4.5 2z"/><path class="b" d="m109.3 58.9c-3.3-3.5-7.1-6.5-11.3-8.7-0.3 2.5-0.5 5.1 0.2 7.5 0.9 2.5 3.1 4.8 5.8 4.7 2.2-0.1 3.9-1.7 5.3-3.5z"/><path class="b" d="m81.6 54.8c1.4 2.9 4.5 5.3 7.7 5 2.4-0.2 4.4-1.7 5.8-3.6 1.3-1.8 2.1-3.9 2.8-6-2.2-1.2-4.6-2.2-7.1-3-3.6-1.1-7.4-1.7-11.2-1.8 0.2 3.2 0.5 6.5 2 9.4z"/><path class="c" d="m82.2 67.6c-8.3-1.3-17.3 2.4-22.3 9.3-1 1.2-1.8 2.7-2.4 4.2 1.8-0.7 3.6-1.4 5.4-2 4-1.1 15.5-1.8 18.1-1.7 7.4 0.4 13.2 1.9 19.3 4-3.3-7.2-10.3-12.6-18.1-13.8z"/><path class="a" d="m31.8 92c-0.5-1.8-2.1-3-3-4.7-1.2-2.2-1.4-4.7-2.1-7.1-0.1-0.5-0.8-0.4-1 0-1.1 2.6-0.1 5.1 1.2 7.4 1 1.8 2.6 4.3 4.8 4.5 0 0 0.1 0 0.1-0.1z"/><path class="a" d="m124.5 79.4c-0.4 1.8-1.1 3.3-2 4.9-0.9 1.6-2.5 2.3-3.2 4-0.1 0.4 0.2 0.9 0.6 1 2.3 0.5 3.6-1.4 4.8-3.2 1.2-1.9 1.4-4.3 1.2-6.5-0.1-0.8-1.3-1.1-1.4-0.2z"/><path class="d" d="m150.5 61.6c0.1-3.1-1.3-6.2-3.7-8.2 0 1.7-0.8 3.2-1.5 4.6-0.7 1.4-1.5 2.9-1.6 4.5-0.1 1.6 0.8 3.4 2.4 3.8 1.2 0.3 2.5-0.3 3.3-1.3 0.7-0.9 1-2.2 1.1-3.4z"/><path class="d" d="m144.7 85.7c0.1-3.1-1.3-6.2-3.8-8.1 0.1 1.6-0.7 3.1-1.4 4.5-0.8 1.5-1.6 2.9-1.6 4.5-0.1 1.7 0.8 3.4 2.3 3.8 1.2 0.3 2.5-0.3 3.3-1.2 0.8-1 1.1-2.2 1.2-3.5z"/><path class="d" d="m160.2 76.8c0.2-3.1-1.2-6.2-3.7-8.2 0 1.6-0.7 3.1-1.5 4.6-0.7 1.4-1.5 2.9-1.5 4.5-0.1 1.6 0.8 3.4 2.3 3.8 1.2 0.3 2.5-0.3 3.3-1.3 0.8-0.9 1.1-2.2 1.1-3.4z"/><path class="d" d="m12.8 56.9c0.6-3 2.7-5.7 5.5-7-0.4 1.5 0 3.2 0.4 4.7 0.4 1.6 0.8 3.2 0.5 4.8-0.3 1.6-1.6 3.1-3.2 3.1-1.3 0-2.4-0.8-2.9-2-0.5-1.1-0.5-2.4-0.3-3.6z"/><path class="d" d="m0.3 72.9c0.6-3.1 2.7-5.8 5.5-7-0.3 1.5 0 3.2 0.4 4.7 0.4 1.6 0.8 3.2 0.5 4.8-0.3 1.6-1.6 3.1-3.2 3.1-1.2 0-2.4-0.9-2.9-2-0.5-1.1-0.5-2.4-0.3-3.6z"/><path class="d" d="m12.8 84.1c0.6-3 2.7-5.7 5.5-7-0.4 1.5 0 3.2 0.4 4.7 0.4 1.6 0.8 3.2 0.5 4.8-0.3 1.6-1.6 3.1-3.2 3.1-1.3 0-2.4-0.9-2.9-2-0.5-1.1-0.5-2.4-0.3-3.6z"/></svg>