<svg version="1.2" xmlns="http://www.w3.org/2000/svg" viewBox="0 0 114 114" width="114" height="114"><style>.a{fill:#1d1d1b}.b{fill:#db5b54}.c{fill:#fff}</style><path class="a" d="m78.4 4.6c8.5-0.5 17.1 2.3 23.8 7.6 0.7 0.6 1.6-0.3 1.2-1.1-2.9-4.5-7.9-9.3-12-10.4-4.6-1.3-9.4 0-13.4 2.7-0.5 0.4-0.2 1.3 0.4 1.2z"/><path class="a" d="m114.1 47.9c-11-8.2-25.4-12.8-39.1-11.2-2.2 0.3-1.8 3.5 0.5 3.2 12.5-1.8 27.2 2.6 38.4 8.3 0.2 0.1 0.3-0.2 0.2-0.3z"/><path class="a" d="m93.5 56.9c-4.2-2.3-8-5.1-11.4-8.5-1.9-1.8-3.4-4-4.4-6.4-0.7-1.8-0.5-3.4-2.2-4.4-0.4-0.2-0.8-0.2-1.1 0.1-3 2.9 1.8 9.1 3.8 11.5 3.7 4.6 9.1 7.4 14.5 9.5 1.1 0.4 1.7-1.3 0.8-1.8z"/><path class="a" d="m97.5 25.7c-9.5-1.4-18.9 1.8-23.4 10.9-1.3 2.5 2.5 4.1 3.5 1.5 3.3-8.3 11.4-11.7 19.9-12.2 0.1 0 0.1-0.2 0-0.2z"/><path class="a" d="m36.2 4.6c-8.5-0.5-17.1 2.3-23.7 7.6-0.7 0.6-1.7-0.3-1.2-1.1 2.9-4.5 7.8-9.3 12-10.4 4.6-1.3 9.4 0 13.3 2.7 0.6 0.4 0.3 1.3-0.4 1.2z"/><path class="a" d="m0.5 47.4c11.5-5.3 26.3-8.9 38.8-6.7 2 0.3 2.9-2.8 0.9-3.1-13.8-2.1-28.4 1.6-39.8 9.5-0.2 0.2-0.1 0.4 0.1 0.3z"/><path class="a" d="m21.3 58.7c5.4-1.8 10.4-4.4 14.5-8.5 2.2-2.2 7.5-8.6 4.6-11.7-0.3-0.3-0.8-0.3-1.1-0.1-1.4 0.7-1.5 1.7-2 3.2-0.8 2.7-2.7 5-4.7 7-3.4 3.5-7.7 6.2-12.1 8.4-1 0.4-0.3 2.1 0.8 1.7z"/><path class="a" d="m17.8 25.8c8.6 0.9 16.4 4.6 19.4 13 0.9 2.7 4.7 1.1 3.5-1.5-4.1-9.1-13.4-12.7-22.9-11.7-0.1 0-0.1 0.2 0 0.2z"/><path class="a" d="m78.4 99.1c-8.2 4.8-17.8 7.2-27.3 6.5-9.4-0.6-18.7-4.3-25.9-10.4-2.7-2.2-5.1-4.8-6.4-8-1.2-3.2-1.2-7.1 0.7-9.9 2.2-3.2 6.4-4.4 10.2-4.1 3.8 0.3 7.4 1.9 10.9 3.5 3.5 1.7 7 3.3 10.8 3.8 4.4 0.5 8.9-0.7 13.2-1.8 4.3-1.1 8.8-2.2 13.1-1.4 4.4 0.7 8.7 3.8 9.6 8.2 0.5 2.8-0.5 5.8-2.3 8.1-1.7 2.3-4.1 4-6.6 5.5z"/><path class="b" d="m70.8 99.8c-4.5-4.7-10.7-7.5-17-7.6-6.3-0.1-12.5 2.5-17.2 7 4.7 2.2 9.7 3.5 14.9 3.9 6.5 0.4 13.2-0.7 19.3-3.3z"/><path class="c" d="m66.5 81.3c1.4-0.6 2.9-1.3 4.4-1.1 1.6 0.2 3.1 1.7 2.5 3.2-0.3 0.9-1.4 1.1-2.1 1.8-6.5 6.2-18.7 6-30.2 1.5-1.8-0.7-3.7-1.4-5-2.8q-0.4-0.4-0.7-0.8c-1.2-1.7 0.5-3.9 2.4-3.2 4 1.6 8.1 2.9 12.3 3.5 5.5 0.7 11.2 0 16.4-2.1z"/><path class="a" d="m36.2 107.9c3.2 2.7 6.3 4.2 10.4 4.9 3.5 0.6 8.5 1.5 11.9 0.1 0.8-0.3 0.8-1.2 0-1.5-2.7-1.1-5.9-0.6-8.8-0.8-4.4-0.2-9.2-1.2-13.2-3.1-0.2-0.1-0.5 0.2-0.3 0.4z"/></svg>