<svg version="1.2" xmlns="http://www.w3.org/2000/svg" viewBox="0 0 133 112" width="133" height="112"><style>.a{fill:#fff}.b{fill:#1d1d1b}.c{fill:#ededed}.d{fill:#db5b54}</style><path class="a" d="m18.3 78c10.5-3.9 21.9-4.7 32.2-0.8 3.1-2.8 5.7-6.3 7.3-10.4 3.6-9.2 2.2-20.6-3.6-28.4-5.2-6.9-13.4-10.9-21.6-10.4-8.2 0.5-16 5.4-20.4 12.8-5.2 8.6-5.4 20.4-0.6 29.3 1.7 3.1 4.1 5.8 6.7 7.9z"/><path fill-rule="evenodd" class="b" d="m18.2 79.1l-0.5-0.4c-2.8-2.3-5.2-5-6.9-8.2-5-9.1-4.7-21.3 0.6-30.2 4.6-7.7 12.7-12.7 21.1-13.2 8.6-0.5 17.1 3.6 22.4 10.7 6 8.1 7.5 19.9 3.8 29.4-1.6 4-4.3 7.8-7.6 10.7l-0.4 0.4-0.5-0.2c-9.5-3.6-20.6-3.3-31.5 0.8zm15.7-50.2q-0.6 0-1.2 0c-7.9 0.5-15.5 5.2-19.7 12.4-5 8.4-5.2 19.7-0.5 28.3 1.5 2.8 3.5 5.3 6 7.4 11-4 22.2-4.3 31.8-0.8 2.9-2.7 5.2-6.1 6.6-9.7 3.5-8.9 2.1-20-3.5-27.5-4.6-6.2-12.1-10.1-19.5-10.1z"/><path class="c" d="m59.6 52.5c-1.2 5.8-2.9 11.8-7.4 15.6-3.4 2.8-7.9 4-12.4 4.3-7.5 0.6-15.4-1-21.4-5.6-6-4.6-9.7-12.5-8.3-19.9-0.3 0.2-0.6 0.5-0.8 0.8-2.1 7.4-1.3 15.7 2.3 22.4 1.7 3.1 4.1 5.8 6.7 7.9 10.5-3.9 21.9-4.7 32.2-0.8 3.1-2.8 5.7-6.3 7.3-10.4 1.8-4.5 2.3-9.5 1.8-14.3z"/><path class="b" d="m45.3 45.8c0 5.7-4.6 10.3-10.3 10.3-5.7 0-10.4-4.6-10.4-10.3 0-5.8 4.7-10.4 10.4-10.4 5.7 0 10.3 4.6 10.3 10.4z"/><path class="a" d="m35.3 42c0 1.9-1.5 3.4-3.4 3.4-1.9 0-3.4-1.5-3.4-3.4 0-1.9 1.5-3.4 3.4-3.4 1.9 0 3.4 1.5 3.4 3.4z"/><path class="b" d="m12.8 72.4c0.3 0.4 0.6 0.9 0.9 1.4l1.2 1.3q1 1.1 2.1 2.1 0.7-0.3 1.5-0.6-1.4-1.2-2.5-2.5l-1.1-1.2c-0.3-0.5-0.6-0.9-0.9-1.4-0.5-0.9-1.2-1.7-1.6-2.7-0.4-0.9-0.9-1.8-1.2-2.7q-0.5-1.5-0.9-2.9c-0.9-3.6-1.1-7.2-0.7-10.3 0.1-1.6 0.5-3 0.7-4.3q0.6-1.9 1.1-3.5 0.8-1.5 1.3-2.7c0.4-0.8 0.8-1.4 1.1-1.9q0.9-1.3 1-1.5 0.2-0.1 1.3-1.4c0.4-0.4 1-1 1.6-1.5 0.7-0.5 1.4-1.2 2.3-1.7 1-0.6 2-1.2 3.2-1.7 1.2-0.6 2.5-1 3.9-1.5 1.5-0.3 3-0.6 4.6-0.8 0.8-0.1 1.7-0.1 2.5-0.1h0.7 0.3 0.1c0.6 0.1 1.1 0.1 1.5 0.2q0.8 0 1.5 0.1c0.5 0.1 0.9 0.2 1.3 0.3q0.6 0.2 1.3 0.3 0.7 0.3 1.3 0.5 0.7 0.3 1.4 0.6 0.7 0.3 1.4 0.7c0.4 0.2 0.9 0.4 1.3 0.7l1.3 0.9c3.4 2.4 6.6 5.6 8.6 10 2 4 3.1 9.1 2.8 14.1-0.4 5-1.8 10.1-5.1 14.3-1 1.4-2.2 2.6-3.6 3.8q0.6 0.1 1.2 0.3c1.2-1.1 2.3-2.2 3.3-3.5 3.2-4.3 5.3-9.5 5.9-14.7 0.6-5.3-0.1-10.7-2.1-15.5-1.8-4.7-5.2-8.8-9-11.6q-0.7-0.6-1.4-1.1c-0.5-0.3-1-0.6-1.5-0.9q-0.8-0.4-1.5-0.8-0.8-0.4-1.6-0.7-0.8-0.3-1.5-0.7-0.9-0.2-1.7-0.4c-0.5-0.2-1.1-0.3-1.6-0.4q-0.8-0.1-1.5-0.3c-4.2-0.5-8.2 0.2-11.3 1.4-1.6 0.7-3.1 1.3-4.3 2.1-1.3 0.7-2.3 1.6-3.3 2.3-0.9 0.7-1.7 1.6-2.4 2.2-0.7 0.7-1.1 1.3-1.5 1.8-0.7 1-1.1 1.5-1.1 1.5q-0.1 0.1-1.1 1.7c-0.4 0.5-0.9 1.2-1.3 2q-0.5 1.3-1.3 2.9c-0.3 1.1-0.7 2.4-1.1 3.8-0.3 1.4-0.6 2.9-0.8 4.5-0.3 3.3-0.1 7 0.9 11q0.5 1.4 1 2.9c0.3 1.1 0.9 1.9 1.3 2.9 0.5 1.1 1.2 1.9 1.8 2.9z"/><path class="b" d="m40.7 0.4c-10.4 5.3-19.7 12.9-27 22 6.5 1.2 13-1.8 18.1-6 5.1-4.2 8.8-9.4 8.9-16z"/><path class="b" d="m89.3 1c10.4 5.4 19.6 12.9 26.9 22-6.4 1.2-12.9-1.8-18.1-6-5.1-4.1-8.7-9.4-8.8-16z"/><path class="b" d="m2.8 87.1c15.1-9.9 30.9-13.8 48.5-8.7 1.4 0.4 1.9-1.8 0.6-2.2-16.9-5-36.7-2.7-49.2 10.7-0.1 0.1 0 0.3 0.1 0.2z"/><path class="b" d="m0.4 80.5c8.9-2.8 17.2-3.9 26.4-3.7 1.3 0 1.3-2 0-2-9.7 0.1-17.7 0.9-26.5 5.4-0.2 0.1 0 0.3 0.1 0.3z"/><path class="a" d="m114.1 78c-10.4-3.9-21.9-4.7-32.2-0.8-3.1-2.8-5.7-6.3-7.3-10.4-3.6-9.2-2.2-20.6 3.7-28.4 5.1-6.9 13.4-10.9 21.5-10.4 8.2 0.5 16 5.4 20.4 12.8 5.2 8.6 5.4 20.4 0.6 29.3-1.7 3.1-4 5.8-6.7 7.9z"/><path fill-rule="evenodd" class="b" d="m114.3 79.1l-0.5-0.2c-10.9-4.1-22.1-4.4-31.5-0.8l-0.6 0.2-0.4-0.4c-3.3-2.9-5.9-6.7-7.5-10.7-3.8-9.5-2.3-21.3 3.7-29.4 5.3-7.1 13.8-11.2 22.4-10.7 8.5 0.5 16.6 5.5 21.1 13.2 5.4 8.9 5.6 21.1 0.6 30.2-1.7 3.2-4.1 5.9-6.9 8.2zm-18-5.3c5.8 0 11.7 1.1 17.6 3.2 2.5-2.1 4.5-4.5 6.1-7.3 4.7-8.6 4.5-20-0.5-28.4-4.3-7.1-11.9-11.9-19.7-12.3-7.9-0.5-15.9 3.5-20.8 10-5.6 7.6-7 18.6-3.5 27.5 1.4 3.7 3.7 7 6.7 9.7 4.4-1.6 9.1-2.4 14.1-2.4z"/><path class="c" d="m72.9 52.5c1.1 5.8 2.8 11.8 7.3 15.6 3.4 2.8 8 4 12.4 4.3 7.5 0.6 15.5-1 21.4-5.6 6-4.6 9.7-12.5 8.3-19.9 0.3 0.2 0.6 0.5 0.9 0.8 2 7.4 1.2 15.7-2.4 22.4-1.7 3.1-4 5.8-6.7 7.9-10.4-3.9-21.9-4.7-32.2-0.8-3.1-2.8-5.7-6.3-7.3-10.4-1.8-4.5-2.3-9.5-1.7-14.3z"/><path class="b" d="m107.8 45.8c0 5.7-4.7 10.3-10.4 10.3-5.7 0-10.3-4.6-10.3-10.3 0-5.8 4.6-10.4 10.3-10.4 5.7 0 10.4 4.6 10.4 10.4z"/><path class="a" d="m97.7 42c0 1.9-1.5 3.4-3.4 3.4-1.9 0-3.4-1.5-3.4-3.4 0-1.9 1.5-3.4 3.4-3.4 1.9 0 3.4 1.5 3.4 3.4z"/><path class="b" d="m119.7 72.4c-0.4 0.4-0.7 0.9-1 1.4l-1.2 1.3q-0.9 1.1-2.1 2.1-0.7-0.3-1.5-0.6 1.4-1.2 2.5-2.5l1.1-1.2c0.3-0.5 0.6-0.9 0.9-1.4 0.6-0.9 1.2-1.7 1.6-2.7 0.4-0.9 0.9-1.8 1.2-2.7q0.5-1.5 0.9-2.9c0.9-3.6 1.1-7.2 0.7-10.3-0.1-1.6-0.5-3-0.7-4.3q-0.6-1.9-1.1-3.5-0.7-1.5-1.3-2.7c-0.3-0.8-0.8-1.4-1.1-1.9q-0.9-1.3-1-1.5-0.1-0.1-1.3-1.4c-0.4-0.4-0.9-1-1.6-1.5-0.7-0.5-1.3-1.2-2.3-1.7-1-0.6-2-1.2-3.2-1.7-1.2-0.6-2.5-1-3.9-1.5-1.5-0.3-3-0.6-4.6-0.8-0.8-0.1-1.6-0.1-2.5-0.1h-0.6-0.4-0.1c-0.6 0.1-1 0.1-1.5 0.2q-0.7 0-1.5 0.1c-0.4 0.1-0.8 0.2-1.3 0.3q-0.6 0.2-1.3 0.3-0.6 0.3-1.3 0.5-0.7 0.3-1.4 0.6-0.7 0.3-1.3 0.7c-0.5 0.2-0.9 0.4-1.4 0.7l-1.3 0.9c-3.4 2.4-6.5 5.6-8.6 10-1.9 4-3.1 9.1-2.7 14.1 0.3 5 1.8 10.1 5 14.3 1 1.4 2.3 2.6 3.6 3.8q-0.6 0.1-1.2 0.3c-1.2-1.1-2.3-2.2-3.3-3.5-3.2-4.3-5.3-9.5-5.9-14.7-0.5-5.3 0.1-10.7 2.1-15.5 1.9-4.7 5.2-8.8 9-11.6q0.7-0.6 1.4-1.1c0.5-0.3 1-0.6 1.5-0.9q0.8-0.4 1.5-0.8 0.8-0.4 1.6-0.7 0.8-0.3 1.6-0.7 0.8-0.2 1.6-0.4c0.6-0.2 1.1-0.3 1.6-0.4q0.8-0.1 1.5-0.3c4.2-0.5 8.2 0.2 11.4 1.4 1.5 0.7 3 1.3 4.2 2.1 1.3 0.7 2.3 1.6 3.3 2.3 1 0.7 1.7 1.6 2.4 2.2 0.7 0.7 1.1 1.3 1.5 1.8 0.8 1 1.2 1.5 1.2 1.5q0 0.1 1.1 1.7c0.3 0.5 0.8 1.2 1.2 2q0.5 1.3 1.3 2.9c0.4 1.1 0.7 2.4 1.2 3.8 0.2 1.4 0.6 2.9 0.7 4.5 0.3 3.3 0.1 7-0.9 11q-0.5 1.4-0.9 2.9c-0.4 1.1-1 1.9-1.4 2.9-0.4 1.1-1.1 1.9-1.7 2.9z"/><path class="b" d="m129.8 86.9c-12.6-13.4-32.4-15.7-49.2-10.7-1.4 0.4-0.8 2.6 0.6 2.2 17.6-5.1 33.3-1.2 48.4 8.7 0.1 0.1 0.2-0.1 0.2-0.2z"/><path class="b" d="m132.1 80.2c-8.7-4.5-16.8-5.3-26.5-5.4-1.3 0-1.3 2 0 2 9.3-0.2 17.5 0.9 26.4 3.7 0.2 0 0.3-0.2 0.1-0.3z"/><path class="b" d="m43.1 91.3c7-4.5 15.3-7 23.6-6.8 8.3 0.1 16.5 2.9 23.1 7.9 2.4 1.9 4.7 4 5.9 6.8 1.3 2.7 1.4 6.1-0.2 8.7-1.7 2.8-5.3 4.1-8.7 4-3.4-0.1-6.6-1.4-9.7-2.6-3.1-1.3-6.2-2.6-9.6-2.9-3.9-0.2-7.7 1-11.4 2.2-3.7 1.1-7.6 2.3-11.5 1.8-3.9-0.5-7.8-2.9-8.7-6.7-0.6-2.5 0.2-5.2 1.6-7.3 1.4-2.1 3.5-3.7 5.6-5.1z"/><path class="a" d="m48.2 89.7c4.6 4.4 10.7 6.8 16.8 6.6 6-0.2 11.9-3 16.2-7.5-4.6-2-9.5-3-14.5-3.1-6.4-0.1-12.8 1.3-18.5 4z"/><path fill-rule="evenodd" class="b" d="m64.3 97.3c-6.1 0-12.2-2.5-16.8-6.9l-1-0.9 1.3-0.6c5.7-2.7 12-4.2 18.2-4.2l0.7 0.1c5.1 0 10.1 1.1 14.9 3.1l1.2 0.5-0.9 1c-4.5 4.8-10.7 7.6-16.9 7.9q-0.4 0-0.7 0zm-14.4-7.3c4.3 3.6 9.7 5.6 15 5.4 5.3-0.2 10.6-2.5 14.6-6.3-4.1-1.5-8.5-2.4-12.8-2.5h-0.7c-5.5 0-11 1.2-16.1 3.4z"/><path class="d" d="m54.3 106.4c-1.2 0.6-2.5 1.2-3.9 1.1-1.3-0.1-2.7-1.3-2.3-2.6 0.3-0.8 1-1.3 1.8-1.7 8-4.3 17.7-5.2 26.3-2.7 1.7 0.5 3.3 1.1 4.6 2.3q0.3 0.3 0.6 0.7c1.1 1.4-0.3 3.4-2 2.8-3.5-1.1-7.1-2.1-10.9-2.4-4.8-0.4-9.8 0.5-14.2 2.5z"/></svg>