<svg version="1.2" xmlns="http://www.w3.org/2000/svg" viewBox="0 0 150 118" width="150" height="118"><style>.a{fill:#1d1d1b}.b{fill:#fff}.c{fill:#ededed}</style><path class="a" d="m35.4 3.2c-8.4 1.2-16.3 5.6-21.8 12.1-0.6 0.7-1.7 0-1.4-0.8 2-5.1 5.9-10.7 9.7-12.6 4.3-2.2 9.3-1.9 13.7 0 0.6 0.3 0.5 1.2-0.2 1.3z"/><path class="b" d="m53.8 34.6c-1.9-2.5-4.2-4.7-6.8-6.3q-0.8 0.2-1.6 0.4c-11.9 2.6-23.6 5.5-34.9 11.2-4.1 8.3-3.6 18.2 0.8 26.4 4.9 8.8 14.5 14.4 24 13.7 9.5-0.7 18.4-7.5 22.2-16.9 3.6-9.3 2.2-20.6-3.7-28.5z"/><path fill-rule="evenodd" class="a" d="m33.8 81c-9.4 0-18.6-5.6-23.3-14.3-4.7-8.5-5-18.7-0.9-27.2l0.2-0.3 0.2-0.2c11.7-5.8 23.8-8.7 35.2-11.2q0.8-0.2 1.4-0.4l0.5-0.2 0.4 0.3c2.7 1.7 5.1 4 7.1 6.6 6 8 7.5 19.8 3.7 29.3-3.8 9.8-13 16.8-22.9 17.5q-0.8 0.1-1.6 0.1zm-22.6-40.5c-3.7 8-3.4 17.4 0.9 25.3 4.7 8.6 13.9 13.9 23.2 13.3 9.1-0.7 17.7-7.3 21.3-16.4 3.5-8.9 2.1-20-3.5-27.5-1.7-2.3-3.8-4.3-6.3-5.9q-0.5 0.2-1.2 0.3c-11.2 2.5-23.1 5.3-34.4 10.9z"/><path class="a" d="m22.5 54.6c0 5.7 4.6 10.3 10.4 10.3 5.7 0 10.3-4.6 10.3-10.3 0-5.7-4.6-10.3-10.3-10.3-5.8 0-10.4 4.6-10.4 10.3z"/><path class="b" d="m32.5 50.8c0 1.9 1.6 3.4 3.5 3.4 1.8 0 3.4-1.5 3.4-3.4 0-1.9-1.6-3.4-3.4-3.4-1.9 0-3.5 1.5-3.5 3.4z"/><path class="c" d="m56.4 62.8c0.9-2.2 1.5-4.6 1.7-7q-0.4 1.7-1 3.4c-3.7 9.3-12.5 16.1-21.9 16.8-9.4 0.6-18.9-4.8-23.7-13.6-1.1-2.1-1.9-4.4-2.5-6.7 0.4 3.6 1.3 7.6 3 10.7 4.7 8.5 14.1 13.4 23.2 12.7 9.1-0.6 17.6-7.2 21.2-16.3z"/><path class="a" d="m51.7 9.5c-0.4 3.5 0.7 5.3 2.5 8.3 5.3 8.6-17.1 11.4-20.1 12.1-11.4 2.7-25.7 7.5-33.6 16.6-0.2 0.2 0 0.5 0.2 0.3 15.1-10.1 32.7-12.8 49.6-17.9 3.9-1.2 6.6-3.4 7.5-7.3 1-4.5-4.2-8.4-5.7-12.2-0.1-0.2-0.4-0.1-0.4 0.1z"/><path class="a" d="m114.3 3.6c8.4 1.2 16.4 5.6 21.8 12.1 0.6 0.7 1.7 0.1 1.4-0.8-1.9-5-5.9-10.7-9.7-12.6-4.3-2.1-9.2-1.8-13.6 0.1-0.6 0.2-0.5 1.2 0.1 1.2z"/><path class="b" d="m96.6 34.6c1.9-2.5 4.3-4.7 6.9-6.3q0.7 0.2 1.5 0.4c11.9 2.6 23.6 5.5 35 11.2 4 8.3 3.6 18.2-0.9 26.4-4.8 8.8-14.5 14.4-24 13.7-9.5-0.7-18.4-7.5-22.2-16.9-3.6-9.3-2.1-20.6 3.7-28.5z"/><path fill-rule="evenodd" class="a" d="m116.7 81q-0.8 0-1.7-0.1c-9.8-0.7-19.1-7.7-22.9-17.5-3.8-9.5-2.2-21.3 3.7-29.3 2-2.6 4.4-4.9 7.2-6.6l0.4-0.3 0.4 0.2q0.7 0.2 1.4 0.4c11.4 2.5 23.6 5.4 35.2 11.2l0.3 0.2 0.1 0.3c4.1 8.5 3.8 18.7-0.9 27.2-4.7 8.7-13.8 14.3-23.2 14.3zm-13.1-51.7c-2.4 1.6-4.5 3.6-6.3 5.9-5.6 7.5-7 18.6-3.5 27.5 3.6 9.1 12.2 15.7 21.4 16.4 9.2 0.6 18.4-4.7 23.1-13.3 4.3-7.9 4.7-17.3 1-25.3-11.4-5.6-23.3-8.4-34.5-10.9q-0.6-0.1-1.2-0.3z"/><path class="a" d="m127.9 54.6c0 5.7-4.6 10.3-10.3 10.3-5.7 0-10.4-4.6-10.4-10.3 0-5.7 4.7-10.3 10.4-10.3 5.7 0 10.3 4.6 10.3 10.3z"/><path class="b" d="m117.9 50.8c0 1.9-1.5 3.4-3.4 3.4-1.9 0-3.4-1.5-3.4-3.4 0-1.9 1.5-3.4 3.4-3.4 1.9 0 3.4 1.5 3.4 3.4z"/><path class="c" d="m94 62.8c-0.9-2.2-1.4-4.6-1.7-7q0.4 1.7 1 3.4c3.7 9.3 12.5 16.1 21.9 16.8 9.4 0.6 18.9-4.8 23.7-13.6 1.1-2.1 1.9-4.4 2.5-6.7-0.4 3.6-1.3 7.6-3 10.7-4.6 8.5-14 13.4-23.2 12.7-9.1-0.6-17.6-7.2-21.2-16.3z"/><path class="a" d="m98.4 9.4c-2.6 6.4-10.9 14.5-0.2 18.7 17.2 6.9 35.6 8 51.5 18.7 0.2 0.2 0.4-0.1 0.2-0.3-7.4-8.6-19.8-12.5-30.4-15.8-6.1-1.9-12.5-2.7-18.7-4.5-9.4-2.7-1.6-11.6-2-16.7-0.1-0.2-0.3-0.3-0.4-0.1z"/><path class="a" d="m22 114.4c17.1-6.4 33.5-9.9 51.8-11.6 17.8-1.7 37.5 2.7 54.8 7.1 0.4 0.1 0.6-0.5 0.2-0.7-15.8-7.7-37.5-10.2-55-9.4-16.7 0.8-38.8 3-52.4 13.1-0.7 0.5-0.3 1.8 0.6 1.5z"/><path class="a" d="m54.7 118.1q6.1-2.4 12.6-2.8c3.3-0.2 6.5 0.1 9.6 1.4 1.7 0.7 2.1 0.8 3.9 0.9 0.8 0 1-1.1 0.4-1.5-8.4-4.7-18.9-3.7-26.6 1.7-0.2 0.1-0.1 0.4 0.1 0.3z"/></svg>