<svg version="1.2" xmlns="http://www.w3.org/2000/svg" viewBox="0 0 153 109" width="153" height="109"><style>.a{fill:#1d1d1b}.b{fill:#fff}.c{fill:#ededed}.d{fill:#db5b54}</style><path class="a" d="m44.6 5.9c-8.5 0.7-16.7 4.5-22.6 10.6-0.6 0.7-1.7 0-1.3-0.9 2.3-4.8 6.6-10.2 10.5-11.9 4.4-1.9 9.4-1.2 13.6 1 0.6 0.3 0.4 1.2-0.2 1.2z"/><path class="b" d="m64 27.9c-5.3-6.9-13.9-10.9-22.4-10.4-8.5 0.5-16.7 5.4-21.3 12.8-5.4 8.6-5.6 20.4-0.6 29.3 5.1 8.8 15.1 14.3 25 13.7 9.9-0.7 19.2-7.5 23.1-17 3.8-9.2 2.3-20.6-3.8-28.4z"/><path fill-rule="evenodd" class="a" d="m64.8 27.3c0 0 0.4 0.6 1.1 1.7 0.3 0.6 0.8 1.2 1.2 2q0.7 1.3 1.5 3 0.6 1.7 1.2 3.8c0.3 1.4 0.7 2.9 0.8 4.6q0.1 1.3 0.2 2.6c0 0.9-0.1 1.9-0.1 2.8q0 0.7-0.1 1.4-0.1 0.8-0.3 1.5c-0.2 1-0.3 2.1-0.6 3-1 4-3.4 8.1-6.6 11.6-3.3 3.4-7.6 6.3-12.7 7.8l-1.9 0.6-1.9 0.3c-0.7 0.1-1.2 0.2-2 0.2h-2c-0.7-0.1-1.3 0-2-0.1l-2-0.4c-1.4-0.1-2.6-0.6-3.9-1-5.2-1.8-9.8-5.2-13.3-9.5-3.4-4.2-5.6-9.6-6.1-15-0.6-5.5 0-11 2.2-16 2-4.8 5.6-9 9.6-11.9 1-0.7 2.1-1.3 3.1-1.9 1.1-0.6 2.2-1 3.3-1.4 1.1-0.5 2.3-0.8 3.4-1.1 1.2-0.4 2.2-0.4 3.2-0.6l0.7-0.1h0.4 0.3 0.1 0.2q0.8 0 1.6 0 0.8 0 1.5 0 0.8 0.2 1.5 0.3c2 0.2 3.8 0.8 5.5 1.4 1.6 0.8 3.1 1.4 4.3 2.3 1.4 0.7 2.4 1.6 3.4 2.4 1 0.8 1.7 1.7 2.4 2.3 0.7 0.7 1.2 1.3 1.6 1.8 0.7 1 1.1 1.6 1.1 1.6zm-1.5 1.2q0 0 0 0 0.1 0 0.1 0zm-1.3-1.4c-0.5-0.4-1-1-1.7-1.5-0.7-0.5-1.3-1.2-2.3-1.8-1-0.6-2-1.3-3.3-1.8-1.1-0.7-2.5-1.1-4-1.6-2.9-0.8-6.4-1.4-10.1-1.1-1 0.1-2.1 0.2-3 0.5-0.9 0.2-1.8 0.3-2.8 0.7-1 0.4-2 0.7-2.9 1.2-1 0.5-1.9 0.9-2.8 1.6-3.7 2.4-7 5.8-9.2 10.2-2.1 4.2-3.2 9.4-2.9 14.5 0.4 5.1 1.9 10.4 5.3 14.6 3.3 4.1 7.8 7.3 12.7 8.9 5 1.7 10.3 1.8 15.1 0.3 4.7-1.5 8.8-4.3 11.9-7.6 3-3.3 5.2-7.1 6.1-11 0.4-1 0.4-1.9 0.6-2.8q0.1-0.7 0.2-1.4 0-0.7 0.1-1.3c0-0.9 0.1-1.8 0.1-2.6q-0.1-1.3-0.2-2.5c-0.1-1.6-0.6-3-0.8-4.4q-0.7-1.9-1.3-3.5-0.7-1.6-1.3-2.8c-0.4-0.8-0.9-1.3-1.2-1.9q-0.9-1.3-1-1.5-0.2-0.2-1.3-1.4z"/><path class="a" d="m58.9 32.7c-4-5.2-10.5-8.2-16.8-7.8-6.4 0.3-12.5 4-16 9.5-4 6.5-4.2 15.4-0.4 22 3.8 6.7 11.3 10.8 18.8 10.3 7.4-0.5 14.4-5.6 17.3-12.7 2.8-7 1.7-15.5-2.9-21.3z"/><path class="c" d="m67.3 55.6c0.9-2.3 1.4-4.7 1.7-7.2-0.3 1.2-0.9 2.7-1.3 3.8-3.9 9.7-13.2 16.6-23 17.3-9.9 0.7-19.9-4.9-24.9-14-1.2-2.1-2.1-4.4-2.7-6.8 0.5 3.7 1.3 7.1 3.1 10.4 4.8 8.7 14.9 14.3 24.4 13.7 9.6-0.7 18.9-7.9 22.7-17.2z"/><path class="a" d="m106.1 3.9c8.4 0.6 16.6 4.5 22.5 10.6 0.6 0.6 1.7-0.1 1.3-0.9-2.2-4.9-6.5-10.3-10.4-12-4.5-1.8-9.4-1.2-13.7 1-0.6 0.3-0.4 1.2 0.3 1.3z"/><path class="b" d="m46.1 37c0 4.5-3.8 8.1-8.4 8.1-4.7 0-8.5-3.6-8.5-8.1 0-4.5 3.8-8.1 8.5-8.1 4.6 0 8.4 3.6 8.4 8.1z"/><path class="b" d="m58.2 51c0 3.5-2.9 6.2-6.5 6.2-3.6 0-6.5-2.7-6.5-6.2 0-3.4 2.9-6.2 6.5-6.2 3.6 0 6.5 2.8 6.5 6.2z"/><path class="b" d="m39.6 54.1c0 2.8-2.3 5-5.2 5-2.8 0-5.2-2.2-5.2-5 0-2.7 2.4-5 5.2-5 2.9 0 5.2 2.3 5.2 5z"/><path class="b" d="m129.3 27.9c-5.4-6.9-14-10.9-22.5-10.4-8.5 0.5-16.7 5.4-21.3 12.8-5.4 8.6-5.6 20.4-0.5 29.3 5 8.8 15.1 14.3 25 13.7 9.9-0.7 19.2-7.5 23-17 3.8-9.2 2.3-20.6-3.7-28.4z"/><path fill-rule="evenodd" class="a" d="m130 27.3c0 0 0.4 0.6 1.1 1.7 0.3 0.6 0.9 1.2 1.3 2q0.6 1.3 1.4 3 0.6 1.7 1.3 3.8c0.2 1.4 0.7 2.9 0.8 4.6q0 1.3 0.1 2.6c0.1 0.9 0 1.9-0.1 2.8q0 0.7-0.1 1.4-0.1 0.8-0.2 1.5c-0.2 1-0.3 2.1-0.7 3-1 4-3.4 8.1-6.6 11.6-3.3 3.4-7.6 6.3-12.6 7.8l-2 0.6-1.9 0.3c-0.6 0.1-1.1 0.2-1.9 0.2h-2.1c-0.6-0.1-1.3 0-2-0.1l-2-0.4c-1.3-0.1-2.6-0.6-3.9-1-5.2-1.8-9.7-5.2-13.3-9.5-3.3-4.2-5.5-9.6-6.1-15-0.6-5.5 0-11 2.2-16 2-4.8 5.6-9 9.6-11.9 1-0.7 2.1-1.3 3.2-1.9 1-0.6 2.1-1 3.2-1.4 1.1-0.5 2.3-0.8 3.4-1.1 1.3-0.4 2.2-0.4 3.2-0.6l0.8-0.1h0.3 0.3 0.1 0.2q0.8 0 1.6 0 0.8 0 1.6 0 0.7 0.2 1.5 0.3c2 0.2 3.8 0.8 5.4 1.4 1.6 0.8 3.1 1.4 4.4 2.3 1.3 0.7 2.3 1.6 3.3 2.4 1 0.8 1.7 1.7 2.4 2.3 0.8 0.7 1.2 1.3 1.6 1.8 0.8 1 1.2 1.6 1.2 1.6zm-1.6 1.2q0 0 0.1 0 0 0 0 0zm-1.3-1.4c-0.4-0.4-1-1-1.7-1.5-0.7-0.5-1.3-1.2-2.3-1.8-1-0.6-2-1.3-3.2-1.8-1.2-0.7-2.6-1.1-4-1.6-3-0.8-6.5-1.4-10.2-1.1-1 0.1-2.1 0.2-2.9 0.5-1 0.2-1.9 0.3-2.9 0.7-0.9 0.4-1.9 0.7-2.9 1.2-0.9 0.5-1.9 0.9-2.8 1.6-3.7 2.4-7 5.8-9.2 10.2-2.1 4.2-3.2 9.4-2.9 14.5 0.4 5.1 2 10.4 5.3 14.6 3.3 4.1 7.8 7.3 12.8 8.9 4.9 1.7 10.3 1.8 15 0.3 4.7-1.5 8.8-4.3 11.9-7.6 3-3.3 5.2-7.1 6.1-11 0.4-1 0.4-1.9 0.6-2.8q0.1-0.7 0.2-1.4 0.1-0.7 0.1-1.3c0-0.9 0.1-1.8 0.1-2.6q-0.1-1.3-0.2-2.5c-0.1-1.6-0.6-3-0.8-4.4q-0.7-1.9-1.2-3.5-0.8-1.6-1.4-2.8c-0.4-0.8-0.9-1.3-1.2-1.9q-0.9-1.3-1-1.5-0.2-0.1-1.3-1.4z"/><path class="a" d="m124.2 32.7c-4-5.2-10.5-8.2-16.9-7.8-6.4 0.3-12.5 4-16 9.5-4 6.5-4.2 15.4-0.4 22 3.8 6.7 11.3 10.8 18.8 10.3 7.4-0.5 14.4-5.6 17.3-12.7 2.9-7 1.7-15.5-2.8-21.3z"/><path class="c" d="m132.5 55.6c0.9-2.3 1.5-4.7 1.8-7.2-0.3 1.2-1 2.7-1.4 3.8-3.9 9.7-13.1 16.6-23 17.3-9.8 0.7-19.9-4.9-24.9-14-1.2-2.1-2-4.4-2.6-6.8 0.4 3.7 1.2 7.1 3 10.4 4.9 8.7 14.9 14.3 24.5 13.7 9.5-0.7 18.8-7.9 22.6-17.2z"/><path class="b" d="m111.3 37c0 4.5-3.8 8.1-8.4 8.1-4.7 0-8.4-3.6-8.4-8.1 0-4.5 3.7-8.1 8.4-8.1 4.6 0 8.4 3.6 8.4 8.1z"/><path class="b" d="m123.4 51c0 3.5-2.9 6.2-6.5 6.2-3.5 0-6.4-2.7-6.4-6.2 0-3.4 2.9-6.2 6.4-6.2 3.6 0 6.5 2.8 6.5 6.2z"/><path class="b" d="m104.9 54.1c0 2.8-2.4 5-5.2 5-2.9 0-5.2-2.2-5.2-5 0-2.7 2.3-5 5.2-5 2.8 0 5.2 2.3 5.2 5z"/><path class="d" d="m31.9 75.1c0 5.6-7.1 10.1-15.9 10.1-8.7 0-15.9-4.5-15.9-10.1 0-5.5 7.2-10.1 15.9-10.1 8.8 0 15.9 4.6 15.9 10.1z"/><path class="d" d="m152.3 75.1c0 5.6-7.1 10.1-15.9 10.1-8.8 0-15.9-4.5-15.9-10.1 0-5.5 7.1-10.1 15.9-10.1 8.8 0 15.9 4.6 15.9 10.1z"/><path class="a" d="m76.5 102.4c-2.8 0.2-5.6 0.8-8-1.1-2.4-2-1.9-4.9-0.4-7.1 2 1.2 4 1.6 5.6 0.7 0.4-0.3 0.7-1 0.4-1.4-1.7-2.2-5-3-7.1-4.9-4.2-3.7-7.2-12.1 2.1-10.5 4.1 0.8 7.1 1 10.6-1.8 2.5-2 1.8-5.9 2-8.7 0-0.1-0.2-0.1-0.2 0-1 2.8-1.3 6.1-4 7.9-3.6 2.5-8.2-0.7-12.1-0.4-3.5 0.3-5.9 2.9-6.1 6.3-0.1 2.7 2.9 7.7 6.4 10.9-2.9 3.8-3.5 9.6 1 12.5 2.7 1.7 5.4 1.7 8.3 1.3 1.4-0.1 2.8-0.3 4.3-0.2 1.6 0 3 1.3 4.2 2.3 0.4 0.3 1 0.3 1.1-0.3 1.3-4.9-4.5-5.7-8.1-5.5z"/></svg>