<svg version="1.2" xmlns="http://www.w3.org/2000/svg" viewBox="0 0 150 95" width="150" height="95"><style>.a{fill:#1d1d1b}.b{fill:#fff}.c{fill:#c0d8ff}</style><path class="a" d="m46.1 3.2c-8.5 0.7-16.7 4.5-22.5 10.6-0.7 0.7-1.8 0-1.4-0.9 2.3-4.8 6.6-10.2 10.5-11.9 4.4-1.8 9.4-1.2 13.6 1 0.6 0.3 0.4 1.2-0.2 1.2z"/><path class="b" d="m27.4 68.4c11.2-7.8 25.3-10.5 39-11.1q0.1-0.2 0.2-0.4c3.7-9.2 2.2-20.5-3.6-28.4-5.2-6.8-13.4-10.8-21.6-10.4-8.2 0.5-16 5.4-20.4 12.8-5.2 8.7-5.4 20.4-0.6 29.3 1.8 3.2 4.2 6 7 8.2z"/><path fill-rule="evenodd" class="a" d="m27 68.8c-1.9-1.7-3.6-3.6-5.1-5.8-1.4-2.1-2.6-4.4-3.5-6.8-0.3-1.2-0.8-2.4-1.1-3.6-0.2-1.3-0.5-2.5-0.6-3.8-0.1-1.3-0.3-2.6-0.2-3.9 0.1-1.3 0.1-2.6 0.2-3.8 0.3-1.3 0.4-2.6 0.8-3.9 0.3-1.2 0.7-2.5 1.2-3.7 0.5-1.2 0.9-2.3 1.6-3.5 0.8-1.1 1.4-2.3 2.3-3.3l1.2-1.5c0.4-0.5 1-1 1.4-1.4 0.9-1 2-1.8 3.1-2.6 1-0.8 2.3-1.4 3.4-2.1 1.3-0.5 2.5-1.1 3.8-1.5 1.3-0.3 2.7-0.8 3.9-0.8 0.7-0.1 1.2-0.2 2-0.3l2.1 0.1c1.3-0.1 2.6 0.3 4 0.4q1.9 0.5 3.8 1.2c1.2 0.6 2.5 1 3.6 1.8l1.7 1c0.5 0.4 1 0.9 1.5 1.3 1.1 0.7 2 1.7 2.9 2.7 1 0.9 1.6 2 2.4 3l2 3.4 1.5 3.5 1.1 3.7c0.2 1.3 0.5 2.5 0.6 3.8 0.1 1.3 0.2 2.5 0.2 3.8 0 1.3 0 2.6-0.1 3.8-0.3 1.3-0.4 2.6-0.7 3.9-0.3 1.2-0.6 2.4-1 3.7l-0.1 0.3h-0.4l-5.1 0.3-5.1 0.6-5.1 0.8-4.9 1.1-4.9 1.5-4.8 1.8-4.5 2.2-4.8 2.9zm0.4-1.2l4-2.5 4.7-2.2 4.9-1.9 5-1.5 5-1.1 5.1-0.8 5.2-0.6 4.7-0.3c0.4-1 0.7-2.1 1-3.2 0.3-1.2 0.4-2.4 0.6-3.6 0.1-1.2 0.1-2.5 0.2-3.7-0.1-1.2-0.2-2.5-0.3-3.7-0.2-1.2-0.5-2.4-0.7-3.6l-1.2-3.5-1.5-3.3-2-3c-1.7-2-3.3-3.7-5.3-5.1-0.5-0.3-1-0.7-1.5-1l-1.6-0.9c-1-0.6-2.2-1-3.3-1.4q-1.7-0.6-3.5-1c-1.2-0.1-2.3-0.4-3.5-0.3h-1.8l-1.8 0.2c-1.3 0.1-2.4 0.5-3.5 0.7-1.2 0.3-2.3 0.8-3.4 1.3-1 0.6-2.2 1-3.1 1.8-1 0.7-2 1.3-2.9 2.2-0.5 0.4-0.9 0.8-1.4 1.2l-1.2 1.4c-0.8 0.8-1.4 1.9-2.1 2.9-0.6 0.9-1.2 2.2-1.8 3.3-0.5 1.1-0.8 2.2-1.2 3.3-0.4 1.2-0.5 2.4-0.8 3.6-0.2 1.2-0.3 2.4-0.4 3.7-0.1 1.2 0.1 2.4 0.1 3.6 0 1.3 0.3 2.5 0.5 3.7 0.2 1.2 0.6 2.3 0.9 3.5 0.8 2.3 1.8 4.5 3.3 6.6 1.2 1.9 2.9 3.6 4.6 5.2zm38.6-10.9q0 0.2-0.1 0.4l0.5-0.4z"/><path class="a" d="m60.4 43.8c0 5.7-4.7 10.3-10.4 10.3-5.7 0-10.3-4.6-10.3-10.3 0-5.7 4.6-10.3 10.3-10.3 5.7 0 10.4 4.6 10.4 10.3z"/><path class="b" d="m50.3 40c0 1.9-1.5 3.4-3.4 3.4-1.9 0-3.4-1.5-3.4-3.4 0-1.9 1.5-3.4 3.4-3.4 1.9 0 3.4 1.5 3.4 3.4z"/><path class="c" d="m61.3 57.1c-7-2.1-14.7-2-21.6 0.3-2-2-4.9-3.1-7.8-2.7-2.8 0.3-5.4 2.1-6.8 4.6-2.3-2-5.9-2.4-8.6-0.9-2.6 1.4-4.2 4.7-3.7 7.7 0.5 3.1-0.2 4.2 2.9 4.8-2.2-1.3-1.5-0.8-4-0.5-2.5 0.2-5 1.5-6.2 3.7-1.1 2.3-0.8 5.3 1.1 6.9 1.8 1.7 5.2 1.5 6.6-0.5 0.1 2.5 2.1 4.9 4.6 5.3 2.5 0.4 5.2-1.1 6.1-3.5 0.9-2.4-0.8-7.9-3-9.2 0.2-2.8 7.3-6.7 10.6-8.5 10-5.8 18.4-5.4 29.8-7.5z"/><path class="a" d="m66.2 57.6c-13.6-2.2-37 2.9-45.4 15-0.3 0.5 0.3 1.1 0.8 0.8 14.2-10.1 27.7-12.9 44.6-15.7 0.1 0 0.1-0.1 0-0.1z"/><path class="c" d="m8.6 88.9c-0.7-1.7-2.7-2.9-4.6-2.5-1.9 0.4-3.3 2.3-3.2 4.2 0.1 1.8 1.7 3.6 3.6 3.8 1.3 0.1 2.8-0.5 3.6-1.6 0.8-1.1 1.1-2.6 0.6-3.9z"/><path class="c" d="m14.5 87.8c-1.1 0.9-1.8 2.6-0.9 3.8 0.6 0.8 1.9 1 2.8 0.5 0.9-0.5 1.4-1.6 1.4-2.6-0.1-1-0.9-2.1-2-2.1-0.4 0-0.9 0.2-1.3 0.4z"/><path class="a" d="m106.2 4.4c8.5 0.6 16.7 4.5 22.6 10.6 0.6 0.7 1.7-0.1 1.3-0.9-2.3-4.9-6.6-10.3-10.5-11.9-4.4-1.9-9.4-1.2-13.6 1-0.6 0.3-0.4 1.2 0.2 1.2z"/><path class="b" d="m123.2 68.4c-11.3-7.8-25.4-10.5-39.1-11.1q-0.1-0.2-0.2-0.4c-3.6-9.2-2.1-20.5 3.7-28.4 5.1-6.8 13.4-10.8 21.5-10.4 8.2 0.5 16 5.4 20.5 12.8 5.1 8.7 5.3 20.4 0.5 29.3-1.7 3.2-4.1 6-6.9 8.2z"/><path fill-rule="evenodd" class="a" d="m123.2 69.1l-4.7-2.9-4.6-2.2-4.7-1.8-4.9-1.5-5-1.1-5-0.8-5.1-0.6-5.1-0.3h-0.4l-0.1-0.3c-0.5-1.3-0.8-2.5-1.2-3.7-0.4-1.2-0.5-2.5-0.8-3.8-0.1-1.3-0.2-2.6-0.3-3.9 0-1.3 0.1-2.6 0.2-3.8 0.2-1.3 0.4-2.6 0.6-3.9 0.4-1.2 0.8-2.5 1.2-3.7l1.5-3.6c0.8-1.1 1.3-2.2 2.1-3.4 0.8-1 1.5-2 2.4-3 1-0.9 1.9-1.9 3-2.7 0.5-0.4 1-0.9 1.5-1.3l1.7-1c1.2-0.8 2.4-1.2 3.6-1.8q1.9-0.8 3.9-1.2c1.4-0.2 2.7-0.6 4.1-0.5h2c0.1 0 0.3 0 0.3 0h0.1 0.2l0.5 0.1 1 0.1c1.2 0.1 2.6 0.6 3.9 1 1.4 0.4 2.6 1 3.8 1.5 1.1 0.7 2.4 1.2 3.4 2.1 1.1 0.8 2.2 1.6 3.1 2.6 0.4 0.5 0.9 0.9 1.4 1.4l1.2 1.6c0.9 1 1.5 2.2 2.2 3.3 0.7 1.2 1.1 2.3 1.6 3.5 0.5 1.2 0.8 2.5 1.2 3.8 0.4 1.2 0.5 2.5 0.7 3.8 0.2 1.3 0.2 2.6 0.3 3.8 0 1.3-0.2 2.6-0.2 3.9-0.1 1.2-0.4 2.5-0.6 3.7-0.3 1.3-0.7 2.5-1.1 3.7-0.9 2.4-2 4.8-3.4 6.8q-2.2 3.2-5.1 5.8zm-0.2-1.5c1.8-1.5 3.5-3.1 4.8-5 1.5-2.1 2.5-4.3 3.4-6.6 0.3-1.2 0.8-2.4 1-3.6 0.2-1.2 0.5-2.4 0.6-3.7 0-1.2 0.1-2.5 0-3.7-0.1-1.2-0.1-2.5-0.3-3.7-0.3-1.2-0.5-2.5-0.8-3.6-0.4-1.2-0.7-2.4-1.3-3.5-0.5-1.1-1.1-2.3-1.7-3.3-0.7-1-1.3-2.1-2.2-3l-1.2-1.4c-0.4-0.5-0.9-0.8-1.4-1.3-0.8-0.8-1.9-1.5-2.9-2.3-1-0.7-2.1-1.2-3.2-1.8-1.1-0.5-2.3-1-3.4-1.3-1.2-0.3-2.4-0.7-3.6-0.8-0.7-0.1-1.3-0.2-1.9-0.2h-1.8c-1.3-0.1-2.5 0.2-3.7 0.4q-1.8 0.4-3.6 1c-1.1 0.5-2.3 0.8-3.4 1.5l-1.6 0.9c-0.5 0.3-1 0.7-1.5 1.1-2 1.4-3.7 3.2-5.3 5.2l-2 3-1.5 3.4c-0.4 1.2-0.8 2.4-1.1 3.6-0.3 1.2-0.5 2.4-0.7 3.6-0.1 1.3-0.2 2.5-0.2 3.8 0 1.2 0.1 2.4 0.2 3.7 0.2 1.2 0.4 2.4 0.7 3.6 0.3 1 0.7 2.2 1 3.2l4.8 0.3 5.1 0.5 5.1 0.9 5.1 1.1 5 1.5 4.8 1.8 4.7 2.3zm-38.6-10.8l-0.4-0.1 0.6 0.4q-0.1-0.2-0.2-0.3z"/><path class="a" d="m110.2 42.1c0 5.7-4.6 10.3-10.3 10.3-5.7 0-10.4-4.6-10.4-10.3 0-5.7 4.7-10.4 10.4-10.4 5.7 0 10.3 4.7 10.3 10.4z"/><path class="b" d="m100.2 38.3c0 1.9-1.5 3.4-3.4 3.4-1.9 0-3.4-1.5-3.4-3.4 0-1.9 1.5-3.4 3.4-3.4 1.9 0 3.4 1.5 3.4 3.4z"/><path class="c" d="m88.5 57.3c7-2.1 14.7-1.9 21.7 0.4 1.9-2.1 4.9-3.1 7.7-2.8 2.8 0.4 5.4 2.1 6.8 4.6 2.3-2 5.9-2.4 8.6-0.9 2.7 1.5 4.3 4.7 3.8 7.8-0.5 3 0.1 4.2-2.9 4.7 2.1-1.3 1.5-0.7 4-0.5 2.5 0.2 4.9 1.6 6.1 3.8 1.2 2.2 0.9 5.2-1 6.9-1.9 1.6-5.2 1.5-6.7-0.6-1.4-1.9-7.2-7.6-7.7-7.4-0.2-2.7-7.3-7.9-10.6-9.8-10-5.8-18.4-4.1-29.8-6.2z"/><path class="a" d="m84.3 57.7c17 2.8 30.5 5.6 44.7 15.7 0.4 0.3 1.1-0.3 0.7-0.8-8.3-12.1-31.7-17.2-45.4-15 0 0 0 0.1 0 0.1z"/><path class="c" d="m137.9 84.5c0-1.7-1-3.3-2.4-4.1-1.5-0.8-3.5-0.6-4.8 0.3-1.7 1.2-2.4 3.7-1.6 5.6 0.9 1.9 3.1 3.1 5.2 2.7 2-0.5 3.6-2.4 3.6-4.5z"/><path class="c" d="m147.6 84c-1.3-0.3-2.8 0.4-3.3 1.6-0.5 1.4 0.3 3.1 1.7 3.6 1.4 0.5 3.1-0.3 3.5-1.7 0.5-1.4-0.5-3.1-1.9-3.5z"/><path class="c" d="m140.9 89.6c-0.8-0.1-1.6 0.4-1.9 1.1-0.4 0.7-0.2 1.6 0.3 2.2 0.9 0.9 2.6 0.6 3.2-0.5 0.5-1.2-0.4-2.7-1.6-2.8z"/><path class="a" d="m37 83.7q0 0 0.6-0.8c0.3-0.6 0.8-1.5 1.6-2.5 0.7-1 1.7-2.3 3.3-3.4 0.8-0.6 1.6-1 2.7-1.4 1-0.3 2.2-0.4 3.4-0.2 0.8 0.2 1.1 0.2 1.7 0.5l1 0.5 0.7 0.5c1 0.7 1.9 1.6 2.8 2.5 1.7 1.8 3.5 3.6 5.7 4.4 2.3 0.8 5 0.6 6.6-1.2 0.8-0.8 1.5-2 2.3-3.3 0.9-1.2 2.2-2.5 3.9-3 1.7-0.5 3.4-0.3 4.9 0.1 0.8 0.3 1.4 0.5 2.2 1l1.8 1.1q1.8 1.2 3.5 2.3c0.5 0.4 1.1 0.9 1.6 1.1 0.7 0.4 1.2 0.6 1.7 0.8 1.2 0.4 2.4 0.5 3.4 0.3 0.5-0.1 1.1-0.3 1.4-0.5l0.8-0.5c0.2-0.2 0.4-0.4 0.6-0.6 0.7-0.7 1.4-1.7 2.3-2.6 0.3-0.5 0.8-0.9 1.3-1.3 0.5-0.3 1-0.8 1.7-0.9 0.3-0.1 0.5-0.3 1-0.3l0.8-0.1q0.5 0.1 1 0.1 0.4 0.2 0.8 0.3c1 0.4 1.9 1 2.6 1.6 1.4 1.2 2.3 2.4 3.2 3.2 0.9 0.7 1.7 1.2 2.3 1.4 0.5 0.1 0.8 0.2 0.8 0.2 0.4 0 0.6 0.4 0.6 0.7-0.1 0.3-0.4 0.6-0.7 0.5 0 0-0.4 0-1.1-0.2-0.8-0.2-1.8-0.7-2.8-1.5-1.1-0.8-2.2-1.9-3.5-2.9-0.6-0.5-1.3-0.9-2.1-1.1l-0.5-0.2q-0.3 0-0.5-0.1l-0.8 0.1c0 0-0.3 0.1-0.4 0.2-0.7 0.3-1.4 0.9-2.1 1.7-0.7 0.9-1.4 1.8-2.4 2.9-0.2 0.2-0.5 0.6-0.8 0.8l-0.7 0.5c-0.9 0.5-1.5 0.8-2.3 0.9-1.6 0.4-3.2 0.2-4.6-0.3-0.7-0.2-1.5-0.6-2.1-0.8-0.7-0.4-1.2-0.8-1.8-1.2q-1.8-1.1-3.5-2.3l-1.8-1.1-0.8-0.3-0.9-0.3c-1.1-0.4-2.4-0.4-3.3-0.2-1 0.3-1.8 1-2.6 2-0.7 1.1-1.4 2.4-2.6 3.7l-0.4 0.3c-0.1 0.1 0 0.1-0.3 0.3l-0.3 0.2-1.1 0.6c-0.4 0.3-0.8 0.3-1.2 0.5-0.4 0.1-0.8 0.2-1.2 0.2l-1.4 0.1c-0.4 0-0.7-0.1-1-0.1l-0.5-0.1h-0.3c0 0-0.3 0-0.2 0-0.1-0.1-0.2-0.1-0.2-0.1l-1.1-0.4c-0.7-0.2-1.4-0.6-2-1-0.6-0.4-1.3-0.9-1.7-1.3l-0.8-0.6c-0.3-0.3-0.5-0.5-0.7-0.8q-0.7-0.7-1.3-1.4-1.2-1.3-2.4-2.3l-0.6-0.4-0.6-0.3c-0.3-0.2-1.1-0.5-1.3-0.5-1.7-0.4-3.5 0.2-4.8 1-1.4 0.9-2.3 2-3.1 2.9q-1.2 1.4-1.7 2.3-0.6 0.8-0.6 0.8c-0.2 0.3-0.6 0.4-0.9 0.2-0.3-0.2-0.3-0.6-0.2-0.9z"/><path class="a" d="m32.4 83.8c-0.5 1.7-0.1 3.3 1.1 4.6 0.7 0.7 1.5 1.1 2.4 1.5 0.8 0.3 2 0.8 2.9 0.7 0.8-0.1 1.4-0.9 0.9-1.7-0.5-0.8-1.8-1-2.6-1.3-1.9-0.8-3.7-1.3-3.7-3.7 0-0.6-0.8-0.7-1-0.1z"/><path class="a" d="m117.4 82.2c-0.5 1.1-0.9 2.2-1.5 3.2-0.8 1.3-2.2 2.1-3.5 2.8-0.7 0.5-0.3 1.4 0.4 1.5 2.2 0.3 3.7-1.2 4.7-3 0.7-1.2 1.4-3.4 0.1-4.5 0-0.1-0.2-0.1-0.2 0z"/></svg>