<svg version="1.2" xmlns="http://www.w3.org/2000/svg" viewBox="0 0 136 118" width="136" height="118"><style>.a{fill:#fff}.b{fill:#1d1d1b}.c{fill:#ededed}</style><path class="a" d="m72.3 115.7c9.2-0.9 18.3-3.1 26.4-7.5 8-4.5 15-11.4 18.3-20 2.6-6.7 2.1-15.7-4.1-19.2-5.8-3.3-12.9 0-19.5 1.2-10.7 1.9-21.5-2.4-32-5.2-10.5-2.9-22.8-4.1-31.3 2.8-7.4 6-9.5 17.1-6.2 26.1 3.3 8.9 11.3 15.6 20.2 19 8.9 3.4 18.7 3.8 28.2 2.8z"/><path fill-rule="evenodd" class="b" d="m63.6 117.6c-7.4 0-14.2-1.1-20-3.3-9.9-3.8-17.8-11.2-21-19.9-3.7-9.9-0.9-21.6 6.6-27.7 7.3-5.9 18.4-7 32.6-3.1q2.8 0.8 5.7 1.6c6.7 2 13.6 4 20.4 4q2.7 0 5.2-0.4c1.6-0.3 3.3-0.7 4.9-1.1 3-0.8 6.1-1.5 9.1-1.5 2.5 0 4.6 0.5 6.5 1.5 6.9 3.9 7.5 13.7 4.7 21-3.2 8.4-10 15.7-18.9 20.7-7.5 4.1-16.3 6.7-27 7.7-3 0.3-6 0.5-8.8 0.5zm-17.1-53.5c-6.4 0-11.6 1.6-15.5 4.8-6.6 5.4-9 15.7-5.7 24.5 2.9 7.9 10.1 14.7 19.3 18.2 5.5 2.1 11.9 3.2 19 3.2 2.7 0 5.6-0.2 8.6-0.5 10.2-1 18.7-3.4 25.8-7.4 8.4-4.6 14.7-11.5 17.7-19.2 2.4-6.2 2-14.4-3.5-17.5-1.4-0.8-3.1-1.2-5.1-1.2-2.6 0-5.6 0.7-8.4 1.5-1.7 0.4-3.4 0.8-5.1 1.1q-2.7 0.5-5.7 0.5c-7.2 0-14.3-2.1-21.2-4.2q-2.8-0.8-5.6-1.6c-5.4-1.4-10.3-2.2-14.6-2.2z"/><path class="b" d="m98.4 108.3c1-6.1 1.5-12.2 1.7-18.4 6.4-2.4 12.6-5.4 18.4-9q0-1.1-0.1-2.2c-5.7 3.7-11.9 6.8-18.2 9.2 0.1-6.4-0.3-12.7-1-19q-0.9 0.2-1.9 0.4c0.8 6.4 1.1 12.8 1 19.3q-7.7 2.7-15.7 4.2c0.1-7.5-0.1-15-0.6-22.6q-0.9-0.1-1.9-0.3c0.5 7.8 0.8 15.5 0.6 23.3-5.7 1-11.4 1.5-17.2 1.5l1.2-28.8q-0.9-0.3-1.8-0.5l-1.3 29.3c-6.4 0-12.7-0.7-19-1.9 0.4-9.9 0-19.8-1.1-29.7q-0.9 0.1-1.8 0.3c1 9.7 1.4 19.4 1 29-6.2-1.3-12.3-3.3-18.2-5.8q0 1.1 0.1 2.1c5.9 2.4 11.9 4.3 18.1 5.6q-0.4 8.2-1.4 16.4 0.8 0.5 1.7 0.9 1.1-8.4 1.5-16.9c6.3 1.2 12.6 1.8 19 1.9l-0.9 19.5q1 0 1.9 0.1l0.9-19.6c5.8 0 11.6-0.6 17.3-1.5q-0.3 9.8-1.2 19.6 1-0.2 2-0.4 0.9-9.8 1.1-19.6 8-1.4 15.6-4.1c-0.2 6.3-0.8 12.6-1.9 18.8q1.1-0.5 2.1-1.1z"/><path class="b" d="m13.7 76.6c-1.6 11.3 0.6 27.6 11.3 34 0.5 0.4 1.1-0.3 0.8-0.8-3.1-5.6-6.9-10-8.8-16.4-1.7-5.4-1.8-11.2-2.6-16.8-0.1-0.3-0.7-0.3-0.7 0z"/><path class="b" d="m6.2 91.8c-0.4 4.1 0.1 9.6 3.8 12.2 0.4 0.3 1-0.3 0.7-0.7-2.4-3.3-3.7-7.5-3.8-11.5-0.1-0.5-0.7-0.5-0.7 0z"/><path class="b" d="m118.3 64.2c5.5 3 6 11 7.1 16.4 0.1 0.7 1 0.4 1-0.1 0.6-6-0.8-15.4-8-16.6-0.2-0.1-0.3 0.2-0.1 0.3z"/><path class="a" d="m32.1 26.1c-4.4-2-9.3-4-14.2-6.6-3.6-1.7-7.1-3.6-10.4-5.9-2.5 6.8-2.6 14.7 0.1 21.4 3.7 9.5 12.6 16.3 22.1 17 9.5 0.6 19.2-4.9 24-13.7 1.2-2.1 2-4.5 2.6-6.8-8.1 0-15.7-1-24.2-5.4z"/><path fill-rule="evenodd" class="b" d="m31.3 53q-0.8 0-1.7-0.1c-9.8-0.7-19-7.7-22.9-17.5-2.7-6.9-2.7-14.9-0.1-22.1l0.5-1.2 1 0.7c3.1 2.2 6.4 4.1 10.2 5.9 3.4 1.8 6.7 3.2 9.9 4.6q2.2 1 4.3 1.9c7.2 3.8 14.1 5.3 23 5.3h2l-0.3 1.2c-0.6 2.6-1.5 4.9-2.7 7-4.7 8.7-13.8 14.3-23.2 14.3zm-23.3-38c-2.1 6.5-2 13.6 0.4 19.7 3.6 9.1 12.2 15.7 21.4 16.3 9.2 0.7 18.4-4.6 23.1-13.2q1.3-2.4 2.2-5.4c-9-0.1-16.1-1.7-23.4-5.5q-2.1-0.9-4.3-1.9c-3.2-1.4-6.5-2.9-9.9-4.7-3.4-1.6-6.6-3.3-9.5-5.3z"/><path class="b" d="m22.7 22.5c-0.6 1.3-0.9 2.7-0.9 4.1 0 5.7 4.7 10.3 10.4 10.3 4.3 0 8-2.6 9.6-6.4-6.3-1.2-13-4.3-19.1-8z"/><path class="a" d="m25.1 24c-1 0.6-1.7 1.7-1.7 3 0 1.8 1.5 3.4 3.4 3.4 1.9 0 3.4-1.6 3.4-3.4q0-0.2 0-0.4-2.6-1.2-5.1-2.6z"/><path class="c" d="m55.7 28.7c-0.5 2-1.2 3.9-2.2 5.7-4.8 8.7-14.3 14.2-23.7 13.5-9.4-0.6-18.2-7.4-21.9-16.8q-0.6-1.6-1-3.3c0.3 2.4 0.8 4.8 1.7 7 3.6 9.1 12.1 15.7 21.3 16.3 9.1 0.7 18.5-4.2 23.1-12.7 1.6-2.9 2.4-6.5 2.9-9.8q-0.1 0-0.2 0.1z"/><path class="b" d="m0.2 7.8c14.9 11 27.7 20.8 46.2 24.6 8.6 1.8 21.5-0.4 18.7-12.1-0.4-1.2-2.3-1.2-2.6 0-1.8 7-4.4 9.6-11.9 9.2-4.7-0.2-9.5-1.7-14-3.2-13.2-4.1-24.2-12.2-36.3-18.6-0.1-0.1-0.2 0.1-0.1 0.1z"/><path class="a" d="m104.3 26.1c4.4-2 9.3-4 14.2-6.6 3.6-1.7 7.1-3.6 10.4-5.9 2.5 6.8 2.6 14.7 0 21.4-3.8 9.5-12.7 16.3-22.2 17-9.5 0.6-19.2-4.9-24-13.7-1.2-2.1-2-4.5-2.6-6.8 8.1 0 15.7-1 24.2-5.4z"/><path fill-rule="evenodd" class="b" d="m105.1 53c-9.4 0-18.5-5.6-23.2-14.3-1.2-2.1-2.1-4.4-2.7-7l-0.3-1.2h2c8.9 0 15.8-1.5 23-5.3q2.1-0.9 4.3-1.9c3.2-1.4 6.6-2.8 9.8-4.6 3.9-1.8 7.2-3.7 10.4-5.9l1-0.7 0.4 1.2c2.6 7.2 2.6 15.2-0.1 22.1-3.8 9.8-13.1 16.8-22.9 17.5q-0.8 0.1-1.7 0.1zm-23.8-20.6q0.9 3 2.2 5.4c4.7 8.6 13.9 13.9 23.1 13.2 9.2-0.6 17.8-7.2 21.4-16.3 2.4-6.1 2.5-13.2 0.4-19.7-2.9 2-6 3.7-9.5 5.4-3.3 1.7-6.7 3.2-9.9 4.6q-2.2 1-4.3 1.9c-7.3 3.8-14.3 5.4-23.4 5.5z"/><path class="b" d="m113.8 22.5c0.5 1.3 0.8 2.7 0.8 4.1 0 5.7-4.6 10.3-10.4 10.3-4.3 0-8-2.6-9.5-6.4 6.2-1.2 13-4.3 19.1-8z"/><path class="a" d="m111.3 24c1 0.6 1.7 1.7 1.7 3 0 1.8-1.5 3.4-3.4 3.4-1.9 0-3.4-1.6-3.4-3.4q0-0.2 0.1-0.4 2.5-1.2 5-2.6z"/><path class="c" d="m80.7 28.7c0.5 2 1.3 3.9 2.2 5.7 4.8 8.7 14.3 14.2 23.7 13.5 9.4-0.6 18.2-7.4 21.9-16.8q0.6-1.6 1-3.3c-0.2 2.4-0.8 4.8-1.7 7-3.6 9.1-12.1 15.7-21.2 16.3-9.1 0.7-18.5-4.2-23.2-12.7-1.5-2.9-2.4-6.5-2.9-9.8q0.1 0 0.2 0.1z"/><path class="b" d="m136.2 7.7c-12.2 6.4-23.2 14.3-36.3 18.6-4.6 1.5-9.3 2.7-14.1 3.2-7.5 0.8-10.2-2.5-11.9-9.2-0.3-1.2-2.2-1.2-2.5 0-3 12 10.1 13.5 18.6 12.1 18.5-3 31.6-13.9 46.2-24.6 0.1 0 0.1-0.2 0-0.1z"/><path class="b" d="m27.4 0.3c5.3-0.8 10.6 1.3 15.2 4.2 4.8 3 9.1 7 11.6 11-10.3-2-19.8-7.5-26.8-15.2z"/><path class="b" d="m104.3 0.3c-5.3-0.8-10.6 1.3-15.1 4.2-4.8 3-9.1 7-11.6 11 10.2-2 19.8-7.5 26.7-15.2z"/><path class="b" d="m51.8 41.5c-11 15.7-28.9 13.2-45.5 14.4-0.6 0.1-0.8 1-0.1 1.1 16.9 3.5 36.3 0.2 45.8-15.4 0-0.1-0.1-0.2-0.2-0.1z"/><path class="b" d="m84.3 41.3c6.7 16.2 35.5 20.2 50.2 16.1 0.4-0.1 0.3-0.7-0.1-0.7-14.4 0.4-42.4 0.4-50-15.5 0-0.1-0.2 0-0.1 0.1z"/></svg>