<svg version="1.2" xmlns="http://www.w3.org/2000/svg" viewBox="0 0 142 91" width="142" height="91"><style>.a{fill:#fff}.b{fill:#1d1d1b}.c{fill:#ededed}</style><path class="a" d="m48.9 29.5c-10.4 0.1-23.6-2.3-33.6-8.6-1 1.2-2 2.5-2.9 3.9-5.1 8.6-5.3 20.4-0.5 29.3 1.7 3.1 4 5.8 6.7 7.9 10.4-3.8 21.9-4.6 32.2-0.7 3.1-2.8 5.7-6.4 7.3-10.5 2.8-7.1 3.1-17.7-1-24.1-1.3 0.7-6.3 2.8-8.2 2.8z"/><path fill-rule="evenodd" class="b" d="m18.4 63.1l-0.4-0.3c-2.9-2.3-5.2-5.1-6.9-8.3-5-9.1-4.8-21.3 0.5-30.2 0.8-1.3 1.8-2.6 3-4l0.6-0.6 0.6 0.4c8.4 5.3 20.5 8.5 32.5 8.5h0.6c1.6 0 6.5-2 7.8-2.7l0.7-0.5 0.5 0.8c4.4 6.8 3.8 18 1 25-1.6 4.1-4.2 7.8-7.5 10.8l-0.4 0.3-0.6-0.2c-9.4-3.5-20.6-3.2-31.5 0.8zm-2.9-41q-1.4 1.7-2.3 3.2c-5 8.4-5.2 19.8-0.5 28.3 1.5 2.8 3.6 5.3 6.1 7.4 10.9-4 22.2-4.3 31.7-0.8 3-2.7 5.3-6.1 6.7-9.7 2.5-6.3 3.1-16.2-0.4-22.6-2 0.9-6 2.5-7.9 2.6h-0.6c-12 0-24.2-3.1-32.8-8.4z"/><path class="c" d="m59.8 36.5c-1.1 5.9-2.8 11.8-7.3 15.6-3.4 2.9-8 4-12.4 4.4-7.6 0.5-15.5-1.1-21.5-5.7-6-4.6-9.7-12.5-8.2-19.9-0.3 0.3-0.6 0.5-0.9 0.8-2 7.4-1.2 15.7 2.4 22.4 1.7 3.1 4 5.8 6.7 7.9 10.4-3.8 21.9-4.6 32.2-0.7 3.1-2.8 5.7-6.4 7.3-10.5 1.7-4.5 2.3-9.5 1.7-14.3z"/><path class="b" d="m54.1 43.2c0 5.7-4.6 10.3-10.3 10.3-5.7 0-10.3-4.6-10.3-10.3 0-5.8 4.6-10.4 10.3-10.4 5.7 0 10.3 4.6 10.3 10.4z"/><path class="a" d="m44.1 39.4c0 1.9-1.5 3.4-3.4 3.4-1.9 0-3.4-1.5-3.4-3.4 0-1.9 1.5-3.4 3.4-3.4 1.9 0 3.4 1.5 3.4 3.4z"/><path class="b" d="m16.3 58.1l-1.1-1.2c-0.3-0.5-0.6-0.9-0.9-1.4-0.6-0.9-1.2-1.7-1.6-2.7-0.4-0.9-1-1.8-1.2-2.7q-0.5-1.4-1-2.9c-0.8-3.6-1-7.2-0.7-10.3 0.2-1.5 0.5-3 0.8-4.3q0.6-1.9 1.1-3.5 0.7-1.5 1.3-2.7c0.3-0.8 0.8-1.4 1.1-1.9q0.9-1.3 1-1.5 0.1-0.1 1.3-1.3c0.3-0.4 0.7-0.8 1.1-1.2q-0.9-0.6-1.8-1.3-0.5 0.6-0.9 1.1c-0.8 1-1.2 1.5-1.2 1.5q0 0.1-1.1 1.7c-0.3 0.6-0.8 1.2-1.2 2q-0.6 1.3-1.3 2.9c-0.4 1.1-0.8 2.4-1.2 3.8-0.2 1.4-0.6 2.9-0.7 4.5-0.3 3.3-0.1 7.1 0.9 11q0.4 1.5 0.9 2.9c0.4 1.1 0.9 2 1.4 3 0.4 1 1.1 1.9 1.7 2.8 0.4 0.5 0.7 0.9 1 1.4l1.1 1.3q1 1.1 2.1 2.1 0.8-0.3 1.6-0.6-1.4-1.2-2.5-2.5z"/><path class="b" d="m56.5 28.6c1.9 4.1 3.1 9.1 2.7 14.1-0.3 5-1.8 10.1-5 14.3-1 1.4-2.3 2.7-3.6 3.8q0.6 0.2 1.2 0.3c1.2-1.1 2.3-2.2 3.3-3.5 3.2-4.2 5.3-9.5 5.8-14.7 0.6-5.3 0-10.5-1.9-15.3q-1.2 0.7-2.5 1z"/><path class="b" d="m25.2 1.8c9.5 6.8 20.6 11.4 32 13.6-1.9-6.3-7.7-10.6-13.7-13.2-6.1-2.6-12.5-3.3-18.3-0.4z"/><path class="b" d="m3.1 71.1c15-9.9 30.8-13.8 48.4-8.7 1.4 0.4 2-1.8 0.6-2.2-16.8-4.9-36.6-2.7-49.2 10.7-0.1 0.1 0.1 0.3 0.2 0.2z"/><path class="b" d="m0.7 64.5c8.9-2.7 17.1-3.8 26.4-3.7 1.2 0 1.2-2 0-2-9.8 0.1-17.8 0.9-26.5 5.4-0.2 0.1-0.1 0.4 0.1 0.3z"/><path class="b" d="m4.9 13.5c11.1 10.7 25.2 16.7 40.5 18 6.8 0.5 20.7-2.6 15.2-12.3-0.5-0.9-1.6-0.6-2 0.3-7.4 19.2-43.4 0.8-53.4-6.5-0.3-0.2-0.6 0.3-0.3 0.5z"/><path class="a" d="m93.5 29.5c10.4 0.1 23.7-2.3 33.6-8.6 1.1 1.2 2 2.5 2.9 3.9 5.1 8.6 5.4 20.4 0.5 29.3-1.7 3.1-4 5.8-6.7 7.9-10.4-3.8-21.8-4.6-32.1-0.7-3.2-2.8-5.7-6.4-7.3-10.5-2.8-7.1-3.2-17.7 0.9-24.1 1.3 0.7 6.3 2.8 8.2 2.8z"/><path fill-rule="evenodd" class="b" d="m124 63.1l-0.5-0.2c-10.9-4-22.1-4.3-31.5-0.8l-0.5 0.2-0.4-0.3c-3.4-3-6-6.7-7.6-10.8-2.8-7-3.4-18.2 1-25l0.5-0.8 0.8 0.5c1.2 0.7 6.1 2.7 7.7 2.7h0.6c12 0 24.1-3.2 32.5-8.5l0.7-0.4 0.5 0.6c1.2 1.4 2.2 2.7 3 4 5.3 8.9 5.5 21.1 0.5 30.2-1.7 3.2-4 6-6.9 8.3zm-17.9-5.4c5.8 0 11.7 1.1 17.6 3.2 2.5-2 4.5-4.5 6-7.3 4.7-8.6 4.5-20-0.5-28.4q-0.9-1.5-2.3-3.1c-8.6 5.2-20.8 8.3-32.8 8.3h-0.6c-1.8 0-5.9-1.6-7.8-2.5-3.6 6.3-3 16.2-0.5 22.6 1.5 3.6 3.8 6.9 6.7 9.7 4.4-1.6 9.2-2.5 14.2-2.5z"/><path class="c" d="m82.6 36.5c1.1 5.9 2.8 11.8 7.4 15.6 3.4 2.9 7.9 4 12.4 4.4 7.5 0.5 15.4-1.1 21.4-5.7 6-4.6 9.7-12.5 8.3-19.9 0.3 0.3 0.5 0.5 0.8 0.8 2 7.4 1.3 15.7-2.4 22.4-1.7 3.1-4 5.8-6.7 7.9-10.4-3.8-21.8-4.6-32.1-0.7-3.2-2.8-5.7-6.4-7.3-10.5-1.8-4.5-2.4-9.5-1.8-14.3z"/><path class="b" d="m88.3 43.2c0 5.7 4.6 10.3 10.3 10.3 5.7 0 10.4-4.6 10.4-10.3 0-5.8-4.7-10.4-10.4-10.4-5.7 0-10.3 4.6-10.3 10.4z"/><path class="a" d="m98.3 39.4c0 1.9 1.5 3.4 3.4 3.4 1.9 0 3.4-1.5 3.4-3.4 0-1.9-1.5-3.4-3.4-3.4-1.9 0-3.4 1.5-3.4 3.4z"/><path class="b" d="m126.2 58.1l1-1.2c0.3-0.5 0.6-0.9 0.9-1.4 0.6-0.9 1.2-1.7 1.6-2.7 0.4-0.9 1-1.8 1.3-2.7q0.4-1.4 0.9-2.9c0.8-3.6 1-7.2 0.7-10.3-0.1-1.5-0.5-3-0.7-4.3q-0.7-1.9-1.2-3.5-0.7-1.5-1.2-2.7c-0.4-0.8-0.9-1.4-1.2-1.9q-0.9-1.3-1-1.5-0.1-0.1-1.3-1.3c-0.3-0.4-0.7-0.8-1.1-1.2q0.9-0.6 1.8-1.3 0.6 0.6 0.9 1.1c0.8 1 1.2 1.5 1.2 1.5q0.1 0.1 1.1 1.7c0.3 0.6 0.8 1.2 1.2 2q0.6 1.3 1.3 2.9c0.4 1.1 0.8 2.4 1.2 3.8 0.2 1.4 0.6 2.9 0.7 4.5 0.4 3.3 0.1 7.1-0.9 11q-0.4 1.5-0.9 2.9c-0.4 1.1-0.9 2-1.4 3-0.4 1-1.1 1.9-1.7 2.8-0.3 0.5-0.6 0.9-1 1.4l-1.1 1.3q-1 1.1-2.1 2.1-0.8-0.3-1.5-0.6 1.3-1.2 2.5-2.5z"/><path class="b" d="m85.9 28.6c-1.9 4.1-3 9.1-2.7 14.1 0.4 5 1.8 10.1 5 14.3 1.1 1.4 2.3 2.7 3.6 3.8q-0.6 0.2-1.1 0.3c-1.2-1.1-2.4-2.2-3.4-3.5-3.2-4.2-5.2-9.5-5.8-14.7-0.6-5.3 0-10.5 2-15.3q1.1 0.7 2.4 1z"/><path class="b" d="m117.3 1.8c-9.6 6.8-20.6 11.4-32.1 13.6 2-6.3 7.7-10.6 13.8-13.2 6-2.6 12.4-3.3 18.3-0.4z"/><path class="b" d="m139.5 70.9c-12.5-13.4-32.4-15.6-49.2-10.7-1.4 0.4-0.8 2.6 0.6 2.2 17.6-5.1 33.4-1.2 48.4 8.7 0.2 0.1 0.3-0.1 0.2-0.2z"/><path class="b" d="m141.9 64.2c-8.8-4.5-16.8-5.3-26.6-5.4-1.2 0-1.2 2 0 2 9.3-0.1 17.5 1 26.4 3.7 0.2 0.1 0.3-0.2 0.2-0.3z"/><path class="b" d="m137.2 13c-10 7.3-46 25.7-53.4 6.5-0.3-0.9-1.5-1.2-2-0.3-5.5 9.8 8.5 12.6 15.2 12.3 15.1-0.7 29.8-7.6 40.6-18 0.2-0.2-0.1-0.7-0.4-0.5z"/><path class="b" d="m49.5 90.6c10-11.9 21.3-16.8 36.9-15.7 0.7 0 0.9-1 0.3-1.3-5.5-3.4-16.1-1.6-21.7 1-7 3.2-14 7.9-15.9 15.7-0.1 0.2 0.3 0.5 0.4 0.3z"/><path class="b" d="m89.1 68.8c1.8 1.7 2.8 4.4 3 6.8 0.1 2.4-1.1 4.2-2 6.3-0.2 0.5 0.5 0.7 0.8 0.6 2.8-1.2 3.3-4.8 3.1-7.5-0.3-3.1-1.9-5.3-4.7-6.5-0.2-0.1-0.3 0.2-0.2 0.3z"/></svg>