<svg version="1.2" xmlns="http://www.w3.org/2000/svg" viewBox="0 0 117 132" width="117" height="132"><style>.a{fill:#1d1d1b}.b{fill:#fff}.c{fill:#ededed}.d{fill:#db5b54}</style><path class="a" d="m37.8 8.6c-8.2 2.3-15.4 7.7-19.9 14.9-0.5 0.7-1.7 0.2-1.5-0.6 1.2-5.3 4.3-11.4 7.9-13.8 3.9-2.7 8.9-3.1 13.5-1.8 0.6 0.2 0.7 1.1 0 1.3z"/><path class="a" d="m71.6 3c8.4 1.2 16.3 5.6 21.7 12.1 0.6 0.7 1.7 0 1.4-0.8-1.9-5-5.8-10.7-9.7-12.6-4.2-2.2-9.2-1.8-13.6 0.1-0.6 0.2-0.5 1.1 0.2 1.2z"/><path class="b" d="m48.5 38.2c-5.1-6.8-13.4-10.8-21.5-10.4-8.2 0.5-16 5.4-20.5 12.8-5.1 8.6-5.3 20.4-0.5 29.3 4.8 8.8 14.5 14.3 24 13.7 9.5-0.7 18.4-7.5 22.2-17 3.6-9.2 2.1-20.6-3.7-28.4z"/><path fill-rule="evenodd" class="a" d="m49.3 37.7c0 0 0.3 0.5 1 1.6 0.3 0.6 0.8 1.2 1.2 2q0.6 1.3 1.4 2.9c0.4 1.1 0.7 2.4 1.2 3.8 0.2 1.4 0.6 2.9 0.8 4.5 0.3 3.3 0.1 7.1-0.8 11.1q-0.5 1.4-0.9 2.9c-0.4 1.1-0.9 2-1.4 3-0.4 1-1.1 1.9-1.7 2.9-0.3 0.5-0.6 1-1 1.4l-1.1 1.3c-3.1 3.6-7.2 6.6-12.1 8.2-4.8 1.7-10.5 1.6-15.5-0.3-5-1.8-9.4-5.2-12.8-9.5-3.2-4.2-5.3-9.5-5.9-14.8-0.6-5.3-0.1-10.7 1.9-15.7 1.8-4.7 5.1-9 9-12 0.9-0.7 1.9-1.4 3-2q0.8-0.4 1.5-0.8 0.8-0.4 1.6-0.7 0.8-0.3 1.6-0.7 0.9-0.2 1.8-0.4c0.5-0.2 1.1-0.3 1.6-0.5q0.8-0.1 1.5-0.2 0.8-0.1 1.5-0.2c0.3 0 0.1 0 0.2 0 0.1 0 0.3 0 0.3 0h0.4 0.8c1 0.1 2.1 0.1 3 0.3 1 0.2 2 0.2 2.8 0.6 0.9 0.3 1.8 0.5 2.6 0.8 3.2 1.4 5.7 3.1 7.5 4.8 0.9 0.7 1.6 1.6 2.3 2.3 0.7 0.7 1.1 1.3 1.5 1.8 0.7 1 1.1 1.5 1.1 1.5zm-1.5 1.1q0 0 0 0.1 0.1 0 0.1 0zm-1.3-1.4c-0.4-0.4-0.9-1-1.6-1.5-0.6-0.5-1.3-1.2-2.2-1.8-1.8-1.3-4.2-2.5-7.1-3.5-2.9-0.8-6.3-1.4-9.9-1q-0.7 0.1-1.5 0.2c-0.5 0.1-0.9 0.2-1.3 0.3q-0.7 0.2-1.4 0.3-0.7 0.3-1.4 0.6-0.7 0.2-1.4 0.5-0.7 0.3-1.4 0.7c-0.9 0.4-1.8 1-2.7 1.7-3.5 2.4-6.6 5.9-8.6 10.3-2 4.2-2.9 9.3-2.6 14.3 0.4 5.1 1.9 10.2 5.1 14.4 3.1 4.1 7.5 7.3 12.3 9 4.8 1.7 10.1 1.7 14.7 0.1 4.6-1.6 8.5-4.5 11.4-7.9l1-1.2c0.4-0.5 0.6-0.9 0.9-1.4 0.6-0.9 1.2-1.7 1.6-2.7 0.4-1 1-1.9 1.3-2.8q0.4-1.5 0.8-2.9c0.8-3.7 1-7.3 0.6-10.4-0.1-1.5-0.5-3-0.8-4.3q-0.6-1.9-1.1-3.5-0.8-1.5-1.3-2.7c-0.4-0.8-0.9-1.4-1.2-1.9q-0.8-1.3-0.9-1.5-0.2-0.2-1.3-1.4z"/><path class="a" d="m29.8 54.2c0 5.7-4.6 10.3-10.3 10.3-5.7 0-10.4-4.6-10.4-10.3 0-5.8 4.7-10.4 10.4-10.4 5.7 0 10.3 4.6 10.3 10.4z"/><path class="b" d="m19.8 50.4c0 1.9-1.6 3.4-3.4 3.4-1.9 0-3.4-1.5-3.4-3.4 0-1.9 1.5-3.4 3.4-3.4 1.8 0 3.4 1.5 3.4 3.4z"/><path class="b" d="m29 59.7c0 1-0.8 1.8-1.8 1.8-1 0-1.8-0.8-1.8-1.8 0-1 0.8-1.8 1.8-1.8 1 0 1.8 0.8 1.8 1.8z"/><path class="b" d="m67.9 38.2c5.1-6.8 13.4-10.8 21.6-10.4 8.1 0.5 16 5.4 20.4 12.8 5.1 8.6 5.4 20.4 0.5 29.3-4.8 8.8-14.5 14.3-24 13.7-9.5-0.7-18.4-7.5-22.1-17-3.7-9.2-2.2-20.6 3.6-28.4z"/><path fill-rule="evenodd" class="a" d="m67.1 37.7q0.1-0.1 1.2-1.6c0.4-0.5 0.9-1.1 1.6-1.7 0.7-0.7 1.4-1.6 2.4-2.3 1.8-1.5 4.3-3.1 7.5-4.4 3.2-1.2 7.1-1.9 11.3-1.3q0.8 0.1 1.5 0.2c0.5 0.1 1.1 0.3 1.6 0.4q0.8 0.2 1.7 0.5 0.8 0.3 1.5 0.6 0.8 0.3 1.6 0.7 0.8 0.4 1.5 0.8c1.1 0.6 2 1.2 3 2 3.7 2.8 7.1 6.9 9 11.6 1.9 4.9 2.6 10.2 2 15.5-0.6 5.3-2.6 10.5-5.8 14.7-3.3 4.3-7.8 7.5-12.8 9.2-5 1.7-10.5 1.7-15.2 0.2-4.8-1.6-8.9-4.5-12-7.9l-1.1-1.3c-0.4-0.5-0.7-0.9-1-1.4-0.6-0.9-1.3-1.8-1.7-2.8-0.5-1-1-1.9-1.4-3q-0.5-1.4-1-2.9c-0.9-3.9-1.2-7.7-0.8-11 0.1-1.6 0.5-3.1 0.7-4.5 0.4-1.4 0.8-2.7 1.2-3.8q0.7-1.6 1.3-2.9c0.4-0.8 0.9-1.4 1.2-2 0.7-1.1 1-1.6 1-1.6zm1.6 1.1q-0.2 0.2-1 1.5c-0.3 0.5-0.8 1.1-1.2 1.9q-0.5 1.2-1.2 2.7-0.5 1.6-1.2 3.5c-0.2 1.3-0.6 2.8-0.7 4.3-0.3 3.1-0.1 6.7 0.7 10.4q0.5 1.4 0.9 2.8c0.3 0.9 0.9 1.8 1.3 2.7 0.4 1 1 1.8 1.6 2.7 0.3 0.5 0.6 0.9 0.9 1.4l1 1.2c2.9 3.3 6.8 6.1 11.3 7.6 4.5 1.5 9.6 1.5 14.4 0 4.7-1.6 9.2-4.6 12.3-8.7 3.2-4.2 4.6-9.3 5-14.3 0.3-5-0.8-10-2.7-14.1-2.1-4.4-5.2-7.6-8.7-10-0.8-0.6-1.7-1.2-2.6-1.6q-0.7-0.4-1.4-0.7-0.6-0.3-1.3-0.5-0.7-0.3-1.4-0.5-0.6-0.2-1.3-0.3c-0.4-0.1-0.8-0.3-1.3-0.4q-0.7 0-1.5-0.1-0.7-0.1-1.4-0.2c-0.1 0-0.2 0-0.2 0h-0.3-0.7c-0.8 0-1.6 0-2.4 0.1-1.7 0.2-3.2 0.6-4.6 0.9-2.9 0.8-5.3 1.9-7.1 3.1-1 0.6-1.6 1.3-2.3 1.8-0.7 0.4-1.2 1-1.7 1.5q-1.1 1.2-1.2 1.3zm20.5-8.7q0 0 0 0 0 0 0 0 0 0 0 0zm0.1 0q0 0 0 0 0 0 0 0zm-0.1 0c0.2 0 0.1 0 0.1 0q0 0-0.1 0z"/><path class="a" d="m106.7 54.4c0 5.7-4.6 10.4-10.3 10.4-5.7 0-10.3-4.7-10.3-10.4 0-5.7 4.6-10.3 10.3-10.3 5.7 0 10.3 4.6 10.3 10.3z"/><path class="b" d="m96.7 50.6c0 1.9-1.5 3.5-3.4 3.5-1.9 0-3.4-1.6-3.4-3.5 0-1.8 1.5-3.4 3.4-3.4 1.9 0 3.4 1.6 3.4 3.4z"/><path class="b" d="m106 60c0 1-0.8 1.8-1.8 1.8-1 0-1.8-0.8-1.8-1.8 0-1 0.8-1.8 1.8-1.8 1 0 1.8 0.8 1.8 1.8z"/><path class="c" d="m51.4 66c0.9-2.3 1.4-4.7 1.7-7.1-0.3 1.1-0.9 2.7-1.3 3.8-3.7 9.6-12.6 16.6-22.1 17.2-9.4 0.7-19.1-4.9-23.9-13.9-1.1-2.2-1.9-4.5-2.5-6.9 0.4 3.7 1.2 7.2 2.9 10.4 4.7 8.8 14.3 14.4 23.5 13.7 9.2-0.7 18.1-7.9 21.7-17.2z"/><path class="c" d="m65.2 66.2c-0.9-2.2-1.5-4.6-1.8-7q0.5 1.7 1.1 3.4c3.7 9.4 12.5 16.1 21.9 16.8 9.3 0.6 18.9-4.8 23.6-13.6 1.2-2.1 2-4.4 2.6-6.7-0.4 3.6-1.3 7.6-3 10.7-4.7 8.5-14.1 13.4-23.2 12.8-9.1-0.7-17.7-7.3-21.2-16.4z"/><path class="a" d="m116.4 117.9c-0.4-5.1-4.4-9.1-8.4-12.2-14-10.9-31.7-17-49.4-17-17.7 0-35.4 6.1-49.4 17-3.1 2.4-6.1 5.2-7.8 8.7-1.8 3.6-2 8.1 0.2 11.3 2.3 3.3 6.5 4.6 10.4 4.5 3.9 0 7.7-1.3 11.4-2.4 18.5-5.2 38.3-5.1 56.7 0.1 7.2 2 14.4 4.8 21.9 4.1 7.4-0.8 15-6.7 14.4-14.1z"/><path class="d" d="m40 112q-0.8 0.5-1.6 1.2c-1.6 1.3-3.1 2.9-4.3 4.6-1.2 1.8-2.1 3.7-2.8 5.7 14.4-3.9 29.9-3.8 44.3 0.3 3.2 0.9 6.3 1.9 9.5 2.6-0.4-2.1-1.9-4.6-2.9-6.2-8.3-13.6-29.2-16.6-42.2-8.2z"/></svg>