<svg version="1.2" xmlns="http://www.w3.org/2000/svg" viewBox="0 0 129 108" width="129" height="108"><style>.a{fill:#1d1d1b}.b{fill:#fff}.c{fill:#ededed}</style><path class="a" d="m109.1 82.4c-0.6-0.9-1.9-1.2-2.9-0.6-15.1 8.8-32.4 13.5-50 13.5-3.4 0-6.8-0.2-10.2-0.6 0 0-0.2 0-0.2 0-0.9 0-1.8 0.6-2.1 1.5-0.3 0.9 0 1.9 0.8 2.4 6.5 4.8 14.1 7.7 22.2 8.5q2.1 0.2 4.1 0.2c8.1 0 16.2-2.2 23.3-6.2 7.4-4.2 12.9-10.2 15.3-16.7 0.2-0.7 0.1-1.4-0.3-2z"/><path class="a" d="m33.2 3.3c-8.4 0.6-16.6 4.5-22.5 10.6-0.6 0.7-1.7-0.1-1.3-0.9 2.2-4.9 6.5-10.3 10.5-11.9 4.4-1.9 9.3-1.2 13.6 1 0.6 0.3 0.4 1.2-0.3 1.2z"/><path class="b" d="m29.4 49.9c-8.3-1-16.6-1.6-24.5-4.2-0.6 5.9 0.5 12.1 3.3 17.2 4.8 8.9 14.5 14.4 24 13.7 9.5-0.7 18.4-7.5 22.1-16.9 1.4-3.6 2.1-7.4 2-11.2-8.5 2.4-18.3 2.4-26.9 1.4z"/><path fill-rule="evenodd" class="a" d="m30.6 77.6c-9.4 0-18.5-5.6-23.2-14.2-2.9-5.2-4.1-11.5-3.5-17.8l0.2-1.1 1.1 0.3c6.4 2.1 12.9 2.9 19.8 3.6q2.2 0.3 4.5 0.6c3.5 0.4 6.9 0.6 10.3 0.6 6 0 11.5-0.7 16.3-2l1.1-0.3 0.1 1.2c0 4-0.7 8-2.1 11.5-3.8 9.8-13.1 16.9-22.9 17.5q-0.9 0.1-1.7 0.1zm-24.9-30.6c-0.3 5.5 0.8 10.9 3.3 15.5 4.7 8.5 13.9 13.9 23.1 13.2 9.2-0.7 17.8-7.2 21.4-16.4 1.1-2.9 1.8-6.2 1.9-9.6-7.5 1.9-16.7 2.3-26.1 1.1q-2.3-0.3-4.5-0.5c-6.3-0.7-12.9-1.5-19.1-3.3z"/><path class="c" d="m53.5 59.3c0.9-2.3 1.4-4.6 1.7-7.1-0.3 1.2-0.9 2.7-1.3 3.8-3.7 9.5-12.5 16.4-21.9 17.1-9.4 0.7-18.9-4.9-23.7-13.8-1.1-2.2-1.9-4.5-2.5-6.9 0.4 3.7 1.2 7.1 2.9 10.3 4.6 8.7 14.1 14.3 23.3 13.6 9.1-0.6 17.9-7.8 21.5-17z"/><path class="a" d="m44.7 50.8c-4.2 0-8.5 0.1-12.7 0q-0.3 1.6-0.1 3.4c0.6 5.7 5.8 9.8 11.5 9.1 5.6-0.7 9.7-5.9 9-11.5q-0.1-0.7-0.3-1.3-3.7 0.3-7.4 0.3z"/><path class="b" d="m41.1 53.5c0.2 1.9-1.1 3.6-3 3.8-1.8 0.3-3.5-1.1-3.8-2.9-0.2-1.9 1.1-3.6 3-3.8 1.9-0.3 3.6 1.1 3.8 2.9z"/><path class="a" d="m2.2 43.2l6.6 2.3c2.2 0.6 4.4 1.2 6.6 1.8l6.8 1.2 6.9 0.8 6.9 0.2 6.9-0.3 6.8-0.8c1.1-0.2 2.3-0.3 3.4-0.8 1.1-0.3 2.2-0.9 3.1-1.7l-2.1 2.6v-2.5l-0.2-2.6-0.4-2.5-0.7-2.4c-0.3-0.8-0.6-1.7-0.9-2.5-0.4-0.7-0.8-1.5-1.2-2.3-0.4-0.8-0.8-1.5-1.3-2.3-0.5-0.7-1-1.5-1.4-2.1-0.6-0.7-1.2-1.5-1.8-2.2-0.5-0.6-1.1-1.2-1.7-1.8l-2-1.8-2.1-1.6-2.3-1.4-2.4-1.2-2.5-1.1-2.5-0.8c-0.3-0.1-0.4-0.3-0.4-0.6 0.1-0.2 0.4-0.3 0.6-0.3l2.7 0.7 2.6 0.9 2.6 1.1 2.5 1.3 2.3 1.5c0.8 0.6 1.5 1.2 2.2 1.7 0.7 0.7 1.4 1.3 2.1 2 0.7 0.6 1.3 1.3 1.9 2 0.7 0.7 1.2 1.5 1.8 2.2 0.5 0.8 1 1.6 1.6 2.4 0.5 0.8 0.9 1.6 1.4 2.4 0.4 0.9 0.8 1.8 1.2 2.6 0.3 0.9 0.6 1.8 0.9 2.7l0.7 2.8 0.5 2.9 0.2 2.8c0 0.6-0.4 1.1-0.9 1.3h-0.1c-2.3 0.5-4.7 0.9-7 1.3l-7.1 0.5-7 0.1-7.1-0.3-7-0.9-6.9-1.3-6.8-1.7-6.6-2.2c-0.6-0.2-1-0.8-0.8-1.4 0.2-0.5 0.8-0.8 1.4-0.7z"/><path class="a" d="m95.2 3.3c8.5 0.6 16.7 4.5 22.5 10.6 0.7 0.7 1.7-0.1 1.4-0.9-2.3-4.9-6.6-10.3-10.5-11.9-4.4-1.9-9.4-1.2-13.7 1-0.5 0.3-0.4 1.2 0.3 1.2z"/><path class="b" d="m99.1 50.6c9.2-0.4 16.8-0.7 24.7-3.3 0.6 6-0.8 10.5-3.6 15.6-4.8 8.9-14.5 14.4-24 13.7-9.5-0.7-18.4-7.5-22.1-16.9-1.4-3.6-2.3-6.4-2.2-10.3 8.4 0.8 18.6 1.7 27.2 1.2z"/><path fill-rule="evenodd" class="a" d="m97.8 77.6q-0.8 0-1.6-0.1c-9.9-0.6-19.1-7.7-23-17.5-1.5-3.7-2.3-6.7-2.3-10.6l0.1-1 2.3 0.2c6.6 0.6 14 1.2 21 1.2q2.4 0 4.8-0.1l1.7-0.1c8.3-0.4 15.4-0.8 22.7-3.2l1.1-0.3 0.1 1.1c0.6 5.7-0.5 10.4-3.6 16.2-4.8 8.6-13.9 14.2-23.3 14.2zm-25-27.1c0.1 3.1 0.9 5.6 2.1 8.8 3.6 9.2 12.2 15.7 21.4 16.4 9.2 0.6 18.5-4.7 23.1-13.2 2.8-5.1 3.8-9.2 3.6-13.9-7.2 2.1-14.1 2.5-22.1 2.9l-1.7 0.1q-2.4 0.1-4.9 0.1c-7 0-14.5-0.7-21.1-1.2z"/><path class="c" d="m74.9 59.3c-0.9-2.3-1.4-4.6-1.7-7.1 0.3 1.2 0.9 2.7 1.3 3.8 3.7 9.5 12.5 16.4 21.9 17.1 9.4 0.7 18.9-4.9 23.7-13.8 1.1-2.2 2-4.5 2.5-6.9-0.4 3.7-1.1 7.1-2.8 10.3-4.7 8.7-14.2 14.3-23.3 13.6-9.2-0.6-18-7.8-21.6-17z"/><path class="a" d="m110.8 50.8c-4.3 0-8.5 0.1-12.7 0q-0.4 1.6-0.2 3.4c0.7 5.7 5.8 9.8 11.5 9.1 5.7-0.7 9.7-5.9 9-11.5 0-0.5 0.4-2.2 0.2-2.6-2.5 0.2-5.4 1.6-7.8 1.6z"/><path class="b" d="m107.2 53.5c0.2 1.9-1.2 3.6-3 3.8-1.9 0.3-3.6-1.1-3.8-2.9-0.3-1.9 1.1-3.6 3-3.8 1.8-0.3 3.5 1.1 3.8 2.9z"/><path class="a" d="m127.5 47.3c-1.1 0.4-2.3 0.7-3.5 0.9q-1.7 0.4-3.5 0.8c-2.3 0.4-4.7 0.7-7 1-4.7 0.6-9.4 1-14.1 1.2-4.6 0.3-9.3 0.4-14 0.4q-3.6-0.1-7.1-0.3c-1.2-0.1-2.4-0.3-3.6-0.3q-0.9 0-1.9 0.1c-0.4 0-0.8 0-1.2 0-0.4-0.1-0.9-0.1-1.8-0.7l-0.1-0.1c-0.5-0.5-0.8-1.1-0.7-1.7l0.2-3 0.5-3 0.8-2.9c0.3-0.9 0.6-1.9 1-2.8 0.4-0.9 0.8-1.8 1.2-2.7 0.5-0.8 1-1.7 1.5-2.5 0.6-0.8 1.1-1.7 1.7-2.4 0.6-0.8 1.1-1.5 1.8-2.4 0.7-0.6 1.3-1.3 2-2 0.7-0.7 1.4-1.3 2.2-2 0.7-0.6 1.5-1.2 2.3-1.7l2.4-1.6 2.6-1.3 2.6-1.1 2.7-0.9 2.8-0.7c0.3 0 0.5 0.1 0.6 0.4 0 0.2-0.1 0.4-0.3 0.5-0.1 0-2.7 0.8-2.7 0.8l-2.6 1.1-2.4 1.2-2.4 1.5-2.2 1.6-2.1 1.8c-0.6 0.6-1.2 1.3-1.9 1.9-0.6 0.7-1.1 1.4-1.7 2.1-0.5 0.7-1.1 1.5-1.6 2.2-0.5 0.8-0.9 1.6-1.4 2.4-0.4 0.8-0.7 1.6-1.1 2.4-0.4 0.8-0.7 1.7-1 2.5l-0.8 2.6-0.5 2.6-0.3 2.7v2.6l-0.4-0.9c0-0.1 0.1 0.1 0.4 0.1l0.7 0.2q0.7 0.2 1.5 0.3c1.1 0.2 2.3 0.3 3.4 0.4q3.4 0.4 6.9 0.5 6.9 0.3 13.9 0c4.6-0.2 9.3-0.5 13.9-1.1 4.6-0.6 9.2-1.3 13.6-2.7 0.7-0.2 1.3 0.1 1.4 0.7 0.2 0.6-0.1 1.2-0.7 1.3z"/><path class="a" d="m112.2 75.6c1.4 1.2 3 1.9 3.9 3.5 0.4 0.7 0.7 1.5 0.9 2.3 0.3 0.9 0.2 1.7 1.1 2.3 0.1 0.1 0.5 0.1 0.7 0 1.9-1.3 0.4-4.7-0.8-6.1-1.3-1.6-3.7-2.7-5.7-2.1-0.1 0-0.1 0.1-0.1 0.1z"/></svg>