<svg version="1.2" xmlns="http://www.w3.org/2000/svg" viewBox="0 0 120 128" width="120" height="128"><style>.a{fill:#1d1d1b}.b{fill:#fff}.c{fill:#ededed}</style><path class="a" d="m117.2 86.1q0 0-0.9 1.1c-0.5 0.7-1.5 1.8-2.8 3.1-1.2 1.2-2.8 2.7-4.7 4.2-1.9 1.6-4.1 3.2-6.7 4.8-2.5 1.6-5.4 3.2-8.5 4.8-3.1 1.5-6.4 3-10 4.2-3.5 1.2-7.3 2.2-11.2 3-2 0.3-4 0.6-6 0.7-1.1 0.1-2 0.3-3.1 0.2h-3c-1.9 0-4-0.3-6-0.4-2.1-0.3-4-0.6-6-0.9-3.9-0.9-7.7-1.8-11.2-3.1q-2.7-0.9-5.2-1.9c-1.7-0.7-3.3-1.4-4.9-2.2-3.1-1.4-5.9-3-8.5-4.6-1.3-0.8-2.5-1.6-3.6-2.3q-1.7-1.3-3.2-2.4-1.4-1.1-2.6-2.1-1.2-1.1-2.2-2c-1.2-1.3-2.2-2.3-2.8-3.1-0.5-0.7-0.9-1.1-0.9-1.1l1.6-1.2q0 0.1 0.8 1.1c0.5 0.7 1.5 1.6 2.7 2.8q1 0.9 2.1 1.9 1.2 0.9 2.6 2 1.5 1.1 3.1 2.2c1.2 0.7 2.3 1.5 3.6 2.3 2.5 1.4 5.3 3 8.4 4.4 1.5 0.7 3 1.4 4.7 2q2.4 1 5.1 1.9c3.4 1.2 7.1 2.1 10.9 2.9 1.9 0.3 3.8 0.6 5.7 0.8 2 0.1 3.8 0.4 5.8 0.3l3 0.1c0.9 0 1.9-0.2 2.9-0.2 1.9-0.1 3.8-0.4 5.7-0.7 3.8-0.7 7.5-1.6 10.9-2.8 3.5-1.1 6.8-2.6 9.8-4 3-1.5 5.8-3 8.3-4.6 2.5-1.5 4.7-3 6.6-4.5 1.9-1.4 3.4-2.8 4.6-4 1.3-1.2 2.1-2 2.7-2.8q0.9-1.1 0.9-1.1z"/><path class="a" d="m49.8 123c0 0 0.4 0.1 1 0.2q0.5 0.1 1.1 0.3 0.6 0.2 1.3 0.4 0.8 0.1 1.6 0.3c0.5 0.1 1.2 0.1 1.8 0.3q0.4 0 0.9 0.1 0.5 0 0.9 0.1c0.7 0 1.3 0.1 2 0.1 1.3 0 2.6 0 3.8-0.1 0.6-0.1 1.2-0.1 1.8-0.2q0.9-0.1 1.6-0.2c1.1-0.1 1.9-0.3 2.5-0.3 0.6-0.1 1-0.1 1-0.1 0 0-0.3 0.2-0.8 0.6q-0.4 0.3-0.9 0.6c-0.4 0.2-0.8 0.5-1.3 0.7-1 0.4-2.2 1-3.5 1.2-0.7 0.1-1.4 0.3-2.1 0.4q-1.1 0-2.2 0c-0.7 0-1.5-0.1-2.2-0.2-0.7 0-1.4-0.2-2-0.4-1.4-0.4-2.6-1-3.5-1.6-1-0.5-1.6-1.1-2.1-1.5-0.4-0.5-0.7-0.7-0.7-0.7z"/><path class="a" d="m111 80.6c2.3 1.5 3.9 3.1 5.3 5.4 0.7 1.3 0.9 2.7 0.8 4.1 0 1.2-0.4 1.6 0.5 2.6 0.1 0.2 0.5 0.3 0.7 0.2 2.7-1.1 1.4-5.7 0.5-7.7-1.2-2.9-4.6-4.5-7.4-5.5-0.6-0.2-0.9 0.6-0.4 0.9z"/><path class="a" d="m9.1 79.7c-3 1-6 2.6-7.5 5.5-1 1.9-2.1 6.7 0.5 7.7 0.3 0.1 0.6 0 0.7-0.2 0.5-0.5 0.8-0.9 0.6-1.6-0.2-1.6-0.2-3.1 0.5-4.6 1.1-2.5 3.2-4.4 5.5-5.9 0.5-0.3 0.2-1.1-0.3-0.9z"/><path class="a" d="m31.9 3.5c-8.5 0.6-16.7 4.5-22.6 10.6-0.6 0.6-1.7-0.1-1.3-0.9 2.3-4.9 6.6-10.3 10.5-12 4.4-1.8 9.4-1.1 13.6 1 0.6 0.3 0.4 1.2-0.2 1.3z"/><path class="b" d="m50.5 30.5c-5.1-6.8-13.4-10.8-21.5-10.4-8.2 0.5-16 5.4-20.5 12.8-5.1 8.7-5.3 20.4-0.5 29.3 4.8 8.9 14.5 14.4 24 13.7 9.5-0.7 18.4-7.5 22.2-16.9 3.6-9.3 2.1-20.6-3.7-28.5z"/><path fill-rule="evenodd" class="a" d="m51.3 30c0 0 0.3 0.6 1 1.6 0.3 0.6 0.8 1.2 1.2 2.1q0.6 1.2 1.4 2.8c0.4 1.2 0.7 2.4 1.2 3.8 0.2 1.4 0.6 2.9 0.8 4.5 0.3 3.3 0.1 7.1-0.8 11.1q-0.5 1.5-0.9 2.9c-0.4 1.1-0.9 2-1.4 3-0.4 1.1-1.1 2-1.7 2.9-0.3 0.5-0.6 1-1 1.4l-1.1 1.4c-3.1 3.5-7.2 6.5-12.1 8.1-4.8 1.7-10.5 1.6-15.5-0.3-5-1.8-9.4-5.2-12.8-9.5-3.2-4.2-5.3-9.5-5.9-14.8-0.6-5.3-0.1-10.7 1.9-15.7 1.8-4.7 5.1-9 9-12 0.9-0.7 1.9-1.4 3-1.9q0.8-0.5 1.5-0.9 0.8-0.3 1.6-0.7 0.8-0.3 1.6-0.6 0.9-0.3 1.8-0.5c0.5-0.2 1.1-0.3 1.6-0.4q0.8-0.1 1.5-0.2 0.8-0.2 1.5-0.3c0.3 0 0.1 0 0.2 0 0.1 0 0.3 0 0.3 0h0.4l0.8 0.1c1 0 2.1 0 3 0.2 1 0.2 2 0.3 2.8 0.6 0.9 0.3 1.8 0.5 2.6 0.9 3.2 1.3 5.7 3.1 7.5 4.7 0.9 0.7 1.6 1.6 2.3 2.3 0.7 0.7 1.1 1.3 1.5 1.8 0.7 1 1.1 1.5 1.1 1.5zm-1.5 1.2q0 0 0 0 0.1 0 0.1 0zm-1.3-1.3c-0.4-0.5-0.9-1.1-1.6-1.6-0.6-0.5-1.3-1.2-2.2-1.8-1.8-1.3-4.2-2.5-7.1-3.5-2.9-0.8-6.3-1.4-9.9-0.9q-0.7 0-1.5 0.1c-0.5 0.1-0.9 0.2-1.3 0.3q-0.7 0.2-1.4 0.4-0.7 0.2-1.4 0.5-0.7 0.2-1.4 0.5-0.7 0.4-1.4 0.7c-0.9 0.5-1.8 1-2.7 1.7-3.5 2.5-6.6 5.9-8.6 10.3-2 4.2-2.9 9.3-2.6 14.4 0.4 5 1.9 10.2 5.1 14.3 3.1 4.1 7.5 7.4 12.3 9 4.8 1.7 10.1 1.8 14.7 0.1 4.6-1.5 8.5-4.5 11.4-7.8l1-1.3c0.4-0.4 0.6-0.9 0.9-1.4 0.6-0.9 1.2-1.7 1.6-2.7 0.4-0.9 1-1.9 1.3-2.8q0.4-1.4 0.8-2.9c0.8-3.7 1-7.3 0.6-10.4-0.1-1.5-0.5-2.9-0.8-4.3q-0.6-1.9-1.1-3.5-0.8-1.5-1.3-2.7c-0.4-0.8-0.9-1.3-1.2-1.9q-0.8-1.3-0.9-1.5-0.2-0.1-1.3-1.3z"/><path class="c" d="m53.6 58.5c0.8-2.3 1.4-4.7 1.7-7.1-0.3 1.1-0.9 2.6-1.4 3.7-3.7 9.7-12.5 16.6-22 17.3-9.5 0.7-19.1-4.9-23.9-13.9-1.2-2.2-2-4.5-2.5-6.9 0.4 3.7 1.1 7.1 2.8 10.4 4.7 8.7 14.3 14.3 23.5 13.7 9.2-0.7 18.1-7.9 21.8-17.2z"/><path class="a" d="m45.4 53.9c0 5.7-4.6 10.3-10.3 10.3-5.7 0-10.3-4.6-10.3-10.3 0-5.7 4.6-10.4 10.3-10.4 5.7 0 10.3 4.7 10.3 10.4z"/><path class="b" d="m35.4 50.1c0 1.9-1.5 3.4-3.4 3.4-1.9 0-3.4-1.5-3.4-3.4 0-1.9 1.5-3.4 3.4-3.4 1.9 0 3.4 1.5 3.4 3.4z"/><path class="a" d="m88.6 3.5c8.4 0.6 16.6 4.5 22.5 10.6 0.6 0.6 1.7-0.1 1.3-0.9-2.2-4.9-6.5-10.3-10.5-12-4.4-1.8-9.3-1.1-13.6 1-0.6 0.3-0.4 1.2 0.3 1.3z"/><path class="b" d="m69.9 30.5c5.1-6.8 13.4-10.8 21.6-10.4 8.1 0.5 16 5.4 20.4 12.8 5.1 8.7 5.4 20.4 0.5 29.3-4.8 8.9-14.5 14.4-24 13.7-9.5-0.7-18.4-7.5-22.1-16.9-3.7-9.3-2.2-20.6 3.6-28.5z"/><path fill-rule="evenodd" class="a" d="m69.1 30q0.1-0.1 1.2-1.6c0.4-0.5 0.9-1.1 1.6-1.7 0.7-0.7 1.4-1.6 2.4-2.3 1.8-1.5 4.3-3.1 7.5-4.4 3.2-1.2 7.1-1.9 11.3-1.3q0.8 0.1 1.5 0.2c0.5 0.1 1.1 0.3 1.6 0.4q0.8 0.3 1.7 0.5 0.8 0.3 1.5 0.6 0.8 0.4 1.6 0.7 0.8 0.4 1.5 0.8c1.1 0.6 2 1.3 3 2 3.7 2.8 7.1 6.9 9 11.6 1.9 4.9 2.6 10.2 2 15.5-0.6 5.3-2.6 10.5-5.8 14.7-3.3 4.3-7.8 7.5-12.8 9.2-5 1.7-10.5 1.7-15.2 0.2-4.8-1.5-8.9-4.4-12-7.9l-1.1-1.3c-0.4-0.4-0.7-0.9-1-1.4-0.6-0.9-1.3-1.8-1.7-2.8-0.5-1-1-1.9-1.4-3q-0.5-1.4-1-2.8c-0.9-4-1.2-7.8-0.8-11 0.1-1.7 0.5-3.2 0.7-4.6 0.4-1.4 0.8-2.6 1.2-3.8q0.7-1.6 1.3-2.9c0.4-0.8 0.9-1.4 1.2-2 0.7-1 1-1.6 1-1.6zm1.6 1.1q-0.2 0.2-1 1.5c-0.3 0.5-0.8 1.1-1.2 1.9q-0.5 1.2-1.2 2.7-0.5 1.6-1.2 3.5c-0.2 1.4-0.6 2.8-0.7 4.3-0.3 3.1-0.1 6.7 0.7 10.4q0.5 1.4 0.9 2.9c0.3 0.8 0.9 1.8 1.3 2.7 0.4 0.9 1 1.8 1.6 2.7 0.3 0.4 0.6 0.9 0.9 1.3l1 1.2c2.9 3.3 6.8 6.1 11.3 7.6 4.5 1.5 9.6 1.6 14.4 0 4.7-1.5 9.2-4.6 12.3-8.7 3.2-4.1 4.6-9.3 5-14.3 0.3-5-0.8-10-2.7-14.1-2.1-4.4-5.2-7.6-8.7-10-0.8-0.6-1.7-1.2-2.6-1.6q-0.7-0.3-1.4-0.7-0.6-0.3-1.3-0.5-0.7-0.3-1.4-0.5-0.6-0.2-1.3-0.3c-0.4-0.1-0.8-0.2-1.3-0.3q-0.7-0.1-1.5-0.2-0.7-0.1-1.4-0.1c-0.1 0-0.2 0-0.2 0h-0.3l-0.7-0.1c-0.8 0-1.6 0-2.4 0.2-1.7 0.1-3.2 0.5-4.6 0.8-2.9 0.8-5.3 1.9-7.1 3.2-1 0.5-1.6 1.2-2.3 1.7-0.7 0.5-1.2 1-1.7 1.5q-1.1 1.2-1.2 1.3zm20.5-8.6q0 0 0 0 0 0 0 0 0 0 0 0zm0.1 0q0 0 0 0 0 0 0 0zm-0.1 0c0.2 0 0.1 0 0.1 0q0 0-0.1 0z"/><path class="a" d="m95.7 53.9c0 5.7-4.7 10.3-10.4 10.3-5.7 0-10.3-4.6-10.3-10.3 0-5.7 4.6-10.4 10.3-10.4 5.7 0 10.4 4.7 10.4 10.4z"/><path class="b" d="m85.6 50.1c0 1.9-1.5 3.4-3.4 3.4-1.9 0-3.4-1.5-3.4-3.4 0-1.9 1.5-3.4 3.4-3.4 1.9 0 3.4 1.5 3.4 3.4z"/><path class="c" d="m67.3 58.7c-0.9-2.2-1.4-4.6-1.7-7q0.4 1.7 1 3.4c3.7 9.3 12.5 16.1 21.9 16.8 9.4 0.6 18.9-4.8 23.7-13.6 1.1-2.1 1.9-4.4 2.5-6.7-0.4 3.6-1.3 7.6-3 10.7-4.6 8.5-14 13.4-23.1 12.7-9.2-0.6-17.7-7.2-21.3-16.3z"/></svg>