<svg version="1.2" xmlns="http://www.w3.org/2000/svg" viewBox="0 0 122 90" width="122" height="90"><style>.a{fill:#1d1d1b}</style><path class="a" d="m36.1 84.8q0-0.1 0.2-0.8c0.2-0.4 0.3-1.1 0.7-2q0.3-0.7 0.6-1.6 0.4-0.7 0.9-1.6c0.6-1.2 1.5-2.4 2.5-3.7 1.1-1.3 2.3-2.6 3.8-3.7 1.5-1.2 3.2-2.2 5-3.2 1.9-0.8 3.9-1.5 6-2 2.2-0.4 4.2-0.6 6.6-0.4 2.1 0.4 4.1 0.6 6.3 1.4 2.1 0.6 3.9 1.7 5.7 2.6 1.7 1.2 3.4 2.2 4.7 3.5q1 0.9 2 1.8 0.9 1 1.7 1.9c1.1 1.2 1.9 2.4 2.6 3.5q0.6 0.8 1.1 1.5 0.4 0.8 0.7 1.4c0.9 1.7 1.4 2.6 1.4 2.6 0.3 0.7 0.1 1.4-0.5 1.8-0.6 0.3-1.4 0.1-1.7-0.5l-0.1-0.2c0 0-0.5-0.9-1.4-2.4q-0.4-0.5-0.8-1.2-0.5-0.6-1-1.4c-0.8-0.9-1.6-2.1-2.6-3.1q-0.8-0.8-1.6-1.7-0.9-0.8-1.9-1.6c-1.2-1.2-2.8-2-4.3-3.1-1.6-0.7-3.3-1.8-5-2.2-1.6-0.7-3.8-0.9-5.8-1.2-0.1 0 0.3 0 0.1 0-0.1 0-0.3 0-0.3 0h-0.3l-0.7-0.1c-0.5 0-1 0-1.4 0.1-1 0-1.9 0.2-2.8 0.3-1.9 0.4-3.6 1-5.3 1.7-1.6 0.8-3.1 1.6-4.4 2.7-1.4 0.9-2.5 2.1-3.5 3.1q-1.4 1.7-2.3 3.2-0.5 0.8-0.9 1.4-0.3 0.7-0.6 1.3c-0.3 0.7-0.5 1.4-0.7 1.9q-0.2 0.7-0.2 0.7c-0.3 0.7-1 1.1-1.7 0.8-0.6-0.2-1-0.9-0.8-1.5z"/><path class="a" d="m41.3 86.9c0.1 0.2 0.1 0 0-0.3-0.1-0.3-0.3-0.5-0.5-0.7-0.4-0.4-1-0.7-1.4-1.1-0.5-0.4-0.9-0.9-1.4-1.3-0.4-0.6-0.8-0.7-1-1.3-1.2-2.3-5.2-0.6-4.2 1.8 0.9 2.3 2.6 3.6 5 4.1 0.9 0.2 2.1 0.5 2.9 0 0.4-0.2 0.8-0.8 0.6-1.2z"/><path class="a" d="m86 89.5c2.2-0.4 4.1-1.3 5.4-3.3 0.9-1.4-0.9-2.9-2.3-2.2-1.5 0.8-2.6 2.2-4.2 3-1.4 0.8-0.4 2.7 1.1 2.5z"/><path class="a" d="m113.2 12.8c-8.4-1.3-16.3-5.9-21.6-12.5-0.6-0.7-1.7 0-1.4 0.8 1.8 5.1 5.7 10.8 9.4 12.8 4.3 2.2 9.3 1.9 13.7 0.1 0.6-0.2 0.5-1.1-0.1-1.2z"/><path class="a" d="m121.7 48.6c0 0-0.6 0.6-1.8 1.5q-0.9 0.8-2.4 1.6-0.8 0.4-1.6 0.8c-0.6 0.3-1.2 0.5-1.9 0.7-0.6 0.2-1.3 0.5-2 0.7-0.7 0.2-1.5 0.3-2.3 0.5-0.8 0.1-1.6 0.2-2.4 0.3-0.9 0-1.7 0.1-2.6 0.1-1.7-0.2-3.6-0.2-5.4-0.7-0.9-0.3-1.8-0.4-2.7-0.8l-1.3-0.5-0.7-0.3-0.3-0.1-0.2-0.1c-0.1 0-0.3-0.1-0.3-0.1-1.5-0.9-3-1.6-4.6-2.9-1.6-1.1-2.8-2.5-4-3.8q-0.9-1-1.6-2c-0.5-0.7-0.9-1.4-1.3-2.1q-0.6-1.1-1.1-2.1c-0.3-0.6-0.5-1.3-0.8-2-0.2-0.6-0.4-1.2-0.6-1.8q-0.2-1-0.3-1.8-0.4-1.6-0.4-2.8c0-1.6 0.1-2.5 0.1-2.5 0 0 0.4 0.8 1 2.2 0.2 0.7 0.7 1.5 1.2 2.4q0.4 0.7 0.8 1.5 0.5 0.7 1 1.5c0.6 1 1.5 2 2.4 3.1 0.4 0.6 0.9 1.1 1.4 1.6 0.6 0.5 1 1.1 1.6 1.6 1.1 0.9 2.3 2 3.5 2.7 1.1 0.9 2.8 1.7 4.3 2.5-0.3-0.1-0.1 0-0.2 0 0.2 0 0.3 0.1 0.3 0.1l0.3 0.1 0.5 0.2 1.1 0.4c0.7 0.4 1.5 0.5 2.2 0.8 1.5 0.5 3 0.7 4.5 1 0.7 0.1 1.4 0.1 2.2 0.2 0.7 0.1 1.4 0.1 2.1 0.1 1.4 0 2.7 0 4-0.2q0.9 0 1.8-0.1 0.8-0.2 1.5-0.3c1-0.2 1.9-0.3 2.7-0.6 1.5-0.4 2.3-0.6 2.3-0.6z"/><path class="a" d="m12.2 12.8c8.4-1.3 16.2-5.9 21.6-12.5 0.5-0.7 1.7 0 1.4 0.8-1.9 5.1-5.7 10.8-9.5 12.8-4.3 2.2-9.2 1.9-13.7 0.1-0.6-0.2-0.5-1.1 0.2-1.2z"/><path class="a" d="m0.7 43.6c0 0 0.8 0.3 2.2 1.1 0.6 0.4 1.5 0.7 2.5 1.1q0.7 0.2 1.4 0.6 0.9 0.2 1.8 0.5c1.1 0.4 2.5 0.6 3.8 0.9 0.7 0.2 1.4 0.3 2.1 0.3 0.8 0.1 1.5 0.2 2.2 0.2 1.5 0 3.1 0.2 4.6-0.1 0.8 0 1.6 0 2.3-0.2l1.2-0.3 0.6-0.1h0.2 0.2c0 0 0.3-0.1 0 0 1.6-0.5 3.4-1 4.6-1.6 1.4-0.5 2.7-1.4 4-2 0.7-0.4 1.2-0.9 1.9-1.3 0.6-0.4 1.2-0.8 1.7-1.2 1.1-0.9 2.1-1.8 3-2.7q0.6-0.6 1.2-1.2 0.6-0.7 1.1-1.3c0.7-0.8 1.3-1.5 1.7-2.1 0.8-1.2 1.4-2 1.4-2 0 0-0.1 0.9-0.5 2.5q-0.2 1.1-0.9 2.7-0.3 0.7-0.6 1.6c-0.3 0.6-0.7 1.1-1 1.7-0.4 0.6-0.7 1.2-1.2 1.8q-0.7 0.9-1.4 1.8c-0.5 0.7-1.1 1.2-1.7 1.8q-0.9 0.9-2 1.7c-1.4 1-2.8 2.1-4.7 2.9-1.8 1-3.4 1.4-5 2h-0.2c-0.2 0-0.3 0.1-0.3 0.1h-0.4l-0.7 0.1-1.4 0.3c-0.9 0.2-1.9 0.2-2.8 0.2-1.9 0.1-3.7-0.2-5.4-0.4-0.9-0.1-1.7-0.4-2.6-0.6-0.8-0.2-1.6-0.4-2.3-0.8-0.7-0.3-1.4-0.6-2.1-0.9-0.7-0.3-1.3-0.7-1.9-1-0.6-0.4-1.2-0.7-1.7-1.1q-0.7-0.6-1.4-1.1-1.3-1.1-2-2c-1-1.2-1.5-1.9-1.5-1.9z"/></svg>